<svg xmlns="http://www.w3.org/2000/svg" width="256" height="256" viewBox="0 0 256 256">
  <path fill="#372666" d="M99.1170323,31.693382 C99.1673756,48.8822549 89.8273672,62.9484311 67.9797228,63.0357163 C45.5929078,63.1014769 36.1658458,49.0591703 36.1010712,31.8997833 C36.0479022,14.2012256 47.447711,0.0943308178 67.7677052,0.000128049159 C87.5344878,-0.0488863882 99.0480279,13.9793794 99.1170323,31.693382 Z M132.743386,169.009197 C131.020567,155.274386 128.553581,142.033815 125.791735,132.031076 C118.768476,99.1837883 95.9239271,78.2810967 67.5542835,78.0325727 C39.2885425,78.2810967 16.2769074,99.1837883 9.25786017,132.031076 C5.16212889,146.740325 2.45785106,163.614682 1.08043852,180.215241 C0.396646566,187.623221 0.0835344386,194.897813 0.00630947457,203.167904 C-0.143928183,219.202615 2.38764655,229.622369 7.73161406,235.025308 C11.0550957,238.376872 15.7194835,240 21.9999792,240 C33.4840334,240 41.9928204,231.16406 46.7175841,222.868695 C50.7178372,215.845435 55.7009535,207.099357 67.6118512,207.099357 C79.5199406,207.099357 84.4988447,215.839819 88.4976937,222.868695 C93.2238615,231.16406 101.734053,240 113.220915,240 C119.49439,240 124.161586,238.376872 127.480856,235.025308 C132.829035,229.625177 135.356398,219.208232 135.208968,203.167904 C135.091025,190.806294 134.405829,180.675783 132.743386,169.009197 Z" transform="translate(60 8)"/>
</svg>
