<svg xmlns="http://www.w3.org/2000/svg" width="256" height="256" viewBox="0 0 256 256">
  <g fill="none" transform="translate(0 38)">
    <path fill="#4AC9F5" d="M162.820677,118.698156 C152.871469,116.638988 145.796248,110.579605 139.626046,102.805538 C137.651496,104.436464 136.274852,106.773109 134.740999,108.818961 C132.219657,112.180464 129.575899,115.453484 126.905509,118.698156 C119.913617,127.194692 112.095308,135.18739 103.545509,142.124733 C89.6630933,153.389162 67.5779389,166.681833 50.7132946,153.268894 C48.3792275,151.412894 46.5833617,149.123927 44.9988248,146.617619 C42.874798,143.258692 41.6265832,139.323337 40.8358181,135.449833 C39.8131067,130.441511 39.2336705,125.100303 39.5841671,119.986746 C41.1596839,96.9763837 51.3958181,74.9341824 64.0287309,55.9867461 C69.3291335,48.0365716 75.4310396,39.7651085 82.5002476,33.2946656 C86.5623147,29.5762226 90.8760866,26.3315515 95.8139658,23.8785045 C100.08865,21.7549072 104.808328,20.2184777 109.558932,19.6008132 C127.194583,17.3092696 136.584113,34.7761152 141.856167,48.6847327 C143.015899,51.7438468 144.043335,54.9477126 144.780409,58.1343971 C147.538852,57.3676857 149.580838,54.9266656 152.082422,53.5435783 C156.881563,50.8907998 162.042798,49.1005179 167.545509,48.7233904 C170.630395,48.511632 174.707925,50.0983166 176.517107,46.9584508 C177.697026,44.9113099 176.738315,43.3426656 175.888704,41.3827193 C174.39308,37.930585 173.081295,34.3547461 171.22916,31.0739944 C162.976597,16.4579407 150.701483,5.22400786 134.042154,1.38787364 C126.835066,-0.271401532 119.026207,-0.277414955 111.706583,0.506048132 C94.1615631,2.3843837 77.4725966,8.09799444 62.7401403,17.9015918 C46.0842476,28.9856186 31.4879523,42.730585 20.3596839,59.4229877 C11.642798,72.4987461 4.67414293,86.4498871 1.57516844,101.946478 C-0.0823886089,110.235551 -0.462479884,118.900464 0.581235552,127.28876 C1.366202,133.597699 2.95271475,140.016598 5.72365703,145.758558 C7.79764361,150.056437 10.3284356,154.175202 13.4683013,157.785404 C35.8313617,183.497941 74.5552275,184.573055 104.8341,174.883283 C110.938583,172.92935 116.854073,170.294182 122.444838,167.174934 C134.71308,160.3308 145.624006,151.853592 155.948194,142.359256 C158.422717,140.083605 160.877912,137.838021 163.249778,135.449833 C164.227389,134.46578 165.558503,133.400115 165.957536,132.013592 C166.389644,130.513243 165.430503,128.688598 164.968758,127.28876 C164.060731,124.537619 163.072811,121.589323 162.820677,118.698156 Z"/>
    <path fill="#7CC242" d="M175.277053,49.1142629 C185.503738,51.9946924 193.83104,56.6576723 199.721617,65.8659407 C201.627442,68.8451622 202.429805,72.2298602 204.055576,75.3156052 C206.415845,73.1365985 207.946261,69.8597126 209.662234,67.1545314 L218.682368,52.9800347 C225.314315,42.5244105 232.030019,32.1186119 238.600113,21.62433 C241.465939,17.0472562 245.796033,12.1738065 247.438127,7.02030317 L214.793832,7.02030317 L205.773697,7.02030317 C204.41853,7.02030317 202.754959,6.78921592 201.518342,7.46186021 C200.078556,8.24489377 199.221644,9.97547095 198.389214,11.3156052 L193.564731,19.0471488 C187.443925,28.8241152 179.85155,38.4958468 175.277053,49.1142629 Z"/>
    <path fill="#6CC49D" d="M175.277053,48.2552025 L175.706583,48.6847327 L175.277053,48.2552025 Z"/>
    <path fill="#FDD404" d="M167.115979,66.0545045 C161.358127,66.9539407 156.30857,70.0976723 153.510181,75.3156052 C148.251442,85.1209206 153.317321,98.3152293 164.109268,101.498478 C167.107389,102.38288 170.076731,102.384169 173.129402,101.884196 C175.449724,101.504062 177.596946,100.700411 179.572355,99.4268535 C192.907979,90.8285179 189.070127,69.659981 173.558932,66.3019139 C171.44006,65.8431756 169.26406,65.7190414 167.115979,66.0545045 Z"/>
    <path fill="#EF3A39" d="M162.820677,118.698156 C163.358019,122.688921 164.907335,126.425404 165.932194,130.295471 C169.864113,145.141323 175.814395,161.386585 188.592489,170.895525 C204.287523,182.574451 227.747603,183.000545 244.001885,172.101216 C248.069536,169.374129 253.49665,165.301323 255.599201,160.792115 C246.547711,160.817028 237.924462,162.576384 228.968328,159.917592 C211.55904,154.749055 206.311899,137.724196 201.467227,122.134397 C199.954422,117.265243 198.094127,112.441619 196.753563,107.53037 C193.426422,109.081404 190.93257,112.299874 187.733429,114.208276 C180.105832,118.75786 171.51265,120.31276 162.820677,118.698156 Z"/>
    <path fill="#C58378" d="M162.820677,119.986746 L163.250207,120.416276 L162.820677,119.986746 Z"/>
    <path fill="#8FB0BF" d="M162.820677,120.416276 L163.250207,120.845807 L162.820677,120.416276 Z"/>
    <path fill="#B8918C" d="M163.250207,121.704867 L163.679738,122.134397 L163.250207,121.704867 Z"/>
    <path fill="#A8A0A3" d="M163.679738,123.422988 L164.109268,123.852518 L163.679738,123.422988 Z"/>
    <path fill="#CA7E72" d="M164.109268,124.711578 L164.538798,125.141109 L164.109268,124.711578 Z"/>
    <path fill="#92AFBC" d="M164.109268,125.141109 L164.538798,125.570639 L164.109268,125.141109 Z"/>
    <path fill="#9FA6AD" d="M164.538798,126.429699 L164.968328,126.859229 L164.538798,126.429699 Z"/>
    <path fill="#AC9C9D" d="M164.968328,127.71829 L165.397858,128.14782 L164.968328,127.71829 Z"/>
    <path fill="#B9918C" d="M165.397858,129.00688 L165.827389,129.436411 L165.397858,129.00688 Z"/>
    <path fill="#C4857B" d="M165.827389,130.295471 L166.256919,130.725001 L165.827389,130.295471 Z"/>
  </g>
</svg>
