<svg xmlns="http://www.w3.org/2000/svg" width="27" height="27" viewBox="0 0 27 27">
  <g fill="none" fill-rule="evenodd" transform="translate(1 1)">
    <circle cx="12.5" cy="12.5" r="12.5" fill="#FAF8F5"/>
    <path fill="#FF875B" fill-rule="nonzero" d="M14.5667437,5.25 L10.4465562,5.25 C10.3123145,5.25 10.1987253,5.35861899 10.1987253,5.49686133 C10.1057888,9.31827479 8.08183701,12.9421992 4.60187913,15.5095571 C4.48829,15.5885527 4.46763743,15.7465439 4.55024771,15.8551629 L6.956272,19.1433559 C7.03888227,19.2519749 7.19377654,19.2815983 7.30736567,19.2026026 C9.4862117,17.6029412 11.2416801,15.6872972 12.5014868,13.5544153 C13.7612935,15.6872972 15.5167619,17.6128156 17.6956079,19.2026026 C17.809197,19.2815983 17.9640913,19.2618493 18.0467016,19.1433559 L20.4527259,15.8551629 C20.5353361,15.7465439 20.5043573,15.5885527 20.4010944,15.5095571 C16.9211366,12.9421992 14.8971848,9.31827479 14.8145745,5.49686133 C14.8145745,5.35861899 14.7009854,5.25 14.5667437,5.25 Z"/>
    <circle cx="12.5" cy="12.5" r="13" fill="#FF875B" stroke="#FF875B"/>
    <path fill="#FFF" fill-rule="nonzero" d="M14.5667437,5.25 L10.4465562,5.25 C10.3123145,5.25 10.1987253,5.35861899 10.1987253,5.49686133 C10.1057888,9.31827479 8.08183701,12.9421992 4.60187913,15.5095571 C4.48829,15.5885527 4.46763743,15.7465439 4.55024771,15.8551629 L6.956272,19.1433559 C7.03888227,19.2519749 7.19377654,19.2815983 7.30736567,19.2026026 C9.4862117,17.6029412 11.2416801,15.6872972 12.5014868,13.5544153 C13.7612935,15.6872972 15.5167619,17.6128156 17.6956079,19.2026026 C17.809197,19.2815983 17.9640913,19.2618493 18.0467016,19.1433559 L20.4527259,15.8551629 C20.5353361,15.7465439 20.5043573,15.5885527 20.4010944,15.5095571 C16.9211366,12.9421992 14.8971848,9.31827479 14.8145745,5.49686133 C14.8145745,5.35861899 14.7009854,5.25 14.5667437,5.25 Z"/>
  </g>
</svg>
