<svg xmlns="http://www.w3.org/2000/svg" width="256" height="256" viewBox="0 0 256 256">
  <defs>
    <linearGradient id="atomic-wallet-a" x1="50%" x2="50%" y1="0%" y2="100%">
      <stop offset="0%" stop-color="#182848"/>
      <stop offset="100%" stop-color="#243963"/>
    </linearGradient>
    <linearGradient id="atomic-wallet-b" x1="0%" x2="0%" y1="0%" y2="100%">
      <stop offset="0%" stop-color="#42C1FD"/>
      <stop offset="100%" stop-color="#1F8EFA"/>
    </linearGradient>
  </defs>
  <g fill="none" fill-rule="evenodd">
    <path fill="url(#atomic-wallet-a)" d="M0,128 C0,57.3077662 57.3065846,0 128,0 C198.692234,0 256,57.3077662 256,128 C256,198.693022 198.692234,256 128,256 C57.3065846,256 0,198.693022 0,128 Z"/>
    <path fill="url(#atomic-wallet-b)" d="M44,200.202697 L93.8519262,64.1429638 C100.177707,48.2578389 111.971347,39.2657769 127.649159,39.005824 L127.649159,39 L127.99972,39 L128.350841,39 L128.350841,39.005824 C144.028653,39.2657769 155.822293,48.2578389 162.148074,64.1429638 L212,200.202697 L181.129897,189.507782 L138.543995,73.2799543 C135.952307,66.8516928 132.959097,64.5372051 127.99972,64.4352848 C123.040343,64.5372051 120.047693,66.8516928 117.456005,73.2799543 L74.8701029,189.507782 L44,200.202697 Z M149.691392,148.394125 C149.691392,160.278484 140.11144,169.913316 128.292601,169.913316 C116.474882,169.913316 106.89437,160.278484 106.89437,148.394125 C106.89437,136.509205 116.474882,126.874933 128.292601,126.874933 C140.11144,126.874933 149.691392,136.509205 149.691392,148.394125 Z"/>
  </g>
</svg>
