<svg xmlns="http://www.w3.org/2000/svg" width="256" height="256" viewBox="0 0 256 256">
  <g fill="none" fill-rule="evenodd">
    <rect width="256" height="256" fill="#FFF" fill-rule="nonzero" rx="128"/>
    <path fill="#000" d="M0,128 C0,57.3099886 57.3099886,0 128,0 C198.690011,0 256,57.3099886 256,128 C256,198.690011 198.690011,256 128,256 C57.3099886,256 0,198.690011 0,128 Z M14.9162789,128.580389 C14.9162789,190.702811 65.2971886,241.083611 127.419611,241.083611 C189.5424,241.083611 239.9232,190.702811 239.9232,128.580389 C239.9232,66.4576 189.5424,16.0768 127.419611,16.0768 C65.2971886,16.0768 14.9162789,66.4576 14.9162789,128.580389 Z M168.156891,65.1461486 C169.273783,62.9035886 170.417737,60.6069029 171.588389,58.2656 L171.895589,58.1632 L184.2176,58.1632 L183.808,58.9140114 C183.402789,59.6853029 183.000503,60.4507429 182.601509,61.2099657 C179.539017,67.0390857 176.657554,72.5233371 173.909211,77.6875886 C176.708389,79.0868114 178.926811,80.9300114 180.497189,83.1147886 C182.442789,85.8112 183.3984,89.4292114 183.3984,93.9008 C183.3984,96.2219886 182.818011,98.9867886 181.6576,102.126811 C180.497189,105.233189 178.551589,108.373211 175.854811,111.4112 C173.1584,114.449189 169.5744,117.3504 165.1712,120.046811 C162.9184,121.412389 160.426789,122.845989 157.3888,124.074789 C159.982811,124.381989 162.440411,124.8256 164.727589,125.44 C168.379611,126.429989 171.588389,127.863589 174.2848,129.672411 C177.015589,131.4816 179.2,133.8368 180.736,136.6016 C182.272,139.3664 183.057189,142.711589 183.057189,146.466011 C183.057189,152.200411 181.3504,157.627611 177.9712,162.6112 C174.626011,167.5264 170.325211,171.895589 165.239589,175.547611 C160.1536,179.2 154.385189,182.101211 148.138789,184.183589 C141.892389,186.2656 135.68,187.323611 129.706789,187.323611 C124.654811,187.323611 120.183589,186.811611 116.3264,185.7536 C116.309211,185.770789 116.3008,185.796389 116.292389,185.821989 C116.283611,185.847589 116.2752,185.873189 116.258011,185.890011 C114.210011,189.917989 112.093989,194.1504 109.909211,198.5536 L109.7728,198.8608 L97.4507886,198.8608 L97.8603886,198.109989 C99.44064,195.103817 100.977737,192.183954 102.47168,189.346377 C103.94624,186.545737 105.378743,183.824823 106.769189,181.179611 C103.458011,178.5856 101.7856,175.4112 101.7856,171.758811 C101.7856,168.7552 102.980389,166.126811 105.335589,163.9424 C107.690789,161.792 110.865189,160.699611 114.7904,160.699611 C117.248,160.699611 119.3984,161.416411 121.2416,162.884389 L122.197211,163.6352 L120.968411,163.805989 C118.613211,164.1472 117.009189,165.137189 116.053211,166.912 C115.063589,168.721189 114.551589,171.042011 114.551589,173.841189 C114.551589,176.810789 115.9168,179.234011 118.6816,181.213989 C121.480411,183.227611 125.098789,184.251611 129.467611,184.251611 C136.021211,184.251611 141.824,183.125211 146.7392,180.906789 C151.6544,178.688 155.784411,175.7184 159.061211,172.100389 C162.338011,168.482011 164.829989,164.283611 166.468389,159.6416 C168.106789,154.999589 168.925989,150.152411 168.925989,145.271589 C168.925989,141.687589 168.1408,138.683611 166.6048,136.2944 C165.0688,133.905189 162.952411,131.959589 160.290011,130.491611 C157.4912,128.955611 155.170011,128 152.200411,127.8976 C147.729189,127.726811 142.336,128.3072 142.097189,128.341211 L141.585189,128.4096 L141.585189,128.3072 C139.5712,128.341211 137.352411,128.648411 134.9632,129.1264 C132.1984,129.672411 129.706789,129.979611 127.5904,129.979611 L127.419611,129.9456 C127.249189,129.911589 127.112777,129.8432 126.976,129.775177 L126.976,129.774811 C126.9248,129.7408 126.8736,129.7152 126.8224,129.6896 C126.7712,129.664 126.72,129.6384 126.6688,129.604389 C126.59712,129.580251 126.541897,129.539657 126.480091,129.493943 C126.45376,129.474194 126.426331,129.45408 126.395611,129.4336 C126.293211,129.365211 126.191177,129.262811 126.122789,129.194789 L126.122789,129.194789 C125.781211,128.853211 125.610789,128.170789 125.610789,127.010011 C125.610789,126.0544 125.883611,125.269211 126.464,124.586789 C127.0784,123.904 127.863589,123.562789 128.8192,123.562789 C130.6624,123.562789 132.4032,123.8016 134.075611,124.3136 C135.645989,124.791589 137.3184,125.0304 139.025189,125.0304 C140.424411,125.0304 142.097189,124.893989 143.940389,124.654811 C145.749211,124.416 147.319589,124.074789 148.548389,123.5968 C150.493989,122.709211 151.8592,121.6512 153.429211,120.4224 C154.146011,119.842011 154.897189,119.261989 155.7504,118.647589 C158.5152,116.6336 161.0752,114.244389 163.293989,111.547611 C165.4784,108.8512 167.287589,105.7792 168.6528,102.434011 C169.984,99.0891886 170.666789,95.4708114 170.666789,91.6820114 C170.666789,88.7467886 170.018011,86.2548114 168.789211,84.3092114 C167.5264,82.3636114 165.888,80.8276114 163.874011,79.7355886 L163.054811,79.3259886 C162.030811,78.8139886 160.904411,78.4043886 159.744,78.0628114 C158.788389,77.7899886 157.969189,77.5851886 157.0816,77.4484114 C154.487589,77.0388114 153.1904,76.8340114 150.6304,76.8340114 C148.923611,76.8340114 147.285211,77.0388114 145.783589,77.4144 C144.384,77.7899886 143.121189,78.6772114 142.062811,80.0427886 C140.288,82.2612114 138.478811,84.992 136.635611,88.1323886 L135.3728,90.2827886 C134.642469,91.5426743 133.921646,92.7733029 133.221303,93.9695543 C132.612389,95.00928 132.018834,96.0226743 131.447589,97.0068114 C126.293211,106.257189 103.936,149.026011 98.5771886,159.6416 L97.8260114,161.143589 C91.3674971,174.198491 87.0729143,182.890789 84.2272914,188.650423 C81.4332343,194.305097 80.0365714,197.132434 79.36,198.485211 L79.2235886,198.792411 L66.9012114,198.792411 L67.3108114,198.0416 C69.8708114,193.1264 72.7380114,187.665189 75.4004114,182.647589 C73.6596114,183.5008 71.9188114,184.2176 70.1780114,184.832 C65.2288,186.606811 60.4500114,187.016411 56.0811886,186.0608 C52.1216,185.207589 49.5956114,183.330011 48.6059886,180.462811 C47.9572114,178.551589 48.0939886,176.810789 49.0155886,175.274789 C49.9028114,173.7728 51.3024,172.6464 53.1796114,171.997989 C55.0571886,171.349211 56.6955886,171.349211 58.0267886,171.997989 C59.3579886,172.6464 60.2795886,173.7728 60.8256,175.274789 C61.3035886,176.64 61.1668114,178.005211 60.3819886,179.3024 C59.7332114,180.394789 58.7776,181.213989 57.5488,181.794011 C57.9584,182.237989 58.5044114,182.545189 59.1872,182.749989 C60.1771886,183.057189 61.2692114,183.227611 62.4299886,183.227611 C63.5220114,183.227611 64.7168,183.1936 65.8772114,182.852389 C71.5092114,181.179611 74.4788114,178.858789 77.6192,173.738789 C80.2461257,169.427749 97.9269486,137.202103 100.429897,132.640549 L100.522789,132.471589 C101.341989,130.901211 102.843611,128.136411 104.516389,125.064411 C105.267566,123.683109 106.044709,122.251337 106.807954,120.845531 C109.062217,116.694309 111.193234,112.769829 112.162011,111.035611 C112.403749,110.590537 112.844434,109.775726 113.437989,108.678217 C114.437851,106.829531 115.872183,104.178103 117.521189,101.137189 C122.197211,92.5012114 128.4096,81.0324114 130.389211,77.5168 C130.286811,77.5168 130.184411,77.5168 130.116389,77.4827886 L130.048,77.4827886 C116.3264,77.1412114 93.3204114,76.6292114 72.192,90.5216 C61.2011886,97.7236114 49.9371886,116.462811 52.3947886,128.887589 C53.5552,134.724389 57.4804114,138.3424 64.1364114,139.605211 C72.8404114,141.277989 79.2235886,137.386789 83.0464,133.802789 C89.0196114,128.2048 91.7844114,120.695589 91.4091886,117.623589 C90.66496,111.534811 86.8033829,111.446309 85.3054171,111.412297 L85.2651886,111.4112 C85.1690057,111.4112 85.0834286,111.400229 85.0091886,111.39072 C84.9514057,111.383406 84.9002057,111.377189 84.8555886,111.377189 L84.5824,111.342811 L84.4459886,111.069989 C84.3092114,110.728411 84.5824,110.045989 84.8212114,109.6704 C85.0944,109.2608 85.5380114,109.021989 85.9819886,108.987611 C90.8628114,108.680411 97.6896,111.991589 98.816,116.497189 C100.898011,124.859611 91.8868114,137.898789 77.0731886,142.1312 C63.7952,145.92 55.808,142.916389 51.4731886,139.707611 C45.568,135.406811 43.3492114,128.682789 43.2128,123.869989 C42.9056,112.503589 52.2923886,96.8020114 64.1024,88.8491886 C81.8176,76.9024 100.113189,72.704 131.549989,73.3524114 C131.9936,73.3184 132.437211,73.3184 132.914834,73.3184 L132.9152,73.3184 C135.8848,67.4816 139.093211,61.1668114 140.4928,58.3339886 L140.629211,58.0267886 L152.951589,58.0267886 L152.541989,58.7776 C150.391589,62.8736 147.7632,67.5499886 145.2032,72.0555886 L144.520411,73.2843886 C149.2992,73.3524114 153.361189,73.5232 157.969189,73.8644114 C159.914789,74.0011886 161.757989,74.2059886 163.498789,74.4788114 L165.034789,71.4068114 C166.051109,69.3741714 167.091566,67.2848457 168.156891,65.1461486 Z"/>
  </g>
</svg>
