<svg xmlns="http://www.w3.org/2000/svg" width="256" height="256" viewBox="0 0 256 256">
  <g fill="none" fill-rule="evenodd">
    <circle cx="128" cy="128" r="128" fill="#1F2126"/>
    <g fill="#F3BA2F" transform="translate(43 43)">
      <path d="M52.4340704,71.7676704 L85.2538704,38.9478704 L118.07367,71.8014704 L137.17067,52.7044704 L85.2538704,0.753870359 L33.3370704,52.6706704 L52.4340704,71.7676704 L52.4340704,71.7676704 Z M0.753870359,85.2538704 L19.8508704,66.1568704 L38.9478704,85.2538704 L19.8508704,104.35087 L0.753870359,85.2538704 Z M52.4340704,98.7400704 L85.2538704,131.55987 L118.07367,98.7062704 L137.20447,117.80327 L137.20447,117.80327 L85.2538704,169.75387 L33.3370704,117.83707 L33.3032704,117.80327 L52.4340704,98.7400704 L52.4340704,98.7400704 Z M131.55987,85.2538704 L150.65687,66.1568704 L169.75387,85.2538704 L150.65687,104.35087 L131.55987,85.2538704 Z"/>
      <polygon points="106.754 85.254 106.754 85.254 85.288 63.754 69.41 79.641 69.41 79.641 67.57 81.478 63.788 85.254 63.754 85.288 63.788 85.322 85.254 106.754 106.754 85.288 106.754 85.288 106.754 85.288"/>
    </g>
  </g>
</svg>
