<svg xmlns="http://www.w3.org/2000/svg" width="256" height="256" viewBox="0 0 256 256">
  <defs>
    <linearGradient id="bitfinex-a" x1="50%" x2="50%" y1="0%" y2="100%">
      <stop offset="0%" stop-color="#000F18"/>
      <stop offset="100%" stop-color="#0D3044"/>
    </linearGradient>
  </defs>
  <g fill="none" fill-rule="evenodd">
    <circle cx="128" cy="128" r="128" fill="url(#bitfinex-a)"/>
    <g fill-rule="nonzero" transform="translate(56 62)">
      <path fill="#709B30" d="M34.0674081,26.2759799 C48.1366808,17.2169505 63.6850309,10.4677932 79.9188071,6.24505839 C92.5450775,2.9607091 121.116524,-1.15375046 133.526344,1.84186483 C128.187235,8.55493042 122.343076,15.6650053 116.751442,22.1615204 C103.836571,35.9846608 90.3444989,49.410792 75.1208243,60.6714181 C53.3314892,77.1653481 28.1510985,90.627571 0.66190413,93.8036451 C0.156853315,83.3370374 0.986579654,72.689971 4.44978525,62.7286479 C7.44401508,53.7057103 12.4584482,45.3685159 19.1323339,38.6193586 C23.497416,33.8552475 28.5118491,29.596421 34.0674081,26.2759799 Z"/>
      <path fill="#98C455" d="M134.290557,2.80364506 C147.326252,67.6631775 102.457534,154.756139 23.2350796,127.758404 C16.6812219,125.520624 11.1356501,120.720224 6.52634361,115.486706 C34.8663764,111.191612 58.5250822,96.4655742 79.4470124,77.5888155 C102.961677,56.3659968 118.157985,29.7291939 134.290557,2.80364506 Z"/>
    </g>
  </g>
</svg>
