<svg xmlns="http://www.w3.org/2000/svg" width="311.097" height="360.327" viewBox="0 0 311.097 360.327"><defs><style>.a{fill:#02aeef;}</style></defs><g transform="translate(-100.041 -0.014)"><path class="a" d="M100.3,99V47.7c0-11.8,4.4-16.4,16-17.2,37.5-2.4,74.6-7.3,110.2-19.7,8.3-2.9,16.2-6.9,24.5-9.9,2.5-.9,6.2-1.3,8.5-.3,30.3,14.6,62.7,22,95.8,26.1,13.8,1.7,27.7,2.6,41.5,4,8.6.8,13.9,5.8,13.8,14.6-.4,39.1,2.9,78.3-3.2,117-14.2,91.1-62,157.8-146.3,197-3.2,1.5-8.3,1.3-11.7-.1-71.7-32.7-117.8-87.6-139.1-163.4C100.9,161.9,99.3,127.5,100.3,99ZM255.5,275c5.4,0,10.2.4,15-.3a7.19,7.19,0,0,0,4.5-4.5,178.191,178.191,0,0,0,.3-17.9c-.1-4.6,1.1-7,6.5-7.7a121,121,0,0,0,23.2-4.8c15.6-5.2,23.1-16.8,24.2-35.6,1.1-17.1-6.2-28.6-20.3-33.1a15.941,15.941,0,0,1-2.4-1.7c13.1-9.7,15.1-22.4,11.3-36.4-3.7-13.6-15-18.8-27.4-22-4.6-1.2-9.4-1.9-14.7-2.9V79.5H256.9v28.1H243.7V79.2H224.8v29c-10.9,0-20.8-.1-30.7.1-2,.1-5.2,2.1-5.4,3.6-.7,5.2-.3,10.5-.3,16.4h22.7V222H191c0,6,.3,11.1-.1,16.4-.3,4.9,1.5,6.6,6.5,6.5,8.5-.3,17.1-.1,26.5-.1v28.9h19.2V245.6h12.7C255.5,255.8,255.5,265,255.5,275Z"/><path class="a" d="M244.4,183.4c11.3,1.2,22.3,1.7,32.9,3.8,9.7,1.9,15.2,9,15.1,16.7-.1,7.6-5.3,13.8-15.2,15.8-10.5,2.1-21.2,2.6-32.6,3.8C244.4,209.9,244.4,197.7,244.4,183.4Z"/><path class="a" d="M244.2,164.3V130.5c11.9-.7,24-1.3,34.3,6.2,8.9,6.5,7.3,18.7-2.5,23.8C269,164.4,255.1,166.1,244.2,164.3Z"/></g></svg>