<svg xmlns="http://www.w3.org/2000/svg" width="256" height="256" viewBox="0 0 256 256">
  <defs>
    <linearGradient id="bitnovo-wallet-a" x1=".023%" x2="100.072%" y1="49.973%" y2="49.973%">
      <stop offset="0%" stop-color="#1CA9DF"/>
      <stop offset="100%" stop-color="#5080BE"/>
    </linearGradient>
  </defs>
  <g fill="none" fill-rule="evenodd">
    <circle cx="128" cy="128" r="128" fill="url(#bitnovo-wallet-a)"/>
    <path fill="#FFF" fill-rule="nonzero" d="M181.52,113.832727 C183.963636,99.1709091 172.56,91.0254545 157.083636,85.3236364 L161.970909,64.96 L149.752727,61.7018182 L144.865455,81.2509091 C141.607273,80.4363636 138.349091,79.6218182 135.090909,78.8072727 L139.978182,59.2581818 L127.76,56 L122.872727,76.3636364 C120.429091,75.5490909 117.170909,74.7345455 114.727273,74.7345455 L114.727273,74.7345455 L97.6218182,70.6618182 L94.3636364,83.6945455 C94.3636364,83.6945455 103.323636,86.1381818 103.323636,86.1381818 C108.210909,87.7672727 109.025455,91.0254545 109.025455,93.4690909 L103.323636,116.276364 C103.323636,116.276364 104.138182,116.276364 104.952727,116.276364 C104.138182,116.276364 104.138182,116.276364 103.323636,116.276364 L95.1781818,148.858182 C94.3636364,150.487273 92.7345455,152.930909 89.4763636,152.116364 C89.4763636,152.116364 80.5163636,149.672727 80.5163636,149.672727 L74,163.52 L90.2909091,167.592727 C93.5490909,168.407273 95.9927273,169.221818 99.2509091,170.036364 L94.3636364,190.4 L106.581818,193.658182 L111.469091,173.294545 C114.727273,174.109091 117.985455,174.923636 121.243636,175.738182 L116.356364,196.101818 L128.574545,199.36 L133.461818,178.996364 C154.64,183.069091 170.116364,181.44 177.447273,162.705455 C183.149091,147.229091 177.447273,138.269091 166.043636,132.567273 C174.189091,130.123636 179.890909,125.236364 181.52,113.832727 L181.52,113.832727 Z M153.825455,153.745455 C149.752727,169.221818 124.501818,161.076364 115.541818,158.632727 L122.058182,131.752727 C131.018182,133.381818 157.898182,137.454545 153.825455,153.745455 L153.825455,153.745455 Z M157.083636,113.832727 C153.825455,127.68 131.832727,120.349091 125.316364,118.72 L131.832727,94.2836364 C138.349091,95.9127273 161.156364,99.1709091 157.083636,113.832727 Z"/>
  </g>
</svg>
