<svg xmlns="http://www.w3.org/2000/svg" width="256" height="256" viewBox="0 0 256 256">
  <path fill="#282828" fill-rule="evenodd" d="M83.9748803,244.13846 L50,244.13846 L50,30.4293847 L83.9748803,11 L83.9748803,105.343996 C93.5586278,94.8047047 110.234631,87.3656215 129.38797,87.3656215 C175.416855,87.3656215 206.001325,118.353544 206.001325,166.682811 C206.001325,215.019156 175.423933,246 129.38797,246 C109.003042,246 93.8629861,237.633686 83.9819584,228.021626 L83.9819584,244.13846 L83.9748803,244.13846 Z M83.3661637,166.682811 C83.3661637,193.331857 100.969399,213.157616 127.844944,213.157616 C154.72049,213.157616 172.64224,193.331857 172.64224,166.682811 C172.64224,140.040842 154.72049,120.215084 127.844944,120.215084 C100.969399,120.215084 83.3661637,140.040842 83.3661637,166.682811 Z"/>
</svg>
