<svg xmlns="http://www.w3.org/2000/svg" width="45" height="45" viewBox="0 0 45 45">
  <defs>
    <linearGradient id="bitpay-wallet-a" x1="98.699%" x2="8.314%" y1="50%" y2="50%">
      <stop offset="0%" stop-color="#253483"/>
      <stop offset="100%" stop-color="#16225C"/>
    </linearGradient>
    <linearGradient id="bitpay-wallet-b" x1="50%" x2="50%" y1="24.541%" y2="100%">
      <stop offset="0%" stop-color="#142F94"/>
      <stop offset="100%" stop-color="#081A52"/>
    </linearGradient>
    <linearGradient id="bitpay-wallet-c" x1="50%" x2="50%" y1="0%" y2="100%">
      <stop offset="0%" stop-color="#060F3C"/>
      <stop offset="100%" stop-color="#142F94"/>
    </linearGradient>
  </defs>
  <g fill="none" fill-rule="evenodd">
    <circle cx="22.5" cy="22.5" r="22.5" fill="#214497" fill-rule="nonzero"/>
    <rect width="45" height="45" fill="url(#bitpay-wallet-a)" fill-rule="nonzero" rx="22.5"/>
    <rect width="45" height="45" fill="url(#bitpay-wallet-b)" fill-rule="nonzero" rx="22.5"/>
    <rect width="45" height="45" fill="url(#bitpay-wallet-c)" fill-rule="nonzero" rx="22.5"/>
    <path fill="#FFF" fill-rule="nonzero" d="M20.8133854,32.0924469 C21.6242753,32.0924469 22.3892114,31.8929258 23.1076683,31.4930844 C23.8258627,31.0935094 24.4463721,30.5583453 24.9678836,29.8883912 C25.4891325,29.2181708 25.9003546,28.4600439 26.2018124,27.613744 C26.5027451,26.7674442 26.6537366,25.8857154 26.6537366,24.9685576 C26.6537366,23.8401578 26.4680827,22.958429 26.0975626,22.3239039 C25.7265175,21.6888461 24.9558043,21.3987546 23.9597856,21.3987546 C23.6349569,21.3987546 23.2990993,21.4304542 22.7775878,21.5479293 C22.2560763,21.6659371 21.8062529,21.9099442 21.3892538,22.2858111 L19.1225432,31.959788 C19.7929454,32.0788613 20.0250784,32.0924469 20.1876241,32.0924469 L20.8133854,32.0924469 L20.8133854,32.0924469 Z M25.3326266,16.9986349 C26.445237,16.9986349 27.4065933,17.1986887 28.2182711,17.5982637 C29.0291611,17.9981051 29.7011389,18.5385968 30.2344671,19.2202718 C30.7672702,19.9024795 31.1611611,20.7013631 31.4164023,21.6185209 C31.6711184,22.5354123 31.7990017,23.5228953 31.7990017,24.5807035 C31.7990017,26.2029779 31.5035835,27.7370795 30.9124846,29.1830082 C30.3213857,30.6289369 29.5160102,31.886799 28.4963581,32.9565944 C27.4761807,34.0266562 26.2713998,34.8729561 24.8807024,35.4954939 C23.4902677,36.1182981 21.9835038,36.430233 20.3614612,36.430233 C20.1529616,36.430233 19.7879561,36.4241062 19.2664446,36.4126517 C18.7449331,36.400398 18.1477945,36.3476541 17.4758167,36.2538872 C16.8035763,36.1595875 16.0908964,36.0186707 15.3380396,35.8306041 C14.5843951,35.6428039 13.8719779,35.384412 13.2,35.0548958 L19.2141884,9.41629981 L24.6028781,8.57 L22.4737666,17.6566017 C22.9369823,17.4450933 23.3739386,17.2929884 23.837942,17.1749806 C24.3011577,17.0575056 24.7992983,16.9986349 25.3326266,16.9986349 L25.3326266,16.9986349 Z"/>
  </g>
</svg>
