<svg xmlns="http://www.w3.org/2000/svg" width="256" height="256" viewBox="0 0 256 256">
  <path fill="#252C36" d="M122.026667,151.146667 C122.026667,148.373333 119.946667,146.986667 117.866667,146.986667 C113.706667,146.986667 108.16,147.68 104,147.68 C80.4266667,147.68 61.0133333,128.266667 61.0133333,104.693333 L61.0133333,9.70666667 L61.0133333,1.38666667 C61.0133333,0.693333333 60.32,0 59.6266667,0 L0.693333333,0 C0.693333333,0 0,0.693333333 0,0.693333333 L0,104 C0,161.546667 46.4533333,208 104,208 C109.546667,208 115.093333,207.306667 120.64,206.613333 C121.333333,206.613333 122.026667,205.92 122.026667,205.226667 L122.026667,151.146667 Z M104,0 C98.4533333,0 92.2133333,0.693333333 86.6666667,1.38666667 C85.9733333,1.38666667 85.28,2.08 85.28,2.77333333 L85.28,56.8533333 C85.28,59.6266667 87.36,61.7066667 89.44,61.0133333 C91.52,61.0133333 103.306667,60.32 103.306667,60.32 C126.88,60.32 146.293333,79.7333333 146.293333,103.306667 L146.293333,103.306667 L146.293333,103.306667 L146.293333,196.906667 C146.293333,197.6 146.986667,197.6 146.986667,197.6 C183.04,181.653333 208,145.6 208,104 C208,46.4533333 161.546667,0 104,0 Z" transform="translate(24 24)"/>
</svg>
