<svg xmlns="http://www.w3.org/2000/svg" width="256" height="256" viewBox="0 0 256 256">
  <g fill="none" fill-rule="evenodd">
    <path fill="#149F49" d="M128,0 C57.3075269,0 0,57.3075269 0,128 C0,198.692473 57.3075269,256 128,256 C198.692473,256 256,198.692473 256,128 C256,57.3075269 198.692473,0 128,0 Z"/>
    <g transform="translate(79 56)">
      <path fill="#73C692" d="M98.7949169,150.812226 C85.3866564,150.9661 71.9412539,150.854674 58.4693215,150.891816 C39.0228337,150.854674 19.5816519,150.9661 0.135164103,150.812226 C0.018432116,145.543369 0.018432116,140.232063 0.135164103,134.920758 C20.4571418,134.766884 40.7844255,134.920758 61.1541572,134.883616 C73.6869277,134.920758 86.2568403,134.766884 98.7843049,134.920758 C98.8851189,140.232063 98.8851189,145.543369 98.7683869,150.812226 L98.7949169,150.812226 Z"/>
      <path fill="#FFF" fill-rule="nonzero" d="M59.8985084,110.799963 C66.6121859,110.874147 73.516623,110.036924 79.7375049,107.36629 C85.9583868,104.695656 91.5222079,100.308186 94.8446039,94.3946386 C99.6877777,85.9641249 99.804353,75.0537367 95.3003073,66.4271645 C92.0203023,60.1320983 86.1438475,55.5167762 79.5838374,52.9998096 C83.8229392,50.7848789 87.7864994,47.8493009 90.3776504,43.8062575 C94.4630847,38.1205622 95.0724556,30.7551229 94.1557499,24.0043532 C93.1373741,18.3622406 90.327888,13.1985092 86.1438475,9.27877336 C79.9176667,3.51889379 71.4394631,0.578016917 63.0990303,0.0428303149 C42.0412921,-0.0313539666 21.0206461,0.00573817414 -3.61579925e-13,0.0428303149 C0.0370921408,4.891303 -0.042391018,9.73447681 0.0370921408,14.6200416 C2.74481842,14.7313181 5.45254469,15.2294125 7.82114282,16.6018217 C12.7385009,19.0816963 15.9072295,24.3116881 16.4424161,29.7271407 C16.6989122,34.190664 15.1743889,38.5736683 12.2033143,41.9145583 C9.10876999,45.3111387 4.61002321,47.4465862 0.0158966318,47.2558266 C0.0529887725,51.6803891 0.0158966318,56.1049516 0.0529887725,60.5719051 C3.25880951,60.7997569 6.53881453,61.525703 9.17235652,63.4332989 C13.9784382,66.5225443 16.7232566,72.2824239 16.4583127,77.931027 C16.6638702,80.8486746 16.1393875,83.7715729 14.9322361,86.435725 C12.3357862,92.1214203 6.3109628,96.1273715 0.0158966318,96.0160951 C0.0529887725,100.933453 0.0158966318,105.85611 0.0158966318,110.778767 L59.8985084,110.799963 Z M76.494592,81.8786906 C75.3117301,87.228296 71.463363,91.5949819 66.304851,93.4408407 C62.5691426,94.8503421 58.5208004,94.7019735 54.5943323,94.7019735 C47.1759042,94.7019735 39.7892693,94.6595825 32.3867378,94.7390657 C32.3125535,83.5584347 32.3125535,72.3795699 32.3867378,61.2024715 C38.5334354,61.3190468 44.7119262,61.2395637 50.8904171,61.2395637 C55.0500358,61.2766558 59.2838387,61.0488041 63.4063652,61.700566 C67.7567434,62.5748807 71.9534542,64.980571 74.3538456,68.7957626 C76.9132033,72.6109543 77.3689067,77.4541281 76.494592,81.8786906 L76.494592,81.8786906 Z M32.3125535,15.9553587 L56.1945932,15.9553587 C61.1914345,15.7645991 66.4585185,17.5927118 69.8550988,21.3708112 C73.0609195,24.8839669 73.9352343,29.9549924 73.1721959,34.5332223 C72.3349733,40.1023423 67.603076,44.4898127 62.335992,45.9787972 C59.1566656,47.0120783 55.7759819,46.6305591 52.4588848,46.7047434 L32.3231512,46.7047434 C32.3496456,36.4408181 32.3496456,26.2192839 32.3125535,15.9553587 L32.3125535,15.9553587 Z"/>
    </g>
  </g>
</svg>
