<svg xmlns="http://www.w3.org/2000/svg" width="256" height="256" viewBox="0 0 256 256">
  <defs>
    <linearGradient id="bittrex-a" x1="50%" x2="50%" y1="0%" y2="100%">
      <stop offset="0%" stop-color="#007AFC"/>
      <stop offset="100%" stop-color="#004896"/>
    </linearGradient>
  </defs>
  <g fill="none" fill-rule="evenodd">
    <circle cx="128" cy="128" r="128" fill="url(#bittrex-a)"/>
    <circle cx="128" cy="128" r="112" stroke="#FFF" stroke-width=".5"/>
    <path fill="#FFF" fill-rule="nonzero" d="M81.3025126,62.6955578 C102.873407,62.8190553 124.444302,62.7367236 146.015196,62.7367236 C153.960201,62.8602211 162.193367,63.0248844 169.603216,66.1946533 C172.978814,67.5531256 175.860422,69.9819095 178.206874,72.7400201 C180.553327,76.1567839 182.076462,80.0675377 182.817447,84.1429548 C184.17592,91.2234774 184.052422,98.5098291 183.434935,105.672683 C183.393769,105.878513 183.352603,106.331337 183.311437,106.537166 C182.446955,111.765226 180.429829,117.15795 176.107417,120.533548 C172.978814,123.209327 168.903397,124.279638 165.116141,125.638111 C167.915417,126.584925 170.961688,126.62609 173.719799,127.861065 C177.383558,129.343035 180.800322,131.812985 182.858613,135.229749 C186.234211,140.622472 186.93403,147.167839 187.139859,153.383879 C187.263357,161.411216 187.057528,169.767879 183.764261,177.26006 C181.294312,182.982111 176.27208,187.42802 170.385367,189.445146 C160.217407,193.108905 149.226131,192.326754 138.605347,192.450251 C119.504402,192.532583 100.362291,192.36792 81.2201809,192.532583 C81.4671759,182.117628 81.2613467,171.661508 81.3436784,161.246553 C81.3436784,128.396221 81.4260101,95.5458894 81.3025126,62.6955578 Z M105.919678,84.3487839 C106.125508,85.4190955 106.249005,86.4482412 106.249005,87.5185528 C106.207839,97.3983518 106.207839,107.319317 106.249005,117.240281 C110.530251,117.116784 114.852663,117.116784 119.13391,117.15795 C126.420261,117.240281 133.665447,117.199116 140.910633,117.199116 C145.150714,117.116784 149.720121,117.199116 153.507377,115.017327 C157.047638,113.000201 158.447276,108.760121 158.61194,104.931698 C159.10593,101.26794 159.064764,97.5630151 158.653106,93.8992563 L158.529608,93.734593 C158.241447,90.8118191 156.965307,87.7243819 154.330693,86.1189146 C151.160925,84.2664523 147.332503,84.2664523 143.751075,84.1429548 C131.277829,84.0606231 118.804583,84.1841206 106.331337,84.1017889 L106.454834,84.3076181 C106.331337,84.3076181 106.043176,84.3487839 105.919678,84.3487839 Z M106.249005,137.78203 C106.290171,148.896804 106.290171,160.052744 106.249005,171.167518 C107.319317,171.126352 108.348462,171.085186 109.418774,171.002854 C110.159759,171.208683 110.983075,171.085186 111.765226,171.126352 C123.209327,171.04402 134.653427,171.249849 146.056362,171.04402 C151.037427,170.755859 157.171136,170.220704 160.011578,165.445467 C162.893186,160.176241 162.481528,153.795538 161.946372,148.032322 L161.658211,148.073487 L161.740543,147.579497 C161.699377,145.068382 160.87606,142.516101 159.39409,140.498975 C157.459296,137.987859 154.248362,136.917548 151.243256,136.464724 C145.521206,135.847236 139.75799,136.053065 134.03594,136.011899 C125.061789,136.011899 116.087638,136.011899 107.072322,136.011899 C105.837347,135.682573 106.331337,137.123377 106.249005,137.78203 Z"/>
  </g>
</svg>
