<svg xmlns="http://www.w3.org/2000/svg" width="256" height="256" viewBox="0 0 256 256">
  <path fill="#213F64" d="M92.5578252,105.402011 C101.436815,95.8464761 114.096343,89.8712221 128.152262,89.8712221 C155.019256,89.8712221 176.806742,111.696595 176.806742,138.625831 C176.806742,165.555067 155.019256,187.402089 128.152262,187.402089 C101.290681,187.402089 79.4977817,165.555067 79.4977817,138.625831 L79.4977817,52.6043637 L35,24 L35,138.625831 C35,190.192165 76.721237,232 128.152262,232 C179.599524,232 221.304524,190.192165 221.304524,138.625831 C221.304524,87.0757341 179.599524,45.265193 128.152262,45.265193 C115.554976,45.265193 103.520576,47.781944 92.5578252,52.3310391 L92.5578252,105.402011"/>
</svg>
