<svg xmlns="http://www.w3.org/2000/svg" width="256" height="256" viewBox="0 0 256 256">
  <g fill="none">
    <path fill="#3D89F5" d="M21.904288,93.03424 L10.224352,104.71424 C6.991552,107.81984 4.419552,111.54656 2.6625984,115.67072 C0.9056288,119.79488 0,124.23136 0,128.71424 C0,133.19712 0.9056288,137.6336 2.6625984,141.75776 C4.419552,145.88192 6.991552,149.60864 10.224352,152.71424 L104.32,247.73856 C106.5504,250.02016 109.14592,251.91264 112,253.33856 L112,138.15424 L21.904288,93.03424 Z"/>
    <path fill="#1656B9" d="M234.09568,93.03424 L245.77568,104.71424 C249.00832,107.81984 251.58048,111.54656 253.33728,115.67072 C255.0944,119.79488 256,124.23136 256,128.71424 C256,133.19712 255.0944,137.6336 253.33728,141.75776 C251.58048,145.88192 249.00832,149.60864 245.77568,152.71424 L151.68,247.73856 C149.4496,250.02016 146.85408,251.91264 144,253.33856 L144,138.15424 L234.09568,93.03424 Z"/>
    <path fill="#85B5F8" d="M211.50432,69.19424 L152.62432,10.154176 C149.5072,6.94144 145.77664,4.387168 141.65408,2.642944 C137.53152,0.8987264 133.1008,0 128.62432,0 C124.14784,0 119.7168,0.8987264 115.59424,2.642944 C111.47168,4.387168 107.74144,6.94144 104.62432,10.154176 L45.58432,69.19424 L128.30432,110.47424 L211.50432,69.19424 Z"/>
  </g>
</svg>
