<svg xmlns="http://www.w3.org/2000/svg" width="77" height="77" viewBox="0 0 77 77">
  <defs>
    <linearGradient id="bluewallet-a" x1="50%" x2="50%" y1="2.838%" y2="100%">
      <stop offset="0%" stop-color="#174697"/>
      <stop offset="100%" stop-color="#0C2550"/>
    </linearGradient>
    <linearGradient id="bluewallet-b" x1="50%" x2="50%" y1="0%" y2="97.884%">
      <stop offset="0%" stop-color="#3F78DC"/>
      <stop offset="100%" stop-color="#2F5FB3"/>
    </linearGradient>
    <linearGradient id="bluewallet-c" x1="50%" x2="50%" y1="2.725%" y2="100%">
      <stop offset="0%" stop-color="#8BD7F9"/>
      <stop offset="100%" stop-color="#68BBE1"/>
    </linearGradient>
  </defs>
  <g fill="none">
    <rect width="77" height="76.013" fill="url(#bluewallet-a)" rx="17"/>
    <rect width="77" height="57.256" y="17.769" fill="url(#bluewallet-b)" rx="17"/>
    <rect width="77" height="40.474" y="36.526" fill="url(#bluewallet-c)" rx="17"/>
    <path fill="#FFF" d="M41.9496127,59.4235777 C41.9496127,60.1883886 41.8649781,60.8760653 41.6957064,61.4866286 C41.5264347,62.0971919 41.2822966,62.6177696 40.9632845,63.0483774 C40.6442725,63.4789852 40.2520239,63.8099698 39.7865267,64.0413412 C39.3210296,64.2727124 38.7920635,64.3883965 38.1996127,64.3883965 C37.9066425,64.3883965 37.6332077,64.3610822 37.3793002,64.3064529 C37.1253927,64.2518234 36.8828821,64.1634538 36.6517611,64.0413412 C36.4206402,63.9192285 36.1927779,63.7649832 35.9681674,63.5786008 C35.7435569,63.3922182 35.514067,63.1672773 35.2796908,62.903771 L35.2796908,63.8388923 C35.2796908,63.909589 35.2617873,63.9690377 35.2259799,64.0172401 C35.1901724,64.0654425 35.1315792,64.1056105 35.0501986,64.1377454 C34.968818,64.1698803 34.8597696,64.1923744 34.7230502,64.2052284 C34.5863307,64.2180823 34.4203168,64.2245093 34.2250033,64.2245093 C34.0231794,64.2245093 33.8555378,64.2180823 33.7220736,64.2052284 C33.5886094,64.1923744 33.4811886,64.1698803 33.399808,64.1377454 C33.3184274,64.1056105 33.2614618,64.0654425 33.2289095,64.0172401 C33.1963573,63.9690377 33.1800814,63.909589 33.1800814,63.8388923 L33.1800814,51.1617338 C33.1800814,51.097464 33.1996125,51.039622 33.2386752,50.9882061 C33.2777379,50.9367902 33.344469,50.8934088 33.4388705,50.8580604 C33.533272,50.822712 33.6585963,50.7953977 33.814847,50.7761168 C33.9710978,50.7568358 34.1696635,50.7471955 34.4105502,50.7471955 C34.6514368,50.7471955 34.8500025,50.7568358 35.0062533,50.7761168 C35.1625041,50.7953977 35.2878283,50.822712 35.3822299,50.8580604 C35.4766314,50.8934088 35.5433625,50.9367902 35.5824252,50.9882061 C35.6214879,51.039622 35.6410189,51.097464 35.6410189,51.1617338 L35.6410189,55.9144631 C35.8623742,55.6959457 36.0837261,55.509566 36.3050814,55.3553186 C36.5264367,55.201071 36.7477886,55.0741399 36.9691439,54.9745218 C37.1904992,54.8749035 37.4183615,54.802601 37.6527377,54.7576122 C37.8871138,54.7126234 38.1345072,54.6901292 38.3949252,54.6901292 C39.0394596,54.6901292 39.5863292,54.8170602 40.0355502,55.070926 C40.4847712,55.3247918 40.8509784,55.6670234 41.134183,56.0976312 C41.4173875,56.528239 41.6240912,57.0311428 41.7543002,57.6063577 C41.8845092,58.1815726 41.9496127,58.7873065 41.9496127,59.4235777 Z M39.4007845,59.5971054 C39.4007845,59.2307674 39.3731156,58.8772887 39.3177767,58.5366587 C39.2624379,58.1960286 39.1664102,57.893965 39.0296908,57.6304587 C38.8929714,57.3669524 38.7155643,57.156472 38.4974642,56.9990109 C38.2793642,56.8415499 38.0043018,56.7628205 37.6722689,56.7628205 C37.5095077,56.7628205 37.3500041,56.7853146 37.1937533,56.8303035 C37.0375025,56.8752923 36.8763713,56.9524149 36.7103549,57.0616737 C36.5443384,57.1709324 36.3734417,57.3123238 36.1976595,57.4858524 C36.0218774,57.6593809 35.8363324,57.8746816 35.6410189,58.1317609 L35.6410189,60.9853266 C35.9860727,61.4223613 36.3164731,61.7549526 36.6322299,61.9831104 C36.9479866,62.2112684 37.278387,62.3253455 37.6234408,62.3253455 C37.9424528,62.3253455 38.2126324,62.2450095 38.4339877,62.0843349 C38.6553429,61.9236604 38.8392604,61.7147866 38.9857455,61.4577074 C39.1322306,61.200628 39.2380238,60.9082048 39.3031283,60.5804287 C39.3682328,60.2526526 39.4007845,59.9248815 39.4007845,59.5971054 Z M46.2873063,63.8388923 C46.2873063,63.903162 46.2677753,63.9593973 46.2287126,64.0075997 C46.1896499,64.0558021 46.1229188,64.0959701 46.0285173,64.128105 C45.9341158,64.1602398 45.8087915,64.1843407 45.6525407,64.2004082 C45.4962899,64.2164756 45.2977242,64.2245093 45.0568376,64.2245093 C44.815951,64.2245093 44.6173852,64.2164756 44.4611345,64.2004082 C44.3048837,64.1843407 44.1795594,64.1602398 44.0851579,64.128105 C43.9907564,64.0959701 43.9240253,64.0558021 43.8849626,64.0075997 C43.8458999,63.9593973 43.8263688,63.903162 43.8263688,63.8388923 L43.8263688,51.1617338 C43.8263688,51.097464 43.8458999,51.039622 43.8849626,50.9882061 C43.9240253,50.9367902 43.9907564,50.8934088 44.0851579,50.8580604 C44.1795594,50.822712 44.3048837,50.7953977 44.4611345,50.7761168 C44.6173852,50.7568358 44.815951,50.7471955 45.0568376,50.7471955 C45.2977242,50.7471955 45.4962899,50.7568358 45.6525407,50.7761168 C45.8087915,50.7953977 45.9341158,50.822712 46.0285173,50.8580604 C46.1229188,50.8934088 46.1896499,50.9367902 46.2287126,50.9882061 C46.2677753,51.039622 46.2873063,51.097464 46.2873063,51.1617338 L46.2873063,63.8388923 Z M56.9140625,63.8388923 C56.9140625,63.903162 56.8977866,63.9593973 56.8652344,64.0075997 C56.8326821,64.0558021 56.7757166,64.0959701 56.6943359,64.128105 C56.6129553,64.1602398 56.5055345,64.1843407 56.3720703,64.2004082 C56.2386061,64.2164756 56.0709646,64.2245093 55.8691406,64.2245093 C55.6542958,64.2245093 55.4801439,64.2164756 55.3466797,64.2004082 C55.2132155,64.1843407 55.1074223,64.1602398 55.0292969,64.128105 C54.9511715,64.0959701 54.8958335,64.0558021 54.8632812,64.0075997 C54.830729,63.9593973 54.8144531,63.903162 54.8144531,63.8388923 L54.8144531,62.8459285 C54.3326799,63.360087 53.8427759,63.7457002 53.3447266,64.0027795 C52.8466772,64.2598587 52.3307318,64.3883965 51.796875,64.3883965 C51.1979137,64.3883965 50.694989,64.2919932 50.2880859,64.0991837 C49.8811829,63.9063742 49.5524101,63.6428719 49.3017578,63.3086689 C49.0511055,62.9744658 48.8720708,62.5872459 48.7646484,62.1469977 C48.657226,61.7067494 48.6035156,61.1588574 48.6035156,60.5033053 L48.6035156,55.2396334 C48.6035156,55.1753636 48.6214191,55.1191284 48.6572266,55.070926 C48.693034,55.0227236 48.7581375,54.9825555 48.8525391,54.9504207 C48.9469406,54.9182858 49.0738924,54.8941849 49.2333984,54.8781175 C49.3929044,54.86205 49.5898426,54.8540164 49.8242187,54.8540164 C50.0651054,54.8540164 50.2636711,54.86205 50.4199219,54.8781175 C50.5761727,54.8941849 50.7014969,54.9182858 50.7958984,54.9504207 C50.8903,54.9825555 50.9570311,55.0227236 50.9960937,55.070926 C51.0351564,55.1191284 51.0546875,55.1753636 51.0546875,55.2396334 L51.0546875,60.0984074 C51.0546875,60.5482962 51.0839841,60.8921346 51.1425781,61.1299329 C51.2011722,61.3677312 51.2906895,61.5717848 51.4111328,61.7420998 C51.5315761,61.9124149 51.6845694,62.044166 51.8701172,62.1373572 C52.055665,62.2305486 52.2721342,62.2771434 52.5195312,62.2771434 C52.8320328,62.2771434 53.1461573,62.1646729 53.4619141,61.9397285 C53.7776708,61.7147842 54.1145815,61.3870131 54.4726562,60.9564053 L54.4726562,55.2396334 C54.4726562,55.1753636 54.4905597,55.1191284 54.5263672,55.070926 C54.5621747,55.0227236 54.6272782,54.9825555 54.7216797,54.9504207 C54.8160812,54.9182858 54.9414055,54.8941849 55.0976562,54.8781175 C55.253907,54.86205 55.4524728,54.8540164 55.6933594,54.8540164 C55.934246,54.8540164 56.1328117,54.86205 56.2890625,54.8781175 C56.4453133,54.8941849 56.56901,54.9182858 56.6601562,54.9504207 C56.7513025,54.9825555 56.8164061,55.0227236 56.8554687,55.070926 C56.8945314,55.1191284 56.9140625,55.1753636 56.9140625,55.2396334 L56.9140625,63.8388923 Z M67.3455062,59.2886118 C67.3455062,59.5842529 67.2787751,59.8027671 67.1453109,59.9441606 C67.0118466,60.0855542 66.8279292,60.15625 66.593553,60.15625 L61.2908187,60.15625 C61.2908187,60.522588 61.3347635,60.8551793 61.4226546,61.154034 C61.5105457,61.4528886 61.6505182,61.7067506 61.8425765,61.9156275 C62.0346347,62.1245045 62.2820281,62.2835699 62.584764,62.3928285 C62.8874999,62.5020872 63.250452,62.5567157 63.6736312,62.5567157 C64.1033208,62.5567157 64.4809212,62.5261881 64.8064437,62.4651317 C65.1319661,62.4040754 65.4135388,62.3365931 65.6511702,62.2626828 C65.8888016,62.1887725 66.0857398,62.1212902 66.2419905,62.0602338 C66.3982413,61.9991776 66.5251932,61.9686498 66.6228499,61.9686498 C66.681444,61.9686498 66.7302716,61.9798969 66.7693343,62.0023913 C66.808397,62.0248858 66.8409487,62.0650538 66.8669905,62.1228966 C66.8930323,62.1807394 66.9109358,62.2626822 66.9207015,62.3687274 C66.9304672,62.4747726 66.9353499,62.6081305 66.9353499,62.7688051 C66.9353499,62.9101987 66.9320947,63.0307027 66.9255843,63.130321 C66.9190738,63.2299393 66.9093083,63.3150954 66.8962874,63.3857923 C66.8832665,63.4564891 66.8637355,63.5159378 66.8376937,63.5641401 C66.8116519,63.6123425 66.7774725,63.6589375 66.7351546,63.7039263 C66.6928367,63.7489151 66.5772779,63.8099706 66.3884749,63.8870944 C66.1996719,63.9642182 65.9587889,64.039734 65.6658187,64.1136444 C65.3728485,64.1875546 65.0375653,64.2518234 64.6599593,64.3064529 C64.2823532,64.3610822 63.8787114,64.3883965 63.4490218,64.3883965 C62.6742783,64.3883965 61.9955742,64.2919932 61.412889,64.0991837 C60.8302038,63.9063742 60.343555,63.613951 59.952928,63.2219051 C59.5623011,62.8298591 59.2709629,62.334989 59.0789046,61.7372796 C58.8868464,61.1395703 58.7908187,60.4390398 58.7908187,59.635667 C58.7908187,58.8708562 58.8917291,58.1815728 59.093553,57.567796 C59.295377,56.9540192 59.5883428,56.4334415 59.9724593,56.0060471 C60.3565758,55.5786529 60.8236935,55.2524884 61.3738265,55.0275441 C61.9239594,54.8025997 62.5440704,54.6901292 63.234178,54.6901292 C63.9633484,54.6901292 64.5867145,54.7961728 65.1042952,55.0082632 C65.6218759,55.2203537 66.0466764,55.5143837 66.3787093,55.890362 C66.7107422,56.2663405 66.9548804,56.7114024 67.1111312,57.2255609 C67.2673819,57.7397194 67.3455062,58.2988585 67.3455062,58.9029948 L67.3455062,59.2886118 Z M64.9626937,58.5945013 C64.982225,57.9132411 64.84388,57.3782029 64.5476546,56.9893705 C64.2514292,56.6005381 63.794077,56.4061248 63.1755843,56.4061248 C62.8630827,56.4061248 62.5912755,56.4639667 62.3601546,56.5796524 C62.1290337,56.6953381 61.9369783,56.8511901 61.7839827,57.047213 C61.6309872,57.243236 61.5138008,57.4746039 61.4324202,57.7413236 C61.3510396,58.0080434 61.3038396,58.292433 61.2908187,58.5945013 L64.9626937,58.5945013 Z"/>
  </g>
</svg>
