<svg xmlns="http://www.w3.org/2000/svg" width="245" height="293" viewBox="0 0 245 293">
  <defs>
    <linearGradient id="brave-browser-a" x1="0%" x2="100%" y1="50.706%" y2="50.706%">
      <stop offset="0%" stop-color="#F50"/>
      <stop offset="40.988%" stop-color="#F50"/>
      <stop offset="58.198%" stop-color="#FF2000"/>
      <stop offset="100%" stop-color="#FF2000"/>
    </linearGradient>
    <linearGradient id="brave-browser-b" x1="2.148%" x2="100%" y1="50.706%" y2="50.706%">
      <stop offset="0%" stop-color="#FF452A"/>
      <stop offset="100%" stop-color="#FF2000"/>
    </linearGradient>
  </defs>
  <g fill="none" transform="translate(-3)">
    <path fill="url(#brave-browser-a)" d="M239.386298,70.1967907 L246.122303,53.3518366 C246.122303,53.3518366 237.549205,43.9935291 227.139016,33.3874471 C216.728826,22.7813651 194.683719,29.0202368 194.683719,29.0202368 L169.576791,0.000124777435 L125.486577,0.000124777435 L81.3963625,0.000124777435 L56.2894351,29.0202368 C56.2894351,29.0202368 34.244328,22.7813651 23.8341385,33.3874471 C13.423949,43.9935291 4.85085175,53.3518366 4.85085175,53.3518366 L11.5868567,70.1967907 L3.01375949,95.1522776 C3.01375949,95.1522776 28.2278508,192.450602 31.1825076,204.332533 C36.9999664,227.728303 40.980333,236.774667 57.5141632,248.628523 C74.047994,260.482379 104.053834,281.070656 108.952747,284.190092 C113.85166,287.309528 119.975301,292.623175 125.486577,292.623175 C130.997854,292.623175 137.121495,287.309528 142.020408,284.190092 C146.91932,281.070656 176.92516,260.482379 193.458991,248.628523 C209.992821,236.774667 213.973188,227.728303 219.790647,204.332533 C222.744691,192.450602 247.959395,95.1522776 247.959395,95.1522776 L239.386298,70.1967907 Z"/>
    <path fill="#FFF" d="M125.486454,182.104307 C127.164945,182.104307 137.919283,185.972407 146.54933,190.521793 C155.178765,195.071802 161.432839,198.289188 163.432208,199.56379 C165.430964,200.839015 164.211747,203.242852 162.391189,204.554263 C160.570018,205.865674 136.099337,225.171239 133.724589,227.304933 C131.349228,229.439251 127.859366,232.96359 125.486454,232.96359 C123.113544,232.96359 119.623069,229.439251 117.248321,227.304933 C114.872961,225.171239 90.4028913,205.865674 88.5817203,204.554263 C86.7605499,203.242852 85.5419452,200.839015 87.5407014,199.56379 C89.5400704,198.289188 95.7941449,195.071802 104.424192,190.521793 C113.053014,185.972407 123.807965,182.104307 125.486454,182.104307 Z M125.617765,44.6019403 C126.441921,44.625241 131.085335,44.8550875 137.733859,47.1129649 C145.082228,49.6085137 153.042961,52.7279496 156.717146,52.7279496 C160.39133,52.7279496 187.641532,47.4249085 187.641532,47.4249085 C187.641532,47.4249085 219.935165,87.1977161 219.935165,95.698179 C219.935165,104.198641 215.872741,106.44214 211.788273,110.861133 C207.703804,115.280125 189.865026,134.579451 187.574172,137.057531 C185.283318,139.536235 180.514227,143.293908 183.319466,150.057468 C186.124706,156.82103 190.263063,165.427553 185.661147,174.156982 C181.058618,182.886412 173.174431,188.712894 168.122427,187.749612 C163.070423,186.785707 151.205869,180.468849 146.842775,177.583371 C142.479681,174.697893 128.651275,163.078618 128.651275,158.632798 C128.651275,154.187602 142.94569,146.205589 145.586204,144.391949 C148.227942,142.578933 160.273144,135.559578 160.519926,132.804493 C160.766097,130.048783 160.672405,129.240849 157.117632,122.432992 C153.562858,115.624511 147.161204,106.539466 148.226718,100.494624 C149.292231,94.4504044 159.61669,91.307261 166.984654,88.4723175 C174.351394,85.6379979 188.536808,80.284422 190.308378,79.452157 C192.081172,78.6192675 191.623123,77.826307 186.254527,77.3078563 C180.887156,76.7894061 165.653987,74.7293309 158.786324,76.6796022 C151.918661,78.6298734 140.185765,81.5970811 139.235376,83.1705244 C138.284987,84.7439676 137.44666,84.7969983 138.422768,90.2248167 C139.398264,95.6526351 144.423324,121.697429 144.910766,126.323552 C145.39882,130.949676 146.352883,134.007971 141.457033,135.148437 C136.560569,136.288903 128.318761,138.26912 125.486577,138.26912 C122.654393,138.26912 114.411973,136.288903 109.516122,135.148437 C104.619659,134.007971 105.573722,130.949676 106.061776,126.323552 C106.54983,121.697429 111.574278,95.6526351 112.550386,90.2248167 C113.525882,84.7969983 112.687555,84.7439676 111.737779,83.1705244 C110.78739,81.5970811 99.0538812,78.6298734 92.1862179,76.6796022 C85.3185546,74.7293309 70.0859979,76.7894061 64.7180142,77.3078563 C59.3500311,77.826307 58.8919823,78.6192675 60.6641644,79.452157 C62.436346,80.284422 76.6217597,85.6379979 83.9885001,88.4723175 C91.3558523,91.307261 101.680923,94.4504044 102.746437,100.494624 C103.81195,106.539466 97.4096836,115.624511 93.8555226,122.432992 C90.3007488,129.240849 90.2064449,130.048783 90.4532274,132.804493 C90.699398,135.559578 102.745212,142.578933 105.386338,144.391949 C108.027465,146.205589 122.321267,154.187602 122.321267,158.632798 C122.321267,163.078618 108.493474,174.697893 104.13038,177.583371 C99.7672855,180.468849 87.902731,186.785707 82.8507277,187.749612 C77.7987238,188.712894 69.9145362,182.886412 65.3120075,174.156982 C60.7100913,165.427553 64.8484483,156.82103 67.6530753,150.057468 C70.4583153,143.293908 65.6898364,139.536235 63.3983699,137.057531 C61.1081281,134.579451 43.2687376,115.280125 39.1842691,110.861133 C35.0998006,106.44214 31.0379896,104.198641 31.0379896,95.698179 C31.0379896,87.1977161 63.3316221,47.4249085 63.3316221,47.4249085 C63.3316221,47.4249085 90.5818243,52.7279496 94.2560085,52.7279496 C97.9301933,52.7279496 105.890926,49.6085137 113.239295,47.1129649 C119.88782,44.8550875 124.531234,44.625241 125.355389,44.6019403 L125.617765,44.6019403 Z"/>
    <path fill="url(#brave-browser-b)" d="M171.591651,29.0202368 L146.484723,0.000124777435 L102.394509,0.000124777435 L58.3042941,0.000124777435 L33.1973667,29.0202368 C33.1973667,29.0202368 11.1522596,22.7813651 0.742070111,33.3874471 C0.742070111,33.3874471 30.1355465,30.6841439 40.2395538,47.4249085 C40.2395538,47.4249085 67.4897559,52.7279496 71.1639401,52.7279496 C74.8381249,52.7279496 82.798858,49.6085137 90.1472271,47.1129649 C97.4955962,44.6174162 102.394509,44.5993235 102.394509,44.5993235 C102.394509,44.5993235 107.293421,44.6174162 114.64179,47.1129649 C121.99016,49.6085137 129.950893,52.7279496 133.625077,52.7279496 C137.299262,52.7279496 164.549464,47.4249085 164.549464,47.4249085 C174.653471,30.6841439 204.046947,33.3874471 204.046947,33.3874471 C193.636758,22.7813651 171.591651,29.0202368 171.591651,29.0202368" transform="translate(23.092)"/>
  </g>
</svg>
