<svg xmlns="http://www.w3.org/2000/svg" width="256" height="256" viewBox="0 0 256 256">
  <g fill="none" fill-rule="evenodd">
    <rect width="256" height="256" fill="#1F4079" rx="50"/>
    <path fill="#26ABE2" fill-rule="nonzero" d="M99.0782439 189.889561C96.9053659 188.915512 95.6066341 186.867512 95.6066341 184.494829 95.6066341 181.148098 98.1291707 178.625561 101.450927 178.625561 106.72078 178.625561 109.318244 184.94439 105.596878 188.665756 103.948488 190.314146 101.15122 190.838634 99.0782439 189.889561zM122.555317 190.114341C118.284488 189.240195 114.238439 186.218146 112.315317 182.371902 111.141463 180.049171 110.641951 177.926244 110.641951 175.253854 110.641951 170.958049 112.065561 167.461463 115.062634 164.489366 118.309463 161.267512 121.930927 159.96878 127.150829 160.193561 130.547512 160.343415 132.770341 161.067707 135.018146 162.766049 136.241951 163.665171 138.414829 166.012878 138.414829 166.412488 138.414829 166.51239 137.390829 167.361561 136.142049 168.285659 134.044098 169.834146 133.74439 169.984 132.420683 170.083902 131.246829 170.158829 130.722341 170.058927 129.223805 169.409561 126.276683 168.110829 124.028878 168.485463 122.130732 170.583415 118.933854 174.129951 120.60722 180.573659 124.977951 181.622634 127.175805 182.147122 128.999024 181.597659 130.822244 179.82439L131.87122 178.825366 135.242927 181.272976C139.164098 184.09522 139.089171 183.745561 136.441756 186.368 134.54361 188.216195 132.245854 189.464976 129.698341 190.014439 127.925073 190.389073 124.178732 190.439024 122.555317 190.114341zM151.901659 189.83961C144.883512 188.041366 140.312976 182.272 140.312976 175.253854 140.312976 169.459512 143.509854 164.339512 148.779707 161.767024 151.302244 160.518244 153.325268 160.068683 156.397268 160.068683 161.16761 160.068683 164.764098 161.492293 167.911024 164.63922 172.731317 169.434537 173.705366 176.028098 170.508488 182.371902 169.534439 184.32 166.212683 187.516878 164.089756 188.565854 160.418341 190.364098 155.772878 190.86361 151.901659 189.83961zM159.144585 181.02322C162.516293 179.349854 163.490341 174.30478 161.067707 171.082927 159.51922 169.009951 156.297366 168.035902 154.049561 168.984976 152.625951 169.58439 151.227317 171.057951 150.652878 172.531512 148.504976 178.325854 153.82478 183.670634 159.144585 181.02322zM176.877246 176.75239C176.877246 162.216585 176.852293 162.491317 178.475707 161.317463 179.175024 160.817951 179.574634 160.768 183.196098 160.693073L187.117268 160.618146 187.117268 162.541268 187.117268 164.489366 188.391024 163.21561C192.836683 158.744976 199.979707 158.969756 203.426341 163.690146L204.150634 164.63922 205.624195 163.290537C206.423415 162.541268 207.797073 161.592195 208.646244 161.16761 211.56839 159.744 215.639415 159.619122 218.51161 160.892878 221.009171 161.991805 223.00722 164.789073 223.606634 167.985951 223.756488 168.835122 223.831415 172.906146 223.781463 178.300878 223.706537 187.217171 223.706537 187.242146 223.132098 188.066341 222.083122 189.514927 221.383805 189.714732 217.337756 189.739707L213.716293 189.739707 213.591415 180.873366C213.466537 172.781268 213.416585 171.932098 212.992 171.032976 212.342634 169.709268 211.293659 169.134829 209.595317 169.134829 207.872 169.134829 206.823024 169.734244 206.04878 171.182829 205.499317 172.206829 205.474341 172.531512 205.349463 179.749463 205.274537 184.769561 205.124683 187.416976 204.924878 187.741659 203.975805 189.415024 202.577171 189.83961 198.306341 189.864585L195.409171 189.864585 195.309268 181.073171C195.234341 172.43161 195.234341 172.231805 194.659902 171.182829 193.810732 169.609366 192.836683 169.084878 190.938537 169.18478 189.564878 169.259707 189.265171 169.384585 188.515902 170.108878 187.217171 171.357659 187.117268 172.081951 187.117268 179.674537 187.117268 186.268098 187.092293 186.542829 186.567805 187.61678 185.643707 189.44 184.894439 189.689756 180.573659 189.814634L176.877246 189.914537 176.877246 176.75239z"/>
    <path fill="#FFF" fill-rule="nonzero" d="M188.565854 149.379122C185.818537 148.979512 182.696585 148.130341 180.099122 147.05639 169.234732 142.635707 161.767024 133.544585 159.219512 121.681171 158.570146 118.609171 158.570146 109.96761 159.244488 106.945561 161.017756 98.7785366 165.313561 91.5605854 171.23278 86.8152195 176.028098 82.9689756 180.998244 80.6712195 187.242146 79.422439 190.763707 78.6981463 197.956683 78.6481951 201.478244 79.297561 206.748098 80.2466341 211.068878 81.9699512 215.04 84.6922927 217.262829 86.2158049 221.184 89.9621463 222.582634 91.8852683L223.356878 92.9342439 221.80839 94.1330732C220.95922 94.782439 218.786341 96.4807805 216.988098 97.8794146 213.016976 101.001366 212.117854 101.450927 210.044878 101.450927 208.221659 101.450927 206.922927 100.926439 203.626146 98.8284878 202.452293 98.0792195 200.579122 97.1800976 199.480195 96.8054634 197.756878 96.2060488 197.057561 96.1061463 194.485073 96.1061463 192.037463 96.0811707 191.163317 96.1810732 189.739707 96.6306341 183.870439 98.5038049 179.524683 103.723707 178.375805 110.342244 177.976195 112.565073 178.176 117.76 178.725463 119.808 178.950244 120.632195 179.649561 122.380488 180.298927 123.67922 183.470829 129.998049 189.964488 133.294829 197.107512 132.170927 201.178537 131.521561 204.075707 129.898146 207.572293 126.326634 208.796098 125.052878 209.770146 124.253659 209.944976 124.353561 210.394537 124.628293 223.431805 133.944195 223.656585 134.168976 223.931317 134.393756 221.184 137.84039 219.036098 139.963317 213.741268 145.18322 207.622244 148.180293 199.979707 149.27922 197.307317 149.678829 190.913561 149.72878 188.565854 149.379122zM37.0388293 148.130341C35.3404878 147.630829 33.5422439 146.132293 32.6930732 144.533854L32.1436098 143.534829 32.0686829 111.890732 32.0187317 80.2216585 51.4247805 80.2216585C62.9635122 80.2216585 71.555122 80.321561 72.6040976 80.4714146 83.6183415 82.044878 89.9621463 88.2388293 89.9621463 97.4548293 89.9621463 103.898537 87.0150244 108.693854 81.1707317 111.815805L79.5972683 112.664976 80.4214634 112.964683C80.896 113.114537 82.2446829 113.738927 83.4185366 114.313366 90.3118049 117.685073 93.2589268 122.65522 92.8842927 130.397659 92.4597073 139.913366 85.9410732 145.932488 73.9278049 147.930537 71.555122 148.330146 38.3125854 148.504976 37.0388293 148.130341zM69.4821463 132.470634C72.704 131.421659 74.1276098 129.42361 73.9278049 126.326634 73.852878 125.002927 73.6780488 124.478439 73.0786341 123.629268 72.2044878 122.380488 70.2813659 121.306537 68.2583415 120.931902 67.5340488 120.782049 63.2132683 120.682146 58.7176585 120.682146L50.5006829 120.682146 50.5006829 126.951024 50.5006829 133.219902 59.1921951 133.12C67.2343415 133.020098 67.9836098 132.970146 69.4821463 132.470634zM66.3601951 106.820683C69.6819512 105.946537 71.230439 104.22322 71.230439 101.351024 71.230439 98.4538537 69.6819512 96.6306341 66.6099512 95.8314146 65.4610732 95.5317073 63.5629268 95.4567805 57.8185366 95.4567805L50.5006829 95.4567805 50.5006829 101.326049 50.5006829 107.195317 57.6936585 107.195317C63.3381463 107.195317 65.2113171 107.12039 66.3601951 106.820683zM116.186537 122.580293L116.186537 96.705561 105.921561 96.705561 95.6565854 96.705561 95.7564878 91.1609756C95.8314146 85.9910244 95.8813659 85.5164878 96.4058537 84.3426341 97.155122 82.7192195 98.2790244 81.5453659 99.8275122 80.8210732L101.076293 80.2216585 128.374634 80.2216585 155.672976 80.2216585 155.598049 85.7912195C155.523122 91.011122 155.498146 91.4107317 154.923707 92.6595122 154.574049 93.4087805 153.849756 94.3828293 153.225366 94.9572683 151.32722 96.6056585 150.777756 96.705561 142.485854 96.705561L135.168 96.705561 135.118049 120.007805 135.043122 143.285073 134.493659 144.309073C133.644488 145.882537 132.845268 146.731707 131.371707 147.530927L130.048 148.280195 123.129756 148.355122 116.186537 148.430049 116.186537 122.580293z"/>
  </g>
</svg>
