<svg xmlns="http://www.w3.org/2000/svg" width="256" height="256" viewBox="0 0 256 256">
  <defs>
    <radialGradient id="cex-io-a" cx="50%" cy="50%" r="50.538%" fx="50%" fy="50%">
      <stop offset="0%" stop-color="#265A7A"/>
      <stop offset="100%" stop-color="#162B43"/>
    </radialGradient>
  </defs>
  <g fill="none" fill-rule="evenodd">
    <circle cx="127.855" cy="127.855" r="127.855" fill="url(#cex-io-a)"/>
    <path fill="#36BBC8" fill-rule="nonzero" d="M71.3513405,0 L147.816881,0 C147.816881,6.18653241 147.816881,12.3730648 147.816881,18.5595972 C125.627851,18.5595972 103.438822,18.5595972 81.2910359,18.5595972 C78.7339358,18.5595972 76.1768357,18.5183537 73.6197357,18.6008408 C64.2986935,18.6420843 54.9776514,21.0342102 46.8526721,25.6122442 C36.9954638,31.0976362 28.9117281,39.7175381 24.0037458,49.9046948 C19.5494424,59.1020063 17.8172133,69.4953807 18.8483021,79.6412939 C19.7556602,89.0860667 23.1788748,98.2833782 28.7055104,106.037166 C33.3247879,112.512403 39.3463461,118.039038 46.2752624,121.998419 C54.8539207,126.947645 64.7936161,129.504745 74.7333115,129.339771 C99.0670057,129.339771 123.441943,129.339771 147.816881,129.339771 C147.816881,135.48506 147.816881,141.630349 147.816881,147.816881 L68.5880227,147.816881 C58.1121611,147.033254 47.7600302,144.063718 38.5214751,139.032005 C26.0246797,132.185576 15.5488181,121.627227 8.78487602,109.089188 C3.4232146,99.2319799 0.494922593,88.1787086 0,77.0429503 L0,70.8564179 C0.494922593,59.4731982 3.54694525,48.2137093 9.07358087,38.2327703 C15.9612536,25.6947313 26.6020894,15.1776262 39.3051026,8.49617118 C49.1623109,3.2582404 60.2155821,0.412435494 71.3513405,0 Z M68.1755872,32.7886218 C69.9078162,32.5411605 71.6400453,32.4999169 73.3722744,32.3349427 C81.373523,32.3349427 89.4160151,32.3349427 97.4172637,32.3349427 C99.0670057,33.9021976 100.675504,35.510696 102.201515,37.160438 C106.820793,41.6972284 111.357583,46.316506 115.894374,50.9357835 C104.181206,50.9357835 92.4267942,50.9357835 80.7136262,50.9357835 C77.8265777,50.9357835 74.8982857,50.8532964 72.0112373,51.0595142 C66.5670887,51.5131932 61.329158,53.9465626 57.5347514,57.8646998 C53.5341271,61.8653241 51.1007577,67.4332033 50.89454,73.1248131 C50.7295658,77.8678213 52.0493593,82.652073 54.6889465,86.6114537 C57.6584821,91.1070006 62.236516,94.5302152 67.3919597,96.0562266 C70.0315469,96.8810975 72.7948647,97.0460717 75.5581825,97.0048282 C88.879849,97.0048282 102.201515,97.0048282 115.523182,97.0048282 C109.377893,103.232604 103.06763,109.295406 96.9635846,115.564425 C88.9210925,115.564425 80.8786004,115.564425 72.8361082,115.564425 C65.536,115.399451 58.2771353,113.254787 52.0493593,109.377893 C44.3368156,104.634885 38.2327703,97.2522895 35.0157734,88.7561183 C32.0049943,80.8373568 31.5100717,72.0112373 33.5722492,63.8037709 C35.7581573,55.101382 40.8311139,47.1826205 47.8425173,41.5734978 C53.6578578,36.8717332 60.7517483,33.778467 68.1755872,32.7886218 Z M115.646913,32.3349427 C126.370235,32.3349427 137.093558,32.3349427 147.816881,32.3349427 C147.816881,38.5214751 147.816881,44.7492511 147.816881,50.9357835 C143.280091,50.9357835 138.7433,50.9770271 134.20651,50.9357835 C132.144332,49.1210673 130.329616,47.0176463 128.349926,45.0791995 C124.10184,40.8723575 119.894998,36.5830283 115.646913,32.3349427 Z M65.7834613,69.3304065 C67.3919597,66.4433581 70.6089566,64.5873984 73.9084405,64.6286419 C92.4267942,64.6286419 110.945148,64.6286419 129.504745,64.6286419 C132.515524,67.7631517 135.60879,70.8151743 138.702057,73.9084405 C135.567547,77.0429503 132.474281,80.1362165 129.339771,83.2707262 C111.398827,83.2294827 93.4991265,83.2707262 75.5581825,83.2294827 C74.5270938,83.2294827 73.5372486,83.3119698 72.5061598,83.1469956 C69.8253291,82.7758037 67.3507162,81.1673052 65.9484355,78.8164229 C64.1749629,76.0118615 64.1337193,72.217455 65.7834613,69.3304065 Z M115.275721,115.564425 C121.421009,109.336649 127.690029,103.232604 133.876561,97.0048282 C138.495839,97.0048282 143.15636,97.0048282 147.816881,97.0048282 C147.816881,103.191361 147.816881,109.377893 147.816881,115.564425 C136.969828,115.564425 126.122774,115.564425 115.275721,115.564425 Z" transform="translate(41.986 53.947)"/>
  </g>
</svg>
