<svg xmlns="http://www.w3.org/2000/svg" width="256" height="256" viewBox="0 0 256 256">
  <g fill="#10D078" transform="translate(0 10)">
    <path d="M247.502113,0.3862784 C246.536533,0.3862784 225.098174,1.35197538 198.444636,7.72555487 C162.327631,16.2237046 135.288123,30.3228718 118.678318,49.4436431 C115.008328,53.6927179 111.531979,57.7486113 108.4416,61.6113887 C101.874872,63.3496287 83.7198769,68.3710359 75.4149744,69.9162256 C70.5864205,70.8818051 66.5304615,73.5862154 63.6335262,77.6421744 C57.6462113,86.3330462 47.2167056,104.102072 46.8304082,104.874667 L34.8557785,125.347446 L56.6805005,115.883323 C66.1444923,111.634379 79.4709333,108.737641 83.3339077,111.054769 C83.5268923,111.24841 83.7198769,111.24841 83.9128615,112.406974 C83.9128615,118.587733 85.4580513,124.574851 88.3554462,130.561969 C82.3683282,135.197538 79.0849641,142.536862 79.4709333,150.069169 L79.4709333,176.722708 L106.123815,176.722708 C113.656779,177.108677 120.802462,173.632328 125.631015,167.838195 C131.61879,170.734933 137.605908,172.087138 143.78601,172.280123 C144.752246,172.473108 144.945231,172.666749 144.945231,172.859733 C147.263015,176.722708 144.365621,190.049149 140.116677,199.512615 L130.652554,221.144615 L151.125333,209.169723 C151.897928,208.783754 169.666954,198.354051 178.358482,192.366933 C182.414441,189.662523 185.118195,185.413579 186.083774,180.585026 C187.821949,172.280123 192.650503,154.125128 194.388677,147.5584 C198.251651,144.468021 202.30761,140.991672 206.556554,137.321682 C251.365087,97.7283282 255.421046,11.9746297 255.614031,8.30496821 L256,0 L247.502113,0.3862784 Z M87.003241,95.9901538 C81.9817026,94.4449641 76.1875692,94.6379487 70.5864205,95.6041846 C72.7112205,92.1271795 74.8353641,88.8438154 76.5735385,86.3330462 C76.9601641,85.5604513 77.732759,85.1744821 78.6983385,84.9814974 C82.5613128,84.2089026 88.5484308,82.6637128 94.5355487,81.3115077 C91.0592,86.5266872 88.7414154,91.3545846 87.003241,95.9901538 Z M113.270154,157.988103 C111.724964,160.112246 109.02121,161.271467 106.510441,161.077826 L103.999672,161.077826 L120.029867,135.970133 L94.9221744,152.193969 L94.9221744,149.489559 C94.7291897,146.785805 95.8877538,144.275036 98.0125538,142.729846 L128.721395,118.394092 C130.266585,117.042544 132.391385,116.076964 134.322544,115.690338 L142.434462,113.759179 L140.502646,121.871097 C139.923692,123.995241 139.151097,125.927056 137.798892,127.47159 L113.270154,157.988103 Z M170.825518,177.494646 C170.632533,178.267241 170.246564,179.039836 169.473969,179.619446 C166.9632,181.357621 163.679836,183.482421 160.202831,185.606564 C161.169067,180.006072 161.362051,174.211282 159.816862,169.189744 C164.452431,167.451569 169.280985,165.133785 174.495508,161.850421 C173.143303,167.644554 171.598113,173.438687 170.825518,177.494646 Z M196.319836,125.733415 C169.666954,149.296574 154.988308,156.249928 144.365621,156.635897 C144.172636,156.635897 144.172636,156.635897 143.979651,156.635897 C140.696287,156.635897 137.991877,156.056287 135.288123,155.090708 L149.580144,136.935713 C152.284554,133.459364 154.215713,129.59639 155.374933,125.347446 L163.100226,92.8997744 L130.652554,100.625723 C126.40361,101.591303 122.347651,103.522462 119.064287,106.226872 L100.909292,120.518892 C99.9437128,117.815138 99.3641026,115.110728 99.3641026,111.827364 C99.3641026,111.634379 99.3641026,111.634379 99.3641026,111.441395 C99.5570872,101.011692 106.703426,86.1400615 130.266585,59.4868513 C158.658297,27.2326236 217.372226,18.5413579 239.390195,16.4168205 C237.265395,38.62784 228.574523,97.342359 196.319836,125.733415 Z"/>
    <path d="M76.2899692 214.881805C66.4398769 216.812964 56.3966687 217.392574 46.3533949 217.585559 40.5592615 217.585559 34.7650626 217.392574 28.7777477 216.812964 31.095401 212.94999 33.2199385 209.087672 35.15136 205.031713 38.8209559 196.726154 41.5249067 188.421251 43.6494441 179.923364 45.5808656 171.811446 47.898519 163.892513 50.7955856 155.974236 53.4995364 148.055303 56.5897846 140.136369 60.0662646 132.218092 56.9760821 135.308472 54.2721313 138.591836 51.7612964 142.068185 49.2505272 145.544533 46.7396923 149.214523 44.422039 152.883856 39.9797826 160.223179 36.1170051 168.335097 32.833641 176.253374 29.7434585 183.979323 26.4600944 191.704615 22.5973169 198.657969 18.7344738 205.610667 14.2922831 211.98441 8.88438154 218.165169L0 228.594215 13.7128697 230.526031C24.5286728 232.071221 35.5375918 232.843815 46.5465764 232.45719 52.1475938 232.264205 57.5554954 231.877579 63.1565128 230.912 68.5646769 230.139405 74.1651692 228.787856 79.3803487 227.242667 90.0030359 224.152287 100.239097 219.130749 109.316595 212.757005 113.759179 209.473641 118.008123 205.804308 121.484472 201.554708 124.960821 197.305764 128.244185 192.863836 130.368985 187.842297 123.029662 195.56759 114.145149 201.168738 105.067651 205.610667 95.7971692 210.053251 86.1400615 212.94999 76.2899692 214.881805zM190.72 92.3234462C197.673354 92.3234462 204.626051 89.6196923 210.034215 84.4045128 220.656903 73.7818256 220.656903 56.5926728 210.034215 45.9699856 204.819036 40.7552 198.059323 38.0513149 190.72 38.0513149 183.380677 38.0513149 176.620964 40.9483815 171.405785 45.9699856 160.783754 56.5926728 160.783754 73.7818256 171.405785 84.4045128 176.620964 89.6196923 183.573662 92.3234462 190.72 92.3234462zM182.222113 56.7857887C184.539241 54.4681354 187.436636 53.3093087 190.527015 53.3093087 193.617395 53.3093087 196.707118 54.4681354 198.831918 56.7857887 203.467487 61.4210954 203.467487 68.7602872 198.831918 73.3958564 194.196349 78.0307692 186.857026 78.0307692 182.222113 73.3958564 177.779528 68.9532718 177.779528 61.4210954 182.222113 56.7857887z"/>
  </g>
</svg>
