<svg xmlns="http://www.w3.org/2000/svg" width="256" height="256" viewBox="0 0 256 256">
  <defs>
    <linearGradient id="coinsmart-a" x1="859.697%" x2="-698.143%" y1="-1242.16%" y2="1243.948%">
      <stop offset="0%" stop-color="#00D57C"/>
      <stop offset="100%" stop-color="#4A65D1"/>
    </linearGradient>
    <linearGradient id="coinsmart-b" x1="988.652%" x2="-569.188%" y1="-1448.005%" y2="1038.171%">
      <stop offset="0%" stop-color="#00D57C"/>
      <stop offset="100%" stop-color="#4A65D1"/>
    </linearGradient>
    <linearGradient id="coinsmart-c" x1="1114.649%" x2="-443.122%" y1="-1649.037%" y2="837.07%">
      <stop offset="0%" stop-color="#00D57C"/>
      <stop offset="100%" stop-color="#4A65D1"/>
    </linearGradient>
    <linearGradient id="coinsmart-d" x1="1233.081%" x2="-324.759%" y1="-1838.102%" y2="648.006%">
      <stop offset="0%" stop-color="#00D57C"/>
      <stop offset="100%" stop-color="#4A65D1"/>
    </linearGradient>
    <linearGradient id="coinsmart-e" x1="1339.409%" x2="-218.363%" y1="-2007.772%" y2="478.336%">
      <stop offset="0%" stop-color="#00D57C"/>
      <stop offset="100%" stop-color="#4A65D1"/>
    </linearGradient>
    <linearGradient id="coinsmart-f" x1="1428.955%" x2="-128.886%" y1="-2150.688%" y2="335.42%">
      <stop offset="0%" stop-color="#00D57C"/>
      <stop offset="100%" stop-color="#4A65D1"/>
    </linearGradient>
    <linearGradient id="coinsmart-g" x1="1495.186%" x2="-62.586%" y1="-2256.396%" y2="229.711%">
      <stop offset="0%" stop-color="#00D57C"/>
      <stop offset="100%" stop-color="#4A65D1"/>
    </linearGradient>
    <linearGradient id="coinsmart-h" x1="1532.393%" x2="-25.378%" y1="-2315.75%" y2="170.358%">
      <stop offset="0%" stop-color="#00D57C"/>
      <stop offset="100%" stop-color="#4A65D1"/>
    </linearGradient>
    <linearGradient id="coinsmart-i" x1="1541.334%" x2="-16.437%" y1="-2330.055%" y2="156.121%">
      <stop offset="0%" stop-color="#00D57C"/>
      <stop offset="100%" stop-color="#4A65D1"/>
    </linearGradient>
    <linearGradient id="coinsmart-j" x1="1523.04%" x2="-34.801%" y1="-2300.894%" y2="185.213%">
      <stop offset="0%" stop-color="#00D57C"/>
      <stop offset="100%" stop-color="#4A65D1"/>
    </linearGradient>
    <linearGradient id="coinsmart-k" x1="1478.679%" x2="-79.161%" y1="-2229.986%" y2="256.121%">
      <stop offset="0%" stop-color="#00D57C"/>
      <stop offset="100%" stop-color="#4A65D1"/>
    </linearGradient>
    <linearGradient id="coinsmart-l" x1="1409.147%" x2="-148.693%" y1="-2119.051%" y2="367.056%">
      <stop offset="0%" stop-color="#00D57C"/>
      <stop offset="100%" stop-color="#4A65D1"/>
    </linearGradient>
    <linearGradient id="coinsmart-m" x1="1315.475%" x2="-242.366%" y1="-1969.601%" y2="516.506%">
      <stop offset="0%" stop-color="#00D57C"/>
      <stop offset="100%" stop-color="#4A65D1"/>
    </linearGradient>
    <linearGradient id="coinsmart-n" x1="1200.413%" x2="-357.428%" y1="-1785.901%" y2="700.206%">
      <stop offset="0%" stop-color="#00D57C"/>
      <stop offset="100%" stop-color="#4A65D1"/>
    </linearGradient>
    <linearGradient id="coinsmart-o" x1="1075.86%" x2="-481.981%" y1="-1587.139%" y2="898.968%">
      <stop offset="0%" stop-color="#00D57C"/>
      <stop offset="100%" stop-color="#4A65D1"/>
    </linearGradient>
    <linearGradient id="coinsmart-p" x1="947.799%" x2="-610.041%" y1="-1382.737%" y2="1103.439%">
      <stop offset="0%" stop-color="#00D57C"/>
      <stop offset="100%" stop-color="#4A65D1"/>
    </linearGradient>
    <linearGradient id="coinsmart-q" x1="820.633%" x2="-737.208%" y1="-1179.917%" y2="1306.259%">
      <stop offset="0%" stop-color="#00D57C"/>
      <stop offset="100%" stop-color="#4A65D1"/>
    </linearGradient>
    <linearGradient id="coinsmart-r" x1="699.175%" x2="-858.666%" y1="-985.901%" y2="1500.206%">
      <stop offset="0%" stop-color="#00D57C"/>
      <stop offset="100%" stop-color="#4A65D1"/>
    </linearGradient>
    <linearGradient id="coinsmart-s" x1="587.62%" x2="-970.22%" y1="-807.978%" y2="1678.129%">
      <stop offset="0%" stop-color="#00D57C"/>
      <stop offset="100%" stop-color="#4A65D1"/>
    </linearGradient>
    <linearGradient id="coinsmart-t" x1="490.646%" x2="-1067.194%" y1="-653.232%" y2="1832.875%">
      <stop offset="0%" stop-color="#00D57C"/>
      <stop offset="100%" stop-color="#4A65D1"/>
    </linearGradient>
    <linearGradient id="coinsmart-u" x1="412.999%" x2="-1144.842%" y1="-529.298%" y2="1956.878%">
      <stop offset="0%" stop-color="#00D57C"/>
      <stop offset="100%" stop-color="#4A65D1"/>
    </linearGradient>
    <linearGradient id="coinsmart-v" x1="362.586%" x2="-1195.254%" y1="-448.831%" y2="2037.276%">
      <stop offset="0%" stop-color="#00D57C"/>
      <stop offset="100%" stop-color="#4A65D1"/>
    </linearGradient>
    <linearGradient id="coinsmart-w" x1="341.197%" x2="-1216.644%" y1="-414.787%" y2="2071.32%">
      <stop offset="0%" stop-color="#00D57C"/>
      <stop offset="100%" stop-color="#4A65D1"/>
    </linearGradient>
    <linearGradient id="coinsmart-x" x1="347.868%" x2="-1209.972%" y1="-425.378%" y2="2060.798%">
      <stop offset="0%" stop-color="#00D57C"/>
      <stop offset="100%" stop-color="#4A65D1"/>
    </linearGradient>
    <linearGradient id="coinsmart-y" x1="381.431%" x2="-1176.41%" y1="-478.886%" y2="2007.221%">
      <stop offset="0%" stop-color="#00D57C"/>
      <stop offset="100%" stop-color="#4A65D1"/>
    </linearGradient>
    <linearGradient id="coinsmart-z" x1="440.853%" x2="-1116.988%" y1="-573.728%" y2="1912.38%">
      <stop offset="0%" stop-color="#00D57C"/>
      <stop offset="100%" stop-color="#4A65D1"/>
    </linearGradient>
    <linearGradient id="coinsmart-A" x1="517.294%" x2="-701.642%" y1="-641.205%" y2="1161.817%">
      <stop offset="0%" stop-color="#00D57C"/>
      <stop offset="100%" stop-color="#4A65D1"/>
    </linearGradient>
    <linearGradient id="coinsmart-B" x1="894.009%" x2="-324.975%" y1="-1198.374%" y2="604.593%">
      <stop offset="0%" stop-color="#00D57C"/>
      <stop offset="100%" stop-color="#4A65D1"/>
    </linearGradient>
    <linearGradient id="coinsmart-C" x1="894.062%" x2="-324.922%" y1="-1198.363%" y2="604.606%">
      <stop offset="0%" stop-color="#00D57C"/>
      <stop offset="100%" stop-color="#4A65D1"/>
    </linearGradient>
    <linearGradient id="coinsmart-D" x1="955.261%" x2="-263.726%" y1="-1288.909%" y2="514.11%">
      <stop offset="0%" stop-color="#00D57C"/>
      <stop offset="100%" stop-color="#4A65D1"/>
    </linearGradient>
    <linearGradient id="coinsmart-E" x1="979.81%" x2="-239.175%" y1="-1325.182%" y2="477.787%">
      <stop offset="0%" stop-color="#00D57C"/>
      <stop offset="100%" stop-color="#4A65D1"/>
    </linearGradient>
    <linearGradient id="coinsmart-F" x1="965.732%" x2="-253.253%" y1="-1304.663%" y2="498.306%">
      <stop offset="0%" stop-color="#00D57C"/>
      <stop offset="100%" stop-color="#4A65D1"/>
    </linearGradient>
    <linearGradient id="coinsmart-G" x1="916.295%" x2="-302.689%" y1="-1231.27%" y2="571.699%">
      <stop offset="0%" stop-color="#00D57C"/>
      <stop offset="100%" stop-color="#4A65D1"/>
    </linearGradient>
    <linearGradient id="coinsmart-H" x1="835.204%" x2="-383.73%" y1="-1111.388%" y2="691.583%">
      <stop offset="0%" stop-color="#00D57C"/>
      <stop offset="100%" stop-color="#4A65D1"/>
    </linearGradient>
    <linearGradient id="coinsmart-I" x1="742.104%" x2="-476.88%" y1="-973.597%" y2="829.372%">
      <stop offset="0%" stop-color="#00D57C"/>
      <stop offset="100%" stop-color="#4A65D1"/>
    </linearGradient>
    <linearGradient id="coinsmart-J" x1="651.394%" x2="-567.591%" y1="-839.5%" y2="963.469%">
      <stop offset="0%" stop-color="#00D57C"/>
      <stop offset="100%" stop-color="#4A65D1"/>
    </linearGradient>
    <linearGradient id="coinsmart-K" x1="575.158%" x2="-643.827%" y1="-726.737%" y2="1076.232%">
      <stop offset="0%" stop-color="#00D57C"/>
      <stop offset="100%" stop-color="#4A65D1"/>
    </linearGradient>
    <linearGradient id="coinsmart-L" x1="526.723%" x2="-692.213%" y1="-655.181%" y2="1147.841%">
      <stop offset="0%" stop-color="#00D57C"/>
      <stop offset="100%" stop-color="#4A65D1"/>
    </linearGradient>
    <linearGradient id="coinsmart-M" x1="420.933%" x2="-807.375%" y1="-541.974%" y2="1418.33%">
      <stop offset="0%" stop-color="#00D57C"/>
      <stop offset="100%" stop-color="#4A65D1"/>
    </linearGradient>
    <linearGradient id="coinsmart-N" x1="392.57%" x2="-835.792%" y1="-496.746%" y2="1463.612%">
      <stop offset="0%" stop-color="#00D57C"/>
      <stop offset="100%" stop-color="#4A65D1"/>
    </linearGradient>
    <linearGradient id="coinsmart-O" x1="395.065%" x2="-833.297%" y1="-500.597%" y2="1459.707%">
      <stop offset="0%" stop-color="#00D57C"/>
      <stop offset="100%" stop-color="#4A65D1"/>
    </linearGradient>
    <linearGradient id="coinsmart-P" x1="430.098%" x2="-798.21%" y1="-556.616%" y2="1403.688%">
      <stop offset="0%" stop-color="#00D57C"/>
      <stop offset="100%" stop-color="#4A65D1"/>
    </linearGradient>
    <linearGradient id="coinsmart-Q" x1="496.198%" x2="-732.146%" y1="-662.082%" y2="1298.193%">
      <stop offset="0%" stop-color="#00D57C"/>
      <stop offset="100%" stop-color="#4A65D1"/>
    </linearGradient>
    <linearGradient id="coinsmart-R" x1="582.592%" x2="-645.716%" y1="-800.382%" y2="1159.926%">
      <stop offset="0%" stop-color="#00D57C"/>
      <stop offset="100%" stop-color="#4A65D1"/>
    </linearGradient>
    <linearGradient id="coinsmart-S" x1="682.755%" x2="-545.607%" y1="-959.816%" y2="1000.488%">
      <stop offset="0%" stop-color="#00D57C"/>
      <stop offset="100%" stop-color="#4A65D1"/>
    </linearGradient>
    <linearGradient id="coinsmart-T" x1="788.764%" x2="-439.58%" y1="-1128.995%" y2="831.334%">
      <stop offset="0%" stop-color="#00D57C"/>
      <stop offset="100%" stop-color="#4A65D1"/>
    </linearGradient>
    <linearGradient id="coinsmart-U" x1="893.764%" x2="-334.599%" y1="-1296.584%" y2="663.72%">
      <stop offset="0%" stop-color="#00D57C"/>
      <stop offset="100%" stop-color="#4A65D1"/>
    </linearGradient>
    <linearGradient id="coinsmart-V" x1="989.1%" x2="-239.262%" y1="-1448.698%" y2="511.605%">
      <stop offset="0%" stop-color="#00D57C"/>
      <stop offset="100%" stop-color="#4A65D1"/>
    </linearGradient>
    <linearGradient id="coinsmart-W" x1="1059.816%" x2="-168.547%" y1="-1561.551%" y2="398.753%">
      <stop offset="0%" stop-color="#00D57C"/>
      <stop offset="100%" stop-color="#4A65D1"/>
    </linearGradient>
    <linearGradient id="coinsmart-X" x1="1102.278%" x2="-126.085%" y1="-1629.338%" y2="330.965%">
      <stop offset="0%" stop-color="#00D57C"/>
      <stop offset="100%" stop-color="#4A65D1"/>
    </linearGradient>
    <linearGradient id="coinsmart-Y" x1="1114.913%" x2="-113.449%" y1="-1649.512%" y2="310.792%">
      <stop offset="0%" stop-color="#00D57C"/>
      <stop offset="100%" stop-color="#4A65D1"/>
    </linearGradient>
    <linearGradient id="coinsmart-Z" x1="1096.095%" x2="-132.267%" y1="-1619.469%" y2="340.835%">
      <stop offset="0%" stop-color="#00D57C"/>
      <stop offset="100%" stop-color="#4A65D1"/>
    </linearGradient>
    <linearGradient id="coinsmart-aa" x1="1044.36%" x2="-184.002%" y1="-1536.876%" y2="423.482%">
      <stop offset="0%" stop-color="#00D57C"/>
      <stop offset="100%" stop-color="#4A65D1"/>
    </linearGradient>
    <linearGradient id="coinsmart-ab" x1="966.486%" x2="-261.876%" y1="-1412.581%" y2="547.722%">
      <stop offset="0%" stop-color="#00D57C"/>
      <stop offset="100%" stop-color="#4A65D1"/>
    </linearGradient>
    <linearGradient id="coinsmart-ac" x1="871.746%" x2="-356.616%" y1="-1261.443%" y2="698.861%">
      <stop offset="0%" stop-color="#00D57C"/>
      <stop offset="100%" stop-color="#4A65D1"/>
    </linearGradient>
    <linearGradient id="coinsmart-ad" x1="767.354%" x2="-461.009%" y1="-1094.848%" y2="865.456%">
      <stop offset="0%" stop-color="#00D57C"/>
      <stop offset="100%" stop-color="#4A65D1"/>
    </linearGradient>
  </defs>
  <g fill="none" transform="translate(6)">
    <circle cx="239.326" cy="178.454" r="5.426" fill="url(#coinsmart-a)"/>
    <circle cx="225.944" cy="201.173" r="5.426" fill="url(#coinsmart-b)"/>
    <circle cx="208.151" cy="220.414" r="5.426" fill="url(#coinsmart-c)"/>
    <circle cx="186.634" cy="235.498" r="5.426" fill="url(#coinsmart-d)"/>
    <circle cx="162.064" cy="245.745" r="5.426" fill="url(#coinsmart-e)"/>
    <circle cx="135.135" cy="250.47" r="5.426" fill="url(#coinsmart-f)"/>
    <circle cx="107.43" cy="249.089" r="5.426" fill="url(#coinsmart-g)"/>
    <circle cx="81.614" cy="241.879" r="5.426" fill="url(#coinsmart-h)"/>
    <circle cx="58.432" cy="229.512" r="5.426" fill="url(#coinsmart-i)"/>
    <circle cx="38.557" cy="212.652" r="5.426" fill="url(#coinsmart-j)"/>
    <circle cx="22.644" cy="191.97" r="5.426" fill="url(#coinsmart-k)"/>
    <circle cx="11.374" cy="168.139" r="5.426" fill="url(#coinsmart-l)"/>
    <circle cx="5.426" cy="141.823" r="5.426" fill="url(#coinsmart-m)"/>
    <circle cx="5.426" cy="114.066" r="5.426" fill="url(#coinsmart-n)"/>
    <circle cx="11.374" cy="87.757" r="5.426" fill="url(#coinsmart-o)"/>
    <circle cx="22.644" cy="63.918" r="5.426" fill="url(#coinsmart-p)"/>
    <circle cx="38.557" cy="43.236" r="5.426" fill="url(#coinsmart-q)"/>
    <circle cx="58.432" cy="26.376" r="5.426" fill="url(#coinsmart-r)"/>
    <circle cx="81.614" cy="14.009" r="5.426" fill="url(#coinsmart-s)"/>
    <circle cx="107.43" cy="6.799" r="5.426" fill="url(#coinsmart-t)"/>
    <circle cx="135.135" cy="5.426" r="5.426" fill="url(#coinsmart-u)"/>
    <circle cx="162.064" cy="10.143" r="5.426" fill="url(#coinsmart-v)"/>
    <circle cx="186.634" cy="20.39" r="5.426" fill="url(#coinsmart-w)"/>
    <circle cx="208.151" cy="35.474" r="5.426" fill="url(#coinsmart-x)"/>
    <circle cx="225.944" cy="54.715" r="5.426" fill="url(#coinsmart-y)"/>
    <circle cx="239.326" cy="77.434" r="5.426" fill="url(#coinsmart-z)"/>
    <path fill="url(#coinsmart-A)" d="M165.593936,89.1521866 C162.636767,89.0507239 160.032026,87.1775739 158.994685,84.4064612 C157.957344,81.6353484 158.69177,78.5122112 160.855393,76.4938264 C163.019016,74.4754416 166.18558,73.9594522 168.87805,75.1865397 C171.570521,76.4136271 173.258454,79.1420424 173.154519,82.0991254 C173.008662,86.1319692 169.627182,89.2864598 165.593936,89.1521866 L165.593936,89.1521866 Z"/>
    <path fill="url(#coinsmart-B)" d="M144.046647,193.612128 C141.086881,193.510127 138.480715,191.633411 137.445603,188.858674 C136.41049,186.083938 137.150735,182.958846 139.320539,180.943263 C141.490343,178.927681 144.661438,178.419434 147.352471,179.655947 C150.043504,180.892459 151.72333,183.629674 151.60723,186.588921 C151.44539,190.60995 148.068683,193.746655 144.046647,193.612128 Z"/>
    <path fill="url(#coinsmart-C)" d="M165.593936,180.685248 C162.636767,180.583785 160.032026,178.710635 158.994685,175.939522 C157.957344,173.16841 158.69177,170.045272 160.855393,168.026888 C163.019016,166.008503 166.18558,165.492513 168.87805,166.719601 C171.570521,167.946688 173.258454,170.675104 173.154519,173.632187 C173.008662,177.66503 169.627182,180.819521 165.593936,180.685248 Z"/>
    <path fill="url(#coinsmart-D)" d="M119.043732,195.746706 C116.086563,195.645243 113.481822,193.772093 112.444481,191.00098 C111.40714,188.229867 112.141566,185.10673 114.305189,183.088345 C116.468812,181.069961 119.635376,180.553971 122.327846,181.781059 C125.020317,183.008146 126.70825,185.736561 126.604315,188.693644 C126.458458,192.726488 123.076978,195.880979 119.043732,195.746706 L119.043732,195.746706 Z"/>
    <path fill="url(#coinsmart-E)" d="M95.4887464,187.559184 C92.5315775,187.457721 89.9268362,185.584571 88.8894953,182.813458 C87.8521543,180.042345 88.5865807,176.919208 90.7502038,174.900823 C92.9138269,172.882439 96.0803902,172.366449 98.7728609,173.593537 C101.465332,174.820624 103.153265,177.549039 103.049329,180.506122 C102.903473,184.538966 99.5219925,187.693457 95.4887464,187.559184 Z"/>
    <path fill="url(#coinsmart-F)" d="M77.6209913,171.087114 C74.6638224,170.985651 72.0590811,169.112501 71.0217402,166.341388 C69.9843992,163.570276 70.7188256,160.447138 72.8824487,158.428754 C75.0460718,156.410369 78.2126351,155.894379 80.9051058,157.121467 C83.5975765,158.348554 85.2855095,161.07697 85.1815743,164.034052 C85.0357178,168.066896 81.6542374,171.221387 77.6209913,171.087114 L77.6209913,171.087114 Z"/>
    <path fill="url(#coinsmart-G)" d="M67.5526531,148.651662 C64.5954842,148.550199 61.9907429,146.677049 60.953402,143.905936 C59.916061,141.134824 60.6504874,138.011686 62.8141105,135.993302 C64.9777336,133.974917 68.1442969,133.458927 70.8367676,134.686015 C73.5292383,135.913102 75.2171714,138.641518 75.1132362,141.598601 C74.9673796,145.631444 71.5858992,148.785935 67.5526531,148.651662 L67.5526531,148.651662 Z"/>
    <path fill="url(#coinsmart-H)" d="M67.4705539,123.044198 C64.5133851,122.942736 61.9086438,121.069586 60.8713028,118.298473 C59.8339619,115.52736 60.5683883,112.404223 62.7320114,110.385838 C64.8956345,108.367453 68.0621977,107.851464 70.7546684,109.078551 C73.4471391,110.305639 75.1350722,113.034054 75.031137,115.991137 C74.8852805,120.023981 71.5038001,123.178471 67.4705539,123.044198 Z"/>
    <path fill="url(#coinsmart-I)" d="M77.4418659,100.414694 C74.4846971,100.313231 71.8799558,98.4400812 70.8426148,95.6689684 C69.8052738,92.8978557 70.5397002,89.7747185 72.7033233,87.7563337 C74.8669464,85.7379489 78.0335097,85.2219595 80.7259804,86.4490469 C83.4184511,87.6761344 85.1063842,90.4045497 85.002449,93.3616327 C84.8565924,97.3944765 81.4751121,100.548967 77.4418659,100.414694 L77.4418659,100.414694 Z"/>
    <path fill="url(#coinsmart-J)" d="M95.2573761,83.8754519 C92.3002073,83.7739892 89.695466,81.9008392 88.658125,79.1297265 C87.620784,76.3586137 88.3552104,73.2354765 90.5188335,71.2170917 C92.6824566,69.1987069 95.8490199,68.6827175 98.5414906,69.909805 C101.233961,71.1368924 102.921894,73.8653077 102.817959,76.8223907 C102.672103,80.8552346 99.2906223,84.0097251 95.2573761,83.8754519 Z"/>
    <path fill="url(#coinsmart-K)" d="M118.573528,75.5983673 C115.616359,75.4969046 113.011618,73.6237547 111.974277,70.8526419 C110.936936,68.0815292 111.671362,64.958392 113.834985,62.9400072 C115.998608,60.9216223 119.165171,60.4056329 121.857642,61.6327204 C124.550113,62.8598079 126.238046,65.5882232 126.134111,68.5453061 C125.988254,72.57815 122.606774,75.7326406 118.573528,75.5983673 Z"/>
    <path fill="url(#coinsmart-L)" d="M144.046647,77.5612828 C141.089478,77.4598201 138.484737,75.5866701 137.447396,72.8155574 C136.410055,70.0444446 137.144482,66.9213074 139.308105,64.9029226 C141.471728,62.8845378 144.638291,62.3685484 147.330762,63.5956359 C150.023232,64.8227234 151.711166,67.5511386 151.60723,70.5082216 C151.461374,74.5410655 148.079893,77.695556 144.046647,77.5612828 Z"/>
    <circle cx="205.427" cy="75.389" r="6.881" fill="url(#coinsmart-M)"/>
    <path fill="url(#coinsmart-N)" d="M186.842682,61.9475219 C183.04219,61.9475219 179.961283,58.8666144 179.961283,55.0661224 C179.961283,51.2656305 183.04219,48.184723 186.842682,48.184723 C190.643174,48.184723 193.724082,51.2656305 193.724082,55.0661224 C193.719968,58.8649092 190.641469,61.9434084 186.842682,61.9475219 L186.842682,61.9475219 Z"/>
    <path fill="url(#coinsmart-O)" d="M163.026472,47.7667638 C159.22598,47.7667638 156.145073,44.6858564 156.145073,40.8853644 C156.145073,37.0848725 159.22598,34.003965 163.026472,34.003965 C166.826964,34.003965 169.907872,37.0848725 169.907872,40.8853644 C169.903758,44.6841512 166.825259,47.7626504 163.026472,47.7667638 Z"/>
    <path fill="url(#coinsmart-P)" d="M135.329213,41.1540525 C131.528721,41.1540525 128.447813,38.073145 128.447813,34.2726531 C128.447813,30.4721611 131.528721,27.3912536 135.329213,27.3912536 C139.129705,27.3912536 142.210612,30.4721611 142.210612,34.2726531 C142.206499,38.0714399 139.128,41.149939 135.329213,41.1540525 L135.329213,41.1540525 Z"/>
    <path fill="url(#coinsmart-Q)" d="M106.363149,43.2214577 C103.579882,43.2214577 101.070674,41.5448586 100.005565,38.9734559 C98.9404547,36.4020531 99.5291981,33.4422406 101.497264,31.4741741 C103.465331,29.5061077 106.425144,28.9173643 108.996546,29.9824742 C111.567949,31.0475841 113.244548,33.5567921 113.244548,36.3400583 C113.240435,40.1388451 110.161935,43.2173443 106.363149,43.2214577 L106.363149,43.2214577 Z"/>
    <path fill="url(#coinsmart-R)" d="M80.404898,53.4615225 C76.6093319,53.4408741 73.5471573,50.3509117 73.5608154,46.5553146 C73.574565,42.7597175 76.6589719,39.6919472 80.4545876,39.6987598 C84.2502033,39.7055952 87.3236152,42.7844365 87.3236152,46.5800583 C87.3216487,48.410989 86.5908882,50.1658172 85.2927277,51.4569757 C83.9945672,52.7481343 82.2358125,53.4693935 80.404898,53.4615225 L80.404898,53.4615225 Z"/>
    <path fill="url(#coinsmart-S)" d="M58.9173178,70.5530029 C55.1168258,70.5530029 52.0359184,67.4720955 52.0359184,63.6716035 C52.0359184,59.8711115 55.1168258,56.7902041 58.9173178,56.7902041 C62.7178097,56.7902041 65.7987172,59.8711115 65.7987172,63.6716035 C65.7946037,67.4703903 62.7161046,70.5488894 58.9173178,70.5530029 L58.9173178,70.5530029 Z"/>
    <path fill="url(#coinsmart-T)" d="M43.2289213,93.1451895 C40.445655,93.1451895 37.9364471,91.4685904 36.8713372,88.8971876 C35.8062273,86.3257849 36.3949706,83.3659723 38.3630371,81.3979059 C40.3311035,79.4298395 43.2909161,78.8410961 45.8623188,79.906206 C48.4337216,80.9713159 50.1103207,83.4805238 50.1103207,86.2637901 C50.1062072,90.0625769 47.0277081,93.141076 43.2289213,93.1451895 Z"/>
    <path fill="url(#coinsmart-U)" d="M34.6831487,119.909504 C30.8826567,119.909504 27.8017493,116.828597 27.8017493,113.028105 C27.8017493,109.227613 30.8826567,106.146706 34.6831487,106.146706 C38.4836406,106.146706 41.5645481,109.227613 41.5645481,113.028105 C41.5604346,116.826892 38.4819355,119.905391 34.6831487,119.909504 L34.6831487,119.909504 Z"/>
    <path fill="url(#coinsmart-V)" d="M34.5637318,148.994985 C30.7632398,148.994985 27.6823324,145.914078 27.6823324,142.113586 C27.6823324,138.313094 30.7632398,135.232187 34.5637318,135.232187 C38.3642237,135.232187 41.4451312,138.313094 41.4451312,142.113586 C41.4410177,145.912373 38.3625186,148.990872 34.5637318,148.994985 L34.5637318,148.994985 Z"/>
    <path fill="url(#coinsmart-W)" d="M42.9079883,175.848863 C39.1074964,175.848863 36.0265889,172.767956 36.0265889,168.967464 C36.0265889,165.166972 39.1074964,162.086064 42.9079883,162.086064 C46.7084803,162.086064 49.7893878,165.166972 49.7893878,168.967464 C49.7852743,172.76625 46.7067751,175.84475 42.9079883,175.848863 L42.9079883,175.848863 Z"/>
    <circle cx="58.425" cy="191.687" r="6.881" fill="url(#coinsmart-X)"/>
    <path fill="url(#coinsmart-Y)" d="M79.7854227,215.81621 C75.9849308,215.81621 72.9040233,212.735302 72.9040233,208.93481 C72.9040233,205.134319 75.9849308,202.053411 79.7854227,202.053411 C83.5859147,202.053411 86.6668222,205.134319 86.6668222,208.93481 C86.6627087,212.733597 83.5842095,215.812096 79.7854227,215.81621 L79.7854227,215.81621 Z"/>
    <circle cx="105.639" cy="219.376" r="6.881" fill="url(#coinsmart-Z)"/>
    <path fill="url(#coinsmart-aa)" d="M134.560466,228.549038 C130.759975,228.549038 127.679067,225.46813 127.679067,221.667638 C127.679067,217.867147 130.759975,214.786239 134.560466,214.786239 C138.360958,214.786239 141.441866,217.867147 141.441866,221.667638 C141.437752,225.466425 138.359253,228.544924 134.560466,228.549038 Z"/>
    <path fill="url(#coinsmart-ab)" d="M162.339825,222.137843 C158.539333,222.137843 155.458426,219.056935 155.458426,215.256443 C155.458426,211.455951 158.539333,208.375044 162.339825,208.375044 C166.140317,208.375044 169.221224,211.455951 169.221224,215.256443 C169.217111,219.05523 166.138612,222.133729 162.339825,222.137843 L162.339825,222.137843 Z"/>
    <circle cx="186.275" cy="201.285" r="6.881" fill="url(#coinsmart-ac)"/>
    <path fill="url(#coinsmart-ad)" d="M205.016443,187.977143 C201.215951,187.977143 198.135044,184.896235 198.135044,181.095743 C198.135044,177.295251 201.215951,174.214344 205.016443,174.214344 C208.816935,174.214344 211.897843,177.295251 211.897843,181.095743 C211.893729,184.89453 208.81523,187.973029 205.016443,187.977143 L205.016443,187.977143 Z"/>
  </g>
</svg>
