<svg xmlns="http://www.w3.org/2000/svg" width="25" height="25" viewBox="0 0 25 25">
  <defs>
    <linearGradient id="coinbase-wallet-a" x1="50%" x2="50%" y1="0%" y2="100%">
      <stop offset="0%" stop-color="#2E66F8"/>
      <stop offset="100%" stop-color="#124ADB"/>
    </linearGradient>
  </defs>
  <g fill="none" fill-rule="evenodd">
    <path fill="#FFF" d="M3.125,12.5 C3.125,17.6776695 7.32233047,21.875 12.5,21.875 C17.6776695,21.875 21.875,17.6776695 21.875,12.5 C21.875,7.32233047 17.6776695,3.125 12.5,3.125 C7.32233047,3.125 3.125,7.32233047 3.125,12.5 Z M10.1041667,9.47916667 C9.7589887,9.47916667 9.47916667,9.7589887 9.47916667,10.1041667 L9.47916667,14.8958333 C9.47916667,15.2410113 9.7589887,15.5208333 10.1041667,15.5208333 L14.8958333,15.5208333 C15.2410113,15.5208333 15.5208333,15.2410113 15.5208333,14.8958333 L15.5208333,10.1041667 C15.5208333,9.7589887 15.2410113,9.47916667 14.8958333,9.47916667 L10.1041667,9.47916667 Z"/>
    <polygon points="0 0 24.97 0 24.97 24.97 0 24.97"/>
    <rect width="24.97" height="24.97" fill="url(#coinbase-wallet-a)" fill-rule="nonzero" rx="12.485"/>
    <path fill="#FFF" d="M5.20208333,12.485 C5.20208333,16.5072438 8.46275619,19.7679167 12.485,19.7679167 C16.5072438,19.7679167 19.7679167,16.5072438 19.7679167,12.485 C19.7679167,8.46275619 16.5072438,5.20208333 12.485,5.20208333 C8.46275619,5.20208333 5.20208333,8.46275619 5.20208333,12.485 L5.20208333,12.485 Z M10.62375,10.1383333 C10.3556618,10.1383333 10.1383333,10.3556618 10.1383333,10.62375 L10.1383333,14.34625 C10.1383333,14.6143382 10.3556618,14.8316667 10.62375,14.8316667 L14.34625,14.8316667 C14.6143382,14.8316667 14.8316667,14.6143382 14.8316667,14.34625 L14.8316667,10.62375 C14.8316667,10.3556618 14.6143382,10.1383333 14.34625,10.1383333 L10.62375,10.1383333 Z"/>
  </g>
</svg>
