<svg xmlns="http://www.w3.org/2000/svg" width="256" height="256" viewBox="0 0 256 256">
  <g fill="none">
    <path fill="#13181E" d="M128,256 C57.3866667,256 0,198.613333 0,128 C0,57.3866667 57.3866667,0 128,0 C198.613333,0 256,57.3866667 256,128 C256,198.613333 198.613333,256 128,256 Z"/>
    <path fill="#FFF" d="M157.226667,153.386667 C150.613333,160 141.653333,163.84 131.84,163.84 C112,163.84 95.7866667,147.626667 95.7866667,127.786667 C95.7866667,107.946667 112,91.7333333 131.84,91.7333333 C141.866667,91.7333333 150.826667,95.7866667 157.226667,102.186667 L177.066667,82.3466667 C165.546667,71.04 149.546667,64 131.84,64 C96.4266667,64 67.84,92.5866667 67.84,128 C67.84,163.413333 96.4266667,192 131.84,192 C149.546667,192 165.546667,184.746667 177.066667,173.226667 L157.226667,153.386667 Z"/>
  </g>
</svg>
