<svg xmlns="http://www.w3.org/2000/svg" xmlns:xlink="http://www.w3.org/1999/xlink" width="114.8" height="114.8" viewBox="0 0 114.8 114.8"><defs><style>.a{fill:#d8d8d8;}.b{fill:#aaa;}.c{fill:#fff;}.d{fill:url(#a);}.e{fill:url(#b);}.f{fill:url(#c);}.g{fill:url(#d);}.h{fill:url(#e);}.i{fill:url(#f);}.j{fill:url(#g);}.k{fill:url(#h);}.l{fill:url(#i);}.m{fill:url(#j);}.n{fill:url(#k);}.o{fill:url(#l);}.p{fill:url(#m);}.q{fill:url(#n);}.r{fill:url(#o);}.s{fill:url(#p);}.t{fill:#f89200;}.u{fill:#00bc9b;}.v{fill:#f8bf00;}.w{fill:#5cd551;}.x{fill:#ff4c9f;}.y{fill:#00bef2;}.z{fill:#ce0003;}.aa{fill:#3273e2;}.ab{fill:#a680d0;}</style><linearGradient id="a" x1="0.103" y1="24.183" x2="0.907" y2="25.064" gradientUnits="objectBoundingBox"><stop offset="0" stop-color="#f89200"/><stop offset="1" stop-color="#00bef2"/></linearGradient><linearGradient id="b" x1="0.523" y1="25.487" x2="0.523" y2="24.49" gradientUnits="objectBoundingBox"><stop offset="0" stop-color="#f89200"/><stop offset="1" stop-color="#cc1f25"/></linearGradient><linearGradient id="c" x1="0.095" y1="34.013" x2="0.916" y2="33.192" gradientUnits="objectBoundingBox"><stop offset="0" stop-color="#f89200"/><stop offset="1" stop-color="#aaa"/></linearGradient><linearGradient id="d" x1="0.002" y1="253.145" x2="1.004" y2="253.145" gradientUnits="objectBoundingBox"><stop offset="0" stop-color="#f89200"/><stop offset="1" stop-color="#3273e2"/></linearGradient><linearGradient id="e" x1="0.04" y1="26.156" x2="0.962" y2="27.021" gradientUnits="objectBoundingBox"><stop offset="0" stop-color="#f89200"/><stop offset="1" stop-color="#a680d0"/></linearGradient><linearGradient id="f" x1="0.066" y1="70.413" x2="0.944" y2="69.722" gradientUnits="objectBoundingBox"><stop offset="0" stop-color="#00bef2"/><stop offset="1" stop-color="#a680d0"/></linearGradient><linearGradient id="g" x1="0.971" y1="100.218" x2="0.036" y2="100.792" gradientUnits="objectBoundingBox"><stop offset="0" stop-color="#ff4c9f"/><stop offset="1" stop-color="#a680d0"/></linearGradient><linearGradient id="h" x1="0.953" y1="54.065" x2="0.053" y2="54.805" gradientUnits="objectBoundingBox"><stop offset="0" stop-color="#5cd551"/><stop offset="1" stop-color="#ce0003"/></linearGradient><linearGradient id="i" x1="0.37" y1="48.979" x2="0.663" y2="48.026" gradientUnits="objectBoundingBox"><stop offset="0" stop-color="#aaa"/><stop offset="0.184" stop-color="#a2aea1"/><stop offset="0.484" stop-color="#8dba89"/><stop offset="0.861" stop-color="#6acd61"/><stop offset="1" stop-color="#5cd551"/></linearGradient><linearGradient id="j" x1="0.968" y1="34.029" x2="0.034" y2="33.186" gradientUnits="objectBoundingBox"><stop offset="0" stop-color="#f8bf00"/><stop offset="1" stop-color="#5cd551"/></linearGradient><linearGradient id="k" x1="0.997" y1="145.766" x2="0.007" y2="146.159" gradientUnits="objectBoundingBox"><stop offset="0" stop-color="#f8bf00"/><stop offset="0.6" stop-color="#b6ad91"/><stop offset="1" stop-color="#aaa"/></linearGradient><linearGradient id="l" x1="0.287" y1="28.761" x2="0.753" y2="29.729" gradientUnits="objectBoundingBox"><stop offset="0" stop-color="#3273e2"/><stop offset="0.99" stop-color="#a680d0"/></linearGradient><linearGradient id="m" x1="0.114" y1="28.477" x2="0.894" y2="29.331" gradientUnits="objectBoundingBox"><stop offset="0" stop-color="#aaa"/><stop offset="1" stop-color="#3273e2"/></linearGradient><linearGradient id="n" x1="0.758" y1="35.328" x2="0.265" y2="36.264" gradientUnits="objectBoundingBox"><stop offset="0" stop-color="#f8bf00"/><stop offset="1" stop-color="#00bc9b"/></linearGradient><linearGradient id="o" x1="0.986" y1="171.798" x2="0.024" y2="172.094" gradientUnits="objectBoundingBox"><stop offset="0" stop-color="#00bc9b"/><stop offset="0.99" stop-color="#3273e2"/></linearGradient><linearGradient id="p" x1="0.27" y1="39.065" x2="0.752" y2="39.989" gradientUnits="objectBoundingBox"><stop offset="0" stop-color="#00bc9b"/><stop offset="1" stop-color="#ff4c9f"/></linearGradient></defs><g transform="translate(-2.3 -2.1)"><path class="a" d="M59.7,2.1a57.4,57.4,0,1,0,57.4,57.4A57.4,57.4,0,0,0,59.7,2.1Zm0,109.3a52,52,0,1,1,52-52A52.024,52.024,0,0,1,59.7,111.4Z"/><path class="b" d="M59.7,6.5A53.091,53.091,0,1,1,22.2,22.1,52.675,52.675,0,0,1,59.7,6.5Z"/><path class="c" d="M95.7,23.4a50.376,50.376,0,0,0-36-15A51.042,51.042,0,0,0,8.6,59.5a50.376,50.376,0,0,0,15,36,51,51,0,0,0,87.1-36.1A50.376,50.376,0,0,0,95.7,23.4Z"/><path class="d" d="M34.7,71.3l1.7-1L47.3,89.2l-1.7,1Z"/><path class="e" d="M30.4,35.6h1.9V55.2H30.4Z"/><path class="f" d="M38,58.3l-1.4-1.4L49.8,43.8l1.3,1.3Z"/><path class="g" d="M39.8,62.6h25v1.9h-25V62.6Z"/><path class="h" d="M38.2,68.6l.9-1.7,29,16.7-1,1.7Z"/><path class="i" d="M53.8,93.1l-.7-1.8,14-5.1.6,1.8Z"/><path class="j" d="M88.2,81.6l.3,1.9L73.4,86.4l-.3-1.9Z"/><path class="k" d="M52.2,23.4l.7,1.8L34.6,32.3l-.7-1.8Z"/><path class="l" d="M55.3,36.2,53.4,36l.8-9.8,1.9.2Z"/><path class="m" d="M87.4,36.4l-.7,1.7L57.9,25.4l.7-1.8Z"/><path class="n" d="M86.6,38.5l.1,2L58.8,41.8l-.1-2Z"/><path class="o" d="M67.2,66.7l2-.2L70.9,83l-1.9.2Z"/><path class="p" d="M55.6,45.7l1.7-1.1,9.8,15.8-1.7,1.1Z"/><path class="q" d="M89.8,43.9l1.9.3-2,13.3-1.9-.3Z"/><path class="r" d="M83,61.5l.2,2-12.1.8-.2-1.9Z"/><path class="s" d="M87.8,67.1l1.9-.3,2.1,12-1.9.3Z"/><path class="t" d="M32.2,54.8a8.791,8.791,0,1,1-9.6,7.9A8.771,8.771,0,0,1,32.2,54.8Z"/><path class="u" d="M88.5,56.9a5.269,5.269,0,1,1-5.7,4.8A5.274,5.274,0,0,1,88.5,56.9Z"/><path class="v" d="M92,34a5.269,5.269,0,1,1-5.7,4.8A5.206,5.206,0,0,1,92,34Z"/><path class="w" d="M55.7,19.7a3.513,3.513,0,1,1-3.8,3.2A3.626,3.626,0,0,1,55.7,19.7Z"/><path class="x" d="M91.6,78.5a3.513,3.513,0,1,1-3.8,3.2A3.482,3.482,0,0,1,91.6,78.5Z"/><path class="y" d="M43.7,94.8a5.277,5.277,0,1,1,6.1,4.3A5.242,5.242,0,0,1,43.7,94.8Z"/><path class="z" d="M34.7,33.7a3.609,3.609,0,0,1-4.5,2.1,3.442,3.442,0,0,1-2.1-4.5,3.511,3.511,0,0,1,6.6,2.4Z"/><path class="b" d="M56.1,45.8a5.28,5.28,0,1,1,2.6-7A5.349,5.349,0,0,1,56.1,45.8Z"/><path class="aa" d="M66.7,66.8a3.511,3.511,0,1,1,4.5-2.1A3.442,3.442,0,0,1,66.7,66.8Z"/><path class="ab" d="M67.6,88.2a3.483,3.483,0,1,1,4.9.5A3.486,3.486,0,0,1,67.6,88.2Z"/></g></svg>