<svg xmlns="http://www.w3.org/2000/svg" width="256" height="256" viewBox="0 0 256 256">
  <g fill="none" fill-rule="evenodd">
    <circle cx="128" cy="128" r="128" fill="#033D5C"/>
    <path fill="#FFCD00" fill-rule="nonzero" d="M125.967437,63.9716985 C127.861065,63.6835377 129.919357,63.848201 131.607156,64.7538492 C132.430472,65.2066734 133.212623,66.1123216 132.842131,67.0591357 C132.430472,68.0882814 131.360161,68.5822714 130.372181,68.911598 C128.478553,69.4467538 126.420261,69.4467538 124.526633,68.8292663 C123.785648,68.5411055 123.003497,68.1294472 122.550673,67.4296281 C122.139015,66.8533065 122.221347,66.0299899 122.674171,65.536 C123.497487,64.5480201 124.773628,64.1775276 125.967437,63.9716985 Z M113.411859,70.1465729 C115.470151,69.7760804 117.734271,69.8584121 119.545568,70.9698894 C120.368884,71.4227136 121.027538,72.4518593 120.615879,73.3986734 C120.080724,74.6336482 118.63992,75.168804 117.404945,75.4981307 C115.264322,75.9509548 112.835538,75.9097889 110.900744,74.7571457 C110.077427,74.2631558 109.377608,73.1928442 109.912764,72.2460302 C110.571417,70.9698894 112.053387,70.4347337 113.411859,70.1465729 Z M138.193688,70.0642412 C140.25198,69.7760804 142.474935,69.9819095 144.286231,71.0933869 C145.109548,71.6285427 145.850533,72.6988543 145.315377,73.6868342 C144.697889,74.8394774 143.339417,75.2923015 142.104442,75.5804623 C139.963819,75.9509548 137.576201,75.7862915 135.682573,74.6336482 C134.859256,74.0984925 134.118271,73.0693467 134.612261,72.0813668 C135.31208,70.7640603 136.876382,70.3112362 138.193688,70.0642412 Z M100.856281,76.609608 C102.708744,76.3214472 104.725869,76.4449447 106.413668,77.3917588 C107.236985,77.8857487 107.97797,78.8737286 107.648643,79.8617085 C107.319317,80.9731859 106.249005,81.5906734 105.261025,82.0023317 C103.285065,82.7844824 101.062111,82.8668141 99.0449849,82.3316583 C98.1393367,82.0434975 97.1513568,81.5906734 96.616201,80.7673568 C96.1222111,79.985206 96.3280402,78.9148945 96.9866935,78.297407 C98.0158392,77.2682613 99.4566432,76.8154372 100.856281,76.609608 Z M125.967437,76.609608 C128.10806,76.3214472 130.454513,76.4861106 132.265809,77.7622513 C133.089126,78.3385729 133.583116,79.4912161 133.089126,80.4380302 C132.430472,81.5495075 131.113166,82.1258291 129.878191,82.4139899 C127.655236,82.9079799 125.144121,82.7433166 123.168161,81.5083417 C122.262513,80.9731859 121.562693,79.8617085 122.056683,78.8325628 C122.838834,77.3917588 124.485467,76.856603 125.967437,76.609608 Z M151.119759,76.609608 C153.260382,76.2802814 155.565668,76.5272764 157.459296,77.6799196 C158.241447,78.1327437 158.941266,78.9560603 158.858935,79.9028744 C158.776603,80.9731859 157.829789,81.673005 156.924141,82.0434975 C154.907015,82.8668141 152.560563,82.8668141 150.502271,82.2081608 C149.514291,81.92 148.526312,81.3848442 147.908824,80.5615276 C147.373668,79.9028744 147.332503,78.8325628 147.908824,78.1739095 C148.732141,77.2270955 149.92595,76.8154372 151.119759,76.609608 Z M86.9422312,83.5666332 C88.6300302,83.3196382 90.4001608,83.4019698 91.9644623,84.1017889 C92.8701106,84.5134472 93.734593,85.2544322 93.8169246,86.2835779 C93.8992563,87.3538894 93.0759397,88.2595377 92.2114573,88.7946935 C90.3178291,89.9473367 88.0125427,90.2354975 85.7895879,89.9473367 C84.5546131,89.7415075 83.1961407,89.3298492 82.4139899,88.3007035 C81.7965025,87.5597186 81.8788342,86.4482412 82.4963216,85.7484221 C83.5666332,84.3899497 85.295598,83.8136281 86.9422312,83.5666332 Z M112.876704,83.5666332 C114.811497,83.2784724 116.910955,83.4431357 118.681085,84.3899497 C119.463236,84.8427739 120.245387,85.5837588 120.245387,86.5717387 C120.327719,87.5597186 119.545568,88.3830352 118.763417,88.8770251 C116.869789,90.0708342 114.482171,90.2766633 112.300382,89.9061709 C110.983075,89.6180101 109.501106,89.1240201 108.760121,87.8890452 C108.266131,87.1068945 108.47196,86.0365829 109.130613,85.3367638 C110.077427,84.3076181 111.518231,83.8136281 112.876704,83.5666332 Z M139.099337,83.5666332 C141.23996,83.2373065 143.545246,83.5254673 145.356543,84.7192764 C146.344523,85.295598 147.085508,86.6129045 146.550352,87.7243819 C145.768201,89.1240201 144.162734,89.7003417 142.72193,89.9473367 C140.457809,90.2354975 137.987859,90.0296683 136.094231,88.671196 C135.188583,88.0537085 134.571095,86.7775678 135.147417,85.7484221 C135.970734,84.3487839 137.617367,83.7724623 139.099337,83.5666332 Z M165.033809,83.5666332 C167.133266,83.2373065 169.356221,83.5254673 171.249849,84.5134472 C172.196663,85.048603 173.184643,85.9130854 173.225809,87.1068945 C173.225809,88.0948744 172.443658,88.8358593 171.579176,89.2886834 C169.891377,90.1531658 167.874251,90.1943317 165.980623,89.9061709 C164.498653,89.6180101 162.975518,89.0416884 161.946372,87.8890452 C161.287719,87.1480603 161.164221,85.9130854 161.822874,85.1309347 C162.605025,84.2252864 163.84,83.7724623 165.033809,83.5666332 Z M71.7108744,91.0588141 C73.5633367,90.8118191 75.4981307,90.8118191 77.1859296,91.6351357 C78.1327437,92.0879598 78.9972261,92.9524422 78.9148945,94.0639196 C78.8325628,95.2165628 77.9680804,96.0810452 77.0624322,96.6573668 C75.0453065,97.8923417 72.534191,98.2628342 70.1877387,97.8923417 C68.911598,97.6453467 67.470794,97.110191 66.8121407,95.8752161 C66.3181508,94.8872362 66.7709749,93.6934271 67.5531256,92.993608 C68.7057688,91.9232965 70.1877387,91.3469749 71.7108744,91.0588141 Z M98.7156583,91.0588141 C100.979779,90.7294874 103.53206,90.8529849 105.384523,92.3349548 C106.249005,93.0347739 106.578332,94.3520804 106.00201,95.3400603 C105.302191,96.5338693 103.943719,97.1925226 102.626412,97.6041809 C100.691618,98.1393367 98.5921608,98.1805025 96.6985327,97.5218492 C95.7105528,97.1513568 94.681407,96.5750352 94.2285829,95.5458894 C93.8992563,94.7225729 94.1050854,93.7757588 94.681407,93.1171055 C95.7105528,91.9232965 97.2336884,91.3469749 98.7156583,91.0588141 Z M125.720442,91.0588141 C127.902231,90.7294874 130.248683,90.8941508 132.142312,92.0879598 C133.006794,92.6231156 133.788945,93.5287638 133.665447,94.5990754 C133.665447,95.7517186 132.718633,96.5338693 131.771819,97.0690251 C129.672362,98.1393367 127.161246,98.2628342 124.897126,97.6453467 C123.703317,97.3160201 122.509508,96.6985327 121.850854,95.6282211 C121.356864,94.8872362 121.39803,93.8169246 121.933186,93.1171055 C122.838834,91.9232965 124.279638,91.3469749 125.720442,91.0588141 Z M152.725226,91.0588141 C155.112844,90.6883216 157.665126,90.9764824 159.682251,92.3349548 C160.505568,92.9112764 161.205387,93.8169246 161.123055,94.8872362 C160.999558,96.1222111 159.929246,96.9455276 158.858935,97.3983518 C156.677146,98.2628342 154.16603,98.1805025 151.943075,97.3983518 C150.831598,96.9455276 149.637789,96.2868744 149.102633,95.1342312 C148.690975,94.3109146 148.93797,93.2817688 149.555457,92.6231156 C150.378774,91.7174673 151.572583,91.305809 152.725226,91.0588141 Z M179.73001,91.0588141 C182.117628,90.6883216 184.66991,90.9764824 186.728201,92.2526231 C187.757347,92.9112764 188.827658,94.0227538 188.580663,95.3812261 C188.210171,96.7808643 186.728201,97.4806834 185.45206,97.8100101 C182.982111,98.304 180.265166,97.9335075 178.124543,96.616201 C177.013065,95.9163819 175.942754,94.681407 176.395578,93.2817688 C176.889568,91.9232965 178.412704,91.3469749 179.73001,91.0588141 Z M55.656201,99.0861508 C57.5086633,98.7979899 59.4846231,98.7979899 61.1724221,99.6213065 C62.0780704,100.115296 62.9837186,100.979779 62.9013869,102.05009 C62.9013869,103.285065 61.9545729,104.273045 61.0077588,104.931698 C58.9083015,106.331337 56.2736884,106.825327 53.7625729,106.454834 C52.527598,106.249005 51.2514573,105.796181 50.4693065,104.767035 C49.8106533,103.861387 49.9753166,102.585246 50.6339698,101.76193 C51.8689447,100.238794 53.8037387,99.4566432 55.656201,99.0861508 Z M83.7312965,99.0861508 C85.8307538,98.7568241 88.1360402,98.8391558 89.9473367,100.032965 C90.8529849,100.650452 91.5116382,101.76193 91.2234774,102.873407 C90.8529849,104.355377 89.4533467,105.261025 88.1360402,105.837347 C85.9542513,106.701829 83.4431357,106.866492 81.1790151,106.084342 C80.1087035,105.672683 78.9972261,104.972864 78.6678995,103.861387 C78.3385729,102.74991 78.9148945,101.597266 79.6970452,100.897447 C80.8085226,99.9094673 82.2904925,99.3331457 83.7312965,99.0861508 Z M111.806392,99.0449849 C113.905849,98.7156583 116.16997,98.9214874 118.022432,99.991799 C119.092744,100.650452 119.957226,101.844261 119.669065,103.161568 C119.298573,104.52004 118.022432,105.343357 116.828623,105.878513 C114.852663,106.660663 112.629709,106.784161 110.571417,106.249005 C109.336442,105.919678 108.142633,105.261025 107.401648,104.190714 C106.825327,103.285065 106.98999,102.05009 107.648643,101.226774 C108.636623,99.991799 110.24209,99.3331457 111.806392,99.0449849 Z M139.881487,99.0449849 C142.022111,98.7156583 144.368563,98.9626533 146.262191,100.115296 C147.250171,100.691618 148.155819,101.679598 148.196985,102.873407 C148.155819,103.943719 147.414834,104.849367 146.550352,105.425688 C144.697889,106.537166 142.433769,106.742995 140.334312,106.413668 C138.811176,106.166673 137.205709,105.549186 136.135397,104.314211 C135.353246,103.449729 135.270915,101.967759 136.053065,101.062111 C136.958714,99.8683015 138.440683,99.2919799 139.881487,99.0449849 Z M167.709588,99.0861508 C170.014874,98.6744925 172.484824,99.0038191 174.543116,100.197628 C175.531095,100.77395 176.47791,101.679598 176.642573,102.873407 C176.76607,104.02605 175.98392,105.055196 175.037106,105.590352 C173.061146,106.742995 170.591196,106.784161 168.409407,106.249005 C166.886271,105.878513 165.363136,105.137528 164.416322,103.861387 C163.798834,102.996905 163.716503,101.679598 164.416322,100.815116 C165.198472,99.8271357 166.474613,99.3331457 167.709588,99.0861508 Z M195.784683,99.0449849 C198.254633,98.6744925 200.84808,99.0861508 202.988704,100.362291 C204.017849,101.020945 205.005829,101.926593 205.170492,103.161568 C205.29399,104.273045 204.511839,105.261025 203.565025,105.755015 C201.877226,106.660663 199.860101,106.701829 197.966472,106.413668 C196.278673,106.084342 194.549709,105.425688 193.273568,104.149548 C192.491417,103.367397 191.956261,102.173588 192.491417,101.103276 C193.108905,99.8683015 194.508543,99.2919799 195.784683,99.0449849 Z M37.7078995,107.854472 C39.6015276,107.442814 41.6186533,107.360482 43.4299497,108.019136 C44.5414271,108.430794 45.6529045,109.377608 45.6529045,110.612583 C45.7352362,111.971055 44.7472563,113.041367 43.7592764,113.823518 C41.7833166,115.264322 39.272201,115.881809 36.8022513,115.799477 C35.3614472,115.67598 33.7559799,115.305487 32.768,114.152844 C31.9446834,113.247196 32.0681809,111.806392 32.768,110.859578 C33.8794774,109.212945 35.8554372,108.348462 37.7078995,107.854472 Z M66.8533065,107.854472 C68.9527638,107.401648 71.2168844,107.360482 73.1516784,108.307296 C74.1396583,108.801286 75.0864724,109.706935 75.1276382,110.900744 C75.2099698,112.176884 74.3043216,113.288362 73.3163417,113.988181 C71.1757186,115.552482 68.3352764,116.087638 65.7418291,115.634814 C64.342191,115.387819 62.7778894,114.770332 62.0780704,113.453025 C61.5429146,112.382714 61.913407,111.106573 62.6132261,110.283256 C63.6835377,108.96595 65.289005,108.224965 66.8533065,107.854472 Z M95.9987136,107.854472 C98.1805025,107.360482 100.609286,107.401648 102.626412,108.47196 C103.696724,109.048281 104.643538,110.118593 104.643538,111.353568 C104.602372,112.753206 103.573226,113.823518 102.461749,114.523337 C100.485789,115.67598 98.1393367,116.005307 95.9163819,115.67598 C94.4344121,115.428985 92.993608,114.852663 92.046794,113.658854 C91.2646432,112.71204 91.305809,111.23007 92.046794,110.24209 C92.9524422,108.96595 94.4755779,108.224965 95.9987136,107.854472 Z M125.144121,107.813307 C127.32591,107.319317 129.754693,107.442814 131.771819,108.47196 C132.800965,108.96595 133.747779,109.789266 134.077106,110.94191 C134.365266,111.929889 133.994774,113.041367 133.253789,113.782352 C131.977648,115.099658 130.042854,115.67598 128.231558,115.758312 C126.173266,115.881809 123.991477,115.470151 122.344844,114.152844 C121.356864,113.370693 120.698211,112.012221 121.192201,110.777246 C121.809688,109.130613 123.538653,108.224965 125.144121,107.813307 Z M154.495357,107.772141 C157.006472,107.278151 159.805749,107.566312 161.946372,109.048281 C162.893186,109.706935 163.757668,110.73608 163.757668,111.971055 C163.798834,113.082533 163.057849,114.029347 162.152201,114.605668 C160.299739,115.799477 157.994452,116.005307 155.853829,115.634814 C154.248362,115.346653 152.68406,114.729166 151.531417,113.535357 C150.708101,112.71204 150.255276,111.312402 150.831598,110.200925 C151.531417,108.801286 153.054553,108.101467 154.495357,107.772141 Z M183.18794,107.854472 C185.534392,107.278151 188.086673,107.48398 190.268462,108.513126 C191.338774,109.048281 192.409085,109.789266 192.985407,110.859578 C193.479397,111.765226 193.520563,112.917869 192.903075,113.782352 C192.079759,114.893829 190.680121,115.428985 189.362814,115.67598 C186.769367,116.046472 183.97009,115.511317 181.829467,113.988181 C180.759156,113.20603 179.812342,111.847558 180.141668,110.406754 C180.512161,109.048281 181.870633,108.224965 183.18794,107.854472 Z M212.292181,107.854472 C214.762131,107.236985 217.43791,107.566312 219.743196,108.677789 C221.060503,109.336442 222.377809,110.283256 222.912965,111.765226 C223.242291,112.71204 222.954131,113.823518 222.17198,114.482171 C221.142834,115.387819 219.70203,115.717146 218.343558,115.799477 C215.832442,115.881809 213.280161,115.18199 211.263035,113.658854 C210.275055,112.876704 209.369407,111.682894 209.575236,110.324422 C209.781065,109.007116 211.098372,108.183799 212.292181,107.854472 Z M50.5516382,116.952121 C52.3217688,116.746291 54.1742312,116.828623 55.7796985,117.65194 C56.8500101,118.187095 57.7556583,119.298573 57.6733266,120.533548 C57.590995,121.933186 56.6441809,123.044663 55.6150352,123.826814 C53.6802412,125.226452 51.2102915,125.84394 48.8226734,125.761608 C47.1348744,125.679276 45.2824121,125.226452 44.2121005,123.785648 C43.3887839,122.674171 43.6769447,121.027538 44.5414271,119.998392 C45.9822312,118.187095 48.3286834,117.281447 50.5516382,116.952121 Z M80.5203618,116.993286 C82.5374874,116.705126 84.7192764,116.828623 86.5305729,117.898935 C87.5185528,118.516422 88.3830352,119.586734 88.3418693,120.821709 C88.3418693,122.303678 87.230392,123.538653 86.0365829,124.279638 C83.6901307,125.761608 80.7673568,126.132101 78.0915779,125.473447 C76.7331055,125.061789 75.3334673,124.320804 74.7983116,122.921166 C74.2631558,121.686191 74.7983116,120.245387 75.662794,119.339739 C76.9801005,118.022432 78.7502312,117.281447 80.5203618,116.993286 Z M110.73608,116.993286 C112.835538,116.66396 115.058492,116.869789 116.910955,117.940101 C118.063598,118.598754 119.051578,119.710231 119.051578,121.068704 C119.13391,122.427176 118.187095,123.620985 117.075618,124.36197 C115.223156,125.596945 112.835538,125.967437 110.653749,125.720442 C108.924784,125.473447 107.154653,124.85596 106.084342,123.456322 C105.261025,122.427176 105.137528,120.90404 105.878513,119.792563 C106.907658,118.14593 108.883618,117.322613 110.73608,116.993286 Z M140.951799,116.993286 C143.21592,116.622794 145.727035,116.910955 147.702995,118.187095 C148.855638,118.92808 149.884784,120.163055 149.843618,121.603859 C149.761286,123.168161 148.485146,124.36197 147.167839,124.979457 C144.162734,126.296764 140.457809,126.049769 137.78203,124.114975 C136.588221,123.209327 135.723739,121.562693 136.341226,120.080724 C137.082211,118.228261 139.099337,117.322613 140.951799,116.993286 Z M171.208683,116.993286 C173.760965,116.581628 176.47791,117.034452 178.618533,118.557588 C179.647678,119.257407 180.512161,120.327719 180.635658,121.562693 C180.759156,122.633005 180.182834,123.662151 179.359518,124.320804 C178.001045,125.432281 176.230915,125.761608 174.50195,125.802774 C172.196663,125.761608 169.809045,125.061789 168.121246,123.456322 C167.092101,122.468342 166.474613,120.90404 167.133266,119.545568 C167.874251,118.022432 169.603216,117.281447 171.208683,116.993286 Z M201.383236,116.993286 C204.059015,116.540462 206.858291,117.116784 209.122412,118.598754 C210.233889,119.339739 211.263035,120.451216 211.468864,121.850854 C211.633528,122.921166 211.01604,123.991477 210.151558,124.608965 C208.957749,125.473447 207.475779,125.761608 206.034975,125.802774 C203.565025,125.802774 201.012744,125.061789 199.119116,123.456322 C198.048804,122.509508 197.225487,121.027538 197.678312,119.586734 C198.213467,118.022432 199.901266,117.281447 201.383236,116.993286 Z M62.6132261,127.12008 C64.5891859,126.790754 66.7709749,126.83192 68.5822714,127.819899 C69.5702513,128.355055 70.4347337,129.260704 70.6405628,130.413347 C70.9287236,131.730653 70.2289045,133.089126 69.2820905,133.994774 C67.3472965,135.888402 64.5891859,136.711719 61.9545729,136.629387 C60.0609447,136.547055 58.0026533,136.011899 56.8500101,134.447598 C55.9855276,133.294955 56.1090251,131.607156 56.9323417,130.454513 C58.2084824,128.60205 60.4314372,127.531739 62.6132261,127.12008 Z M94.1462513,127.12008 C96.2868744,126.749588 98.5921608,126.914251 100.485789,127.984563 C101.638432,128.684382 102.667578,129.837025 102.667578,131.236663 C102.74991,132.800965 101.720764,134.200603 100.485789,135.02392 C98.0981709,136.629387 94.9695678,137.041045 92.2114573,136.258894 C90.8529849,135.847236 89.4945126,135.065085 88.7946935,133.788945 C88.0948744,132.55397 88.3418693,130.989668 89.2063518,129.878191 C90.358995,128.313889 92.2526231,127.490573 94.1462513,127.12008 Z M125.679276,127.12008 C128.190392,126.667256 130.948503,127.037749 133.006794,128.60205 C134.159437,129.466533 134.941588,130.866171 134.694593,132.306975 C134.488764,133.624281 133.500784,134.694593 132.389307,135.394412 C130.289849,136.670553 127.655236,136.917548 125.267618,136.382392 C123.579819,135.970734 121.933186,135.147417 121.027538,133.624281 C120.245387,132.471638 120.327719,130.866171 121.151035,129.713528 C122.180181,128.231558 123.950312,127.449407 125.679276,127.12008 Z M156.965307,127.161246 C159.39409,126.667256 161.987538,126.996583 164.128161,128.231558 C165.363136,128.972543 166.433447,130.08402 166.762774,131.483658 C167.050935,132.718633 166.515779,134.03594 165.568965,134.859256 C164.086995,136.217729 162.028704,136.670553 160.052744,136.629387 C157.706291,136.588221 155.195176,135.80607 153.589709,133.994774 C152.642894,132.965628 152.19007,131.401327 152.766392,130.08402 C153.507377,128.396221 155.277508,127.490573 156.965307,127.161246 Z M188.539497,127.12008 C191.37994,126.584925 194.508543,127.202412 196.854995,128.972543 C197.842975,129.713528 198.707457,130.783839 198.913286,132.018814 C199.160281,133.212623 198.58396,134.447598 197.678312,135.188583 C196.361005,136.258894 194.63204,136.629387 192.985407,136.670553 C190.474291,136.629387 187.92201,135.847236 186.069548,134.118271 C184.916905,133.089126 184.134754,131.483658 184.66991,129.960523 C185.287397,128.355055 186.93403,127.449407 188.539497,127.12008 Z M76.2391156,138.111357 C78.3385729,137.740864 80.6438593,137.823196 82.5786533,138.893508 C83.7312965,139.552161 84.7604422,140.74597 84.8839397,142.145608 C85.0074372,143.833407 83.9782915,145.397709 82.7021508,146.385688 C80.232201,148.279317 76.8977688,148.93797 73.8926633,148.155819 C72.4930251,147.785327 71.1757186,147.003176 70.3935678,145.768201 C69.5702513,144.49206 69.7760804,142.72193 70.6405628,141.486955 C71.8755377,139.634492 74.0573266,138.523015 76.2391156,138.111357 Z M109.377608,138.029025 C111.682894,137.699698 114.19401,137.946693 116.16997,139.305166 C117.322613,140.087317 118.228261,141.281126 118.310593,142.72193 C118.392925,144.162734 117.610774,145.562372 116.499296,146.46802 C114.317508,148.279317 111.271236,148.814472 108.513126,148.279317 C106.784161,147.908824 105.055196,147.085508 104.067216,145.562372 C103.120402,144.162734 103.243899,142.22794 104.273045,140.910633 C105.466854,139.305166 107.442814,138.399518 109.377608,138.029025 Z M141.980945,138.070191 C144.450894,137.617367 147.167839,137.987859 149.267296,139.346332 C150.502271,140.210814 151.613749,141.445789 151.778412,143.01009 C151.943075,144.450894 151.160925,145.932864 150.008281,146.797347 C148.320482,148.114653 146.138693,148.567477 144.039236,148.44398 C141.692784,148.320482 139.264,147.414834 137.78203,145.48004 C136.752884,144.162734 136.588221,142.186774 137.535035,140.787136 C138.523015,139.264 140.293146,138.440683 141.980945,138.070191 Z M175.366432,137.987859 C178.083377,137.658533 180.964985,138.27602 183.146774,139.963819 C184.258251,140.828302 185.205065,142.104442 185.328563,143.545246 C185.45206,144.903719 184.711075,146.262191 183.640764,147.044342 C181.870633,148.361648 179.565347,148.649809 177.465889,148.402814 C175.037106,148.073487 172.649487,147.003176 171.167518,145.027216 C170.179538,143.668744 170.014874,141.692784 171.04402,140.334312 C172.032,138.934673 173.719799,138.234854 175.366432,137.987859 Z M90.9353166,150.090613 C93.2817688,149.637789 95.9163819,149.802452 97.9746734,151.078593 C99.3331457,151.90191 100.362291,153.383879 100.362291,155.030513 C100.403457,157.006472 99.0861508,158.776603 97.4806834,159.805749 C94.4755779,161.740543 90.358995,162.069869 87.230392,160.217407 C85.5014271,159.188261 84.3076181,157.088804 84.8839397,155.030513 C85.6660905,152.354734 88.3418693,150.666935 90.9353166,150.090613 Z M125.638111,150.008281 C127.984563,149.637789 130.57801,149.884784 132.636302,151.20209 C134.159437,152.107739 135.353246,153.754372 135.394412,155.565668 C135.394412,157.582794 134.03594,159.311759 132.389307,160.217407 C129.178372,161.987538 124.938291,161.86404 122.015518,159.641085 C120.368884,158.488442 119.339739,156.265487 120.039558,154.289528 C120.821709,151.90191 123.291658,150.461106 125.638111,150.008281 Z M159.641085,150.090613 C162.028704,149.596623 164.622151,149.843618 166.762774,151.037427 C168.244744,151.778412 169.56205,152.972221 170.179538,154.577688 C170.714693,155.977327 170.467698,157.665126 169.520884,158.858935 C168.162412,160.587899 165.939457,161.328884 163.798834,161.411216 C160.87606,161.534714 157.788623,160.464402 155.894995,158.11795 C154.824683,156.759477 154.495357,154.783518 155.277508,153.17805 C156.100824,151.490251 157.870955,150.502271 159.641085,150.090613 Z M107.236985,163.222513 C109.665769,162.646191 112.341548,162.934352 114.482171,164.210492 C115.964141,165.116141 117.199116,166.639276 117.363779,168.409407 C117.610774,170.467698 116.499296,172.484824 114.852663,173.678633 C111.600563,176.189749 106.578332,176.395578 103.285065,173.843296 C101.514935,172.567156 100.609286,170.220704 101.26794,168.121246 C102.091256,165.486633 104.643538,163.798834 107.236985,163.222513 Z M143.545246,163.140181 C146.426854,162.563859 149.596623,163.181347 151.860744,165.116141 C153.136884,166.186452 154.124864,167.750754 154.124864,169.438553 C154.207196,171.455678 152.972221,173.308141 151.284422,174.337286 C147.744161,176.47791 142.804261,175.98392 139.75799,173.184643 C138.152523,171.743839 137.329206,169.356221 138.111357,167.256764 C138.934673,164.992643 141.23996,163.593005 143.545246,163.140181 Z M125.391116,177.548221 C129.219538,176.724905 133.871276,178.165709 135.641407,181.870633 C136.629387,184.011256 136.176563,186.645869 134.612261,188.374834 C131.689487,191.709266 126.379095,192.244422 122.633005,190.062633 C120.945206,189.115819 119.545568,187.469186 119.175075,185.534392 C118.763417,183.723095 119.298573,181.788302 120.492382,180.429829 C121.727357,178.947859 123.497487,177.959879 125.391116,177.548221 Z"/>
  </g>
</svg>
