<svg xmlns="http://www.w3.org/2000/svg" width="56" height="56" viewBox="0 0 56 56">
  <g fill="none">
    <rect width="55.933" height="55.933" fill="#222" rx="27.966"/>
    <path fill="#FEBA11" d="M29.3025287,12.04 L29.3025287,14.2266819 L17.4774707,17.6410209 L17.4770501,31.1526673 C17.4697308,31.2580787 17.3822743,32.8214291 18.4653715,34.8448439 C19.7332795,37.2135306 22.8544858,40.5018662 29.3016536,43.0254319 L29.3016536,43.0254319 L29.3025287,45.64 C24.1635198,43.643198 17.5798484,39.9646022 15.4999192,34.7617167 C15.0370322,33.6031865 14.7972759,32.3685294 14.8462772,31.0603703 L14.8462772,31.0603703 L14.8445272,31.0603703 L14.8445272,16.1412318 L15.8945545,15.8620995 L29.3025287,12.04 Z M29.6875387,15.4140879 L32.0632256,16.1359817 L32.0632256,34.0678236 L31.9844735,41.0452553 C31.27483,41.453891 30.5100601,41.8607766 29.6875387,42.2641621 L29.6875387,42.2641621 L29.6875387,15.4140879 Z M34.2595328,16.418614 L36.6352196,17.1405078 L36.6352196,37.3754098 C36.6352196,37.3754098 35.1739316,38.7579458 34.2595328,39.2182078 L34.2595328,39.2182078 L34.2595328,16.418614 Z M38.799151,17.9577791 L41.1739628,18.6796729 L41.1074611,28.5403047 L41.1071536,30.3358972 C41.1004964,30.4414797 40.9711551,32.1157325 39.3495403,34.4545837 C39.2200369,34.6418386 39.0809083,34.8334686 38.9312794,35.0285987 L38.9312794,35.0285987 L38.8656527,35.1029756 L38.8656527,35.1029756 L38.8656527,28.4151764 L38.799151,17.9577791 Z"/>
  </g>
</svg>
