<svg xmlns="http://www.w3.org/2000/svg" width="25" height="25" viewBox="0 0 25 25">
  <g fill="none" fill-rule="evenodd">
    <circle cx="12.5" cy="12.5" r="12.5" fill="#2C3E50"/>
    <path fill="#FFF" d="M11.3290476 8.04391304C11.2489542 7.52135199 11.1336434 7.02576008 10.895208 7.43881664 10.2944527 8.32581383 10.2196228 8.68455226 9.16646968 9.64464289 8.11331652 10.6047878 6.81342556 11.3904201 5.62678329 11.5085525 3.72342385 11.6979877 2.62387508 11.0663562 2.39900561 9.14726027 2.25363271 7.90743941 2.49429297 6.45528403 3.05245112 5.18361028 3.61066353 3.91188226 4.42467582 2.9338303 5.47587547 2.06571694 6.52707513 1.19765784 7.50984805.869415697 8.70826558.750197978 9.61289852.660065693 10.0636685 1.09357974 10.0636685 1.67284653 10.0636685 2.21933795 9.55749511 3.31009596 7.96669555 3.13216474 7.82208234 3.31009596 7.65880236 3.90629308 8.21978223 4.12872068 8.29211597 4.16431778 8.58134239 4.27110907 9.05132175 4.16431778 9.55749511 4.12872068 11.034232 3.39214293 11.2205741 2.13555453 11.3423423 1.31465074 10.7227032.638251618 10.2196228.40372318 9.71659677.169194741 9.06439934-.0357056253 7.95410633.0531785909 6.84381333.142117071 5.79766021.463087852 4.75058461 1.11262635 3.70345474 1.76221912 2.85878337 2.54161106 2.21651623 3.45074791 1.57424908 4.35999329 1.09292857 5.32404517.772554692 6.34301209.452180814 7.361979.344467036 8.31886806.449304829 9.21373351.725996293 11.5748087 2.24484197 12.6179773 5.00584185 12.3432393 6.19248412 12.2251611 7.6413294 11.6743286 8.11136302 11.4252032 10.391368 10.2888093 11.368606 8.30210052 11.3290476 8.04391304zM11.6066073 11.694352C7.66032175 12.3859992 3.87829293 13.3276402 1.21469669 14.3857313.104240891 14.826788-.16300866 15.6730331.202784076 16.461053 4.72258445 14.470383 6.96878301 13.8922014 10.2798557 13.0737938 10.8667737 12.9286922 11.3288848 12.513248 11.5100176 11.9786404 11.5425759 11.8825933 11.5750257 11.7870347 11.6066073 11.694352" transform="translate(6.597 4.167)"/>
  </g>
</svg>
