<svg xmlns="http://www.w3.org/2000/svg" width="33" height="33" viewBox="0 0 33 33">
  <g fill="none" transform="translate(-.649 -.545)">
    <path fill="#12B29E" d="M14.8348261,2 L19.9112575,2 C20.2235999,2 20.4768034,2.25375889 20.4768034,2.56678635 L20.4768034,8.15028972 C20.4768034,8.46331718 20.2235999,8.71707608 19.9112575,8.71707608 L14.3399734,8.71707608 C14.027631,8.71707608 13.7744274,8.46331718 13.7744274,8.15028972 L13.7744274,3.06272441 C13.7744274,2.47579793 14.2491841,2 14.8348261,2 Z" transform="rotate(45 17.126 5.359)"/>
    <path fill="#234858" d="M5.56554596,6.63812268 L11.13683,6.63812268 C11.4491724,6.63812268 11.702376,6.89188152 11.702376,7.20490897 L11.702376,21.0610218 C11.702376,21.3740493 11.4491724,21.6278082 11.13683,21.6278082 L6.06039868,21.6278082 C5.47475666,21.6278082 5,21.1520102 5,20.5650837 L5,7.20490897 C5,6.89188152 5.25320355,6.63812268 5.56554596,6.63812268 Z" transform="rotate(45 8.351 14.133)"/>
    <path fill="#234858" d="M23.0887974,12.4621376 L28.1652288,12.4621376 C28.7508708,12.4621376 29.2256275,12.9379355 29.2256275,13.524862 L29.2256275,26.8850368 C29.2256275,27.1980643 28.9724239,27.4518231 28.6600815,27.4518231 L23.0887974,27.4518231 C22.776455,27.4518231 22.5232515,27.1980643 22.5232515,26.8850368 L22.5232515,13.0289239 C22.5232515,12.7158965 22.776455,12.4621376 23.0887974,12.4621376 Z" transform="rotate(45 25.874 19.957)"/>
    <path fill="#12B29E" d="M14.31437,25.3728697 L19.8856541,25.3728697 C20.1979965,25.3728697 20.4512001,25.6266286 20.4512001,25.939656 L20.4512001,31.0272213 C20.4512001,31.6141478 19.9764434,32.0899458 19.3908014,32.0899458 L14.31437,32.0899458 C14.0020276,32.0899458 13.7488241,31.8361869 13.7488241,31.5231594 L13.7488241,25.939656 C13.7488241,25.6266286 14.0020276,25.3728697 14.31437,25.3728697 L14.31437,25.3728697 Z" transform="rotate(45 17.1 28.731)"/>
    <path fill="#234858" d="M20.1767899,7.8368166 L25.7480741,7.8368166 C26.0604165,7.8368166 26.31362,8.09057549 26.31362,8.40360295 L26.31362,13.9871063 C26.31362,14.3001338 26.0604165,14.5538927 25.7480741,14.5538927 L20.1767899,14.5538927 C19.8644475,14.5538927 19.611244,14.3001338 19.611244,13.9871063 L19.611244,8.40360295 C19.611244,8.09057549 19.8644475,7.8368166 20.1767899,7.8368166 L20.1767899,7.8368166 Z" transform="rotate(45 22.962 11.195)"/>
    <path fill="#12B29E" d="M14.3271717,13.6864349 L19.8984558,13.6864349 C20.2107982,13.6864349 20.4640017,13.9401938 20.4640017,14.2532212 L20.4640017,19.8367246 C20.4640017,20.1497521 20.2107982,20.403511 19.8984558,20.403511 L14.3271717,20.403511 C14.0148293,20.403511 13.7616258,20.1497521 13.7616258,19.8367246 L13.7616258,14.2532212 C13.7616258,13.9401938 14.0148293,13.6864349 14.3271717,13.6864349 Z" transform="rotate(45 17.113 17.045)"/>
    <path fill="#234858" d="M8.47755339,19.5360531 L14.0488376,19.5360531 C14.36118,19.5360531 14.6143835,19.789812 14.6143835,20.1028394 L14.6143835,25.6863428 C14.6143835,25.9993703 14.36118,26.2531292 14.0488376,26.2531292 L8.47755339,26.2531292 C8.16521099,26.2531292 7.91200749,25.9993703 7.91200749,25.6863428 L7.91200749,20.1028394 C7.91200749,19.789812 8.16521099,19.5360531 8.47755339,19.5360531 L8.47755339,19.5360531 Z" transform="rotate(45 11.263 22.895)"/>
  </g>
</svg>
