<svg xmlns="http://www.w3.org/2000/svg" width="962" height="594.3" viewBox="0 0 962 594.3"><defs><style>.a{fill:#0056bf;}.b{fill:#fff;}</style></defs><path class="a" d="M689.3,594.3c93.5-65.6,154.6-174.2,154.6-297.1S782.8,65.6,689.3,0H962V594.3Z"/><path class="a" d="M118.4,297.1c0,122.9,61.1,231.5,154.6,297.1H0V0H273C179.5,65.6,118.4,174.2,118.4,297.1Z"/><circle class="a" cx="296.9" cy="296.9" r="296.9" transform="translate(184.1 0.1)"/><path class="b" d="M573.9,197.1c-15-34-49.3-41.1-91.4-34.1L469,110.6l-31.9,8.2,13.3,52.3c-8.4,2.2-17,3.9-25.5,6.3l-13.3-52-31.9,8.2L393.2,186c-6.9,1.9-64.3,16.7-64.3,16.7l8.8,34.1s23.4-6.5,23.2-6c12.9-3.3,19.1,3.1,22,9.2L420,383.6c.5,4.2-.2,11.3-9.3,13.7.5.3-23.2,6-23.2,6L391,443s56.9-14.5,64.4-16.4l13.7,53,31.9-8.2L487.3,418c8.8-2.1,17.3-4.2,25.6-6.3l13.6,53.1,31.9-8.2-13.7-52.9c49.1-11.9,83.8-42.9,76.6-90.2-4.5-28.5-35.7-52-61.6-54.6,16-14.2,24.1-34.9,14.2-61.8ZM558.6,322c6.3,46.9-58.8,52.6-80.4,58.2L459.5,310C481.1,304.5,547.9,280.7,558.6,322Zm-39.3-95.4c6.7,41.7-49,46.5-67,51.2l-17.1-63.6C453.3,209.5,505.6,187.9,519.3,226.6Z"/></svg>