<svg xmlns="http://www.w3.org/2000/svg" width="142" height="142" viewBox="0 0 142 142">
  <g fill="none">
    <circle cx="70.87" cy="70.87" r="70.87" fill="#7866D5"/>
    <path fill="#FFF" d="M99.6,36.37 C102.02,36.66 104.47,36.82 106.86,37.28 C111.6,38.2 113.17,40.56 112.36,45.35 C112.14,47.15 110.73,48.58 108.93,48.81 C107.8,48.99 106.66,49.07 105.52,49.05 C89.96,49.1 74.41,49.14 58.84,49.17 C56.5,49.19 54.17,49.4 51.87,49.79 C44.17,51.05 41.24,54.24 40.63,62.01 C40.34,65.65 40.34,65.65 43.99,65.65 L106,65.65 C106.6,65.65 107.2,65.65 107.8,65.65 C108.79,65.65 109.75,65.92 110.6,66.42 C113.42,68.22 112.72,71.08 112.56,73.67 C112.43,75.77 111.16,76.92 109,77.34 C108.09,77.49 107.17,77.55 106.25,77.53 C85.04,77.53 63.83,77.53 42.63,77.53 C40.28,77.53 40.32,77.53 40.49,79.86 C40.57,81.98 40.84,84.09 41.29,86.17 C42.25,90 44.62,92.4 48.44,93.46 C52.67,94.65 57.02,94.91 61.36,94.94 C76.53,95.04 91.7,95 106.88,95 C108.8,95 110.61,95.24 111.75,97.03 C113.61,100.03 112.69,103.97 109.69,105.84 C109.28,106.09 108.84,106.3 108.39,106.46 C105.09,107.52 101.66,107.77 98.24,107.83 C83.99,108.09 69.75,108.09 55.5,107.83 C51.1,107.72 46.71,107.21 42.41,106.3 C32.27,104.2 27.2,99.05 25.47,88.84 C25.07,86.49 24.87,84.11 24.58,81.74 L24.58,63.13 C24.77,61.3 24.95,59.47 25.16,57.66 C26.48,46.13 31.66,40.42 43,37.9 C47.04,37 51.15,36.8 55.23,36.37 L99.6,36.37 Z"/>
    <path fill="#FFF" d="M76.85,109.8 C69.7,109.8 62.55,109.74 55.45,109.61 C50.94,109.5 46.42,108.98 42.02,108.05 C31.17,105.8 25.51,99.97 23.68,89.13 C23.4,87.46 23.21,85.76 23.03,84.13 C22.95,83.4 22.87,82.68 22.78,81.95 L22.77,81.73 L22.78,62.95 L22.96,61.19 C23.09,59.94 23.22,58.7 23.36,57.47 C24.79,45.22 30.55,38.84 42.61,36.16 C45.77,35.46 48.96,35.17 52.05,34.89 C53.05,34.8 54.05,34.71 55.05,34.6 L55.24,34.59 L99.72,34.59 L99.83,34.6 C100.57,34.69 101.32,34.77 102.07,34.84 C103.75,35.01 105.49,35.19 107.22,35.53 C112.93,36.64 115.13,39.86 114.15,45.66 C113.85,48.2 111.8,50.27 109.18,50.61 C108.01,50.8 106.75,50.89 105.51,50.86 C89.99,50.91 74.43,50.95 58.87,50.98 C56.65,51 54.4,51.2 52.2,51.58 C45.28,52.72 43,55.19 42.45,62.17 C42.4,62.79 42.35,63.41 42.34,63.84 C42.77,63.87 43.4,63.87 44.02,63.87 L107.82,63.87 C107.82,63.87 107.82,63.87 107.82,63.87 C109.13,63.87 110.41,64.22 111.54,64.89 C114.96,67.08 114.67,70.39 114.46,72.81 C114.43,73.14 114.4,73.46 114.38,73.79 C114.21,76.63 112.43,78.53 109.37,79.12 C108.3,79.29 107.26,79.36 106.23,79.34 L42.66,79.34 C42.54,79.34 42.41,79.34 42.29,79.34 C42.3,79.43 42.3,79.53 42.31,79.62 L42.32,79.74 C42.4,81.82 42.66,83.84 43.08,85.8 C43.87,88.94 45.74,90.84 48.95,91.74 C53.24,92.94 57.65,93.13 61.4,93.15 C73.22,93.23 85.25,93.22 96.88,93.21 L106.91,93.21 C108.39,93.21 111.47,93.21 113.29,96.07 C114.46,97.95 114.82,100.15 114.32,102.28 C113.82,104.41 112.52,106.22 110.66,107.37 C110.14,107.69 109.58,107.96 108.99,108.16 C105.29,109.35 101.51,109.57 98.29,109.63 C91.15,109.74 84,109.8 76.85,109.8 Z M26.36,81.62 C26.45,82.32 26.52,83.03 26.6,83.73 C26.78,85.32 26.96,86.96 27.22,88.53 C28.81,97.94 33.31,102.57 42.75,104.53 C46.95,105.42 51.24,105.92 55.52,106.02 C69.67,106.27 84.03,106.27 98.18,106.02 C101.13,105.97 104.59,105.77 107.81,104.74 C108.11,104.64 108.42,104.49 108.71,104.31 C109.75,103.66 110.48,102.65 110.76,101.45 C111.04,100.25 110.84,99.02 110.19,97.98 C109.63,97.1 108.78,96.8 106.85,96.8 L96.83,96.8 C85.2,96.81 73.16,96.81 61.33,96.74 C57.34,96.71 52.63,96.51 47.94,95.19 C43.48,93.95 40.65,91.06 39.53,86.61 C39.05,84.38 38.77,82.15 38.68,79.94 L38.67,79.88 C38.56,78.47 38.49,77.45 39.28,76.59 C40.08,75.73 41.14,75.73 42.61,75.73 L106.23,75.73 C107.08,75.75 107.9,75.7 108.7,75.57 C110.32,75.26 110.69,74.57 110.75,73.57 C110.77,73.21 110.8,72.86 110.83,72.5 C111.05,69.96 111,68.84 109.61,67.95 C109.09,67.64 108.44,67.46 107.78,67.46 C107.78,67.46 107.78,67.46 107.78,67.46 L43.98,67.46 C41.78,67.46 40.45,67.46 39.49,66.43 C38.54,65.4 38.64,64.07 38.82,61.88 C39.5,53.31 43.08,49.43 51.57,48.04 C53.95,47.63 56.39,47.41 58.82,47.39 C74.39,47.36 89.95,47.32 105.51,47.27 C106.58,47.29 107.62,47.22 108.64,47.05 C109.68,46.91 110.45,46.13 110.57,45.15 C111.24,41.2 110.29,39.8 106.52,39.06 C104.95,38.76 103.37,38.59 101.69,38.42 C100.96,38.34 100.23,38.27 99.5,38.18 L55.34,38.18 C54.36,38.28 53.37,38.37 52.39,38.46 C49.28,38.74 46.34,39.01 43.41,39.66 C32.82,42.02 28.2,47.13 26.95,57.88 C26.81,59.1 26.68,60.32 26.56,61.55 L26.39,63.23 L26.39,81.62 L26.36,81.62 Z"/>
  </g>
</svg>
