<svg xmlns="http://www.w3.org/2000/svg" width="417" height="418" viewBox="0 0 417 418">
  <g fill="none">
    <path fill="#7055E9" d="M416.64,237.82 C416.15,231.59 415.7,225.19 415.13,218.82 C414.939645,216.414729 414.582114,214.025623 414.06,211.67 C412.3,204.17 410.55,196.67 408.51,189.25 C406.86,183.25 405.03,177.25 402.86,171.37 C400.69,165.49 397.99,159.52 395.37,153.68 C391.7,145.49 388.13,137.23 384.04,129.24 C379.18,119.74 374.04,110.38 368.61,101.16 C363.15,91.79 357.61,82.44 351.47,73.49 C345.923716,65.4412476 339.948413,57.6967219 333.57,50.29 C327.979623,43.8878604 322.044136,37.7954742 315.79,32.04 C311.23051,27.6600042 306.298579,23.6850155 301.05,20.16 C292.038153,14.0492422 282.193962,9.26691176 271.82,5.96 C265.67,4.09 259.41,2.02 253.08,1.48 C245.02,0.81 236.89,0.03 228.68,0.86 C221.53,1.58 214.34,1.75 207.3,3.46 C203.63,4.35 199.83,4.72 196.22,5.77 C189.54,7.72 182.92,9.87 176.35,12.16 C169.28,14.62 162.16,17.02 155.35,20.02 C147.04,23.66 138.97,27.83 130.84,31.88 C124.33,35.12 117.73,38.24 111.45,41.88 C100.9,48.04 90.54,54.53 80.16,60.97 C68.9363419,68.0107974 58.304554,75.9537028 48.37,84.72 C35.7419267,95.5957866 24.8081049,108.295737 15.93,122.4 C14.16,125.24 12.1,127.98 10.82,131.03 C8.407168,136.672251 6.32039827,142.44843 4.57,148.33 C2.85298526,153.893513 1.65782479,159.60484 1,165.39 C0.464901083,172.300208 0.364703517,179.23722 0.7,186.16 C0.9,192.67 1.64,199.16 2.16,205.65 C2.21478803,206.006187 2.29839586,206.35734 2.41,206.7 C3.35,210.53 4.22,214.38 5.27,218.18 C6.91,224.12 8.51,230.09 10.45,235.94 C11.84,240.14 13.82,244.13 15.45,248.27 C16.78,251.76 17.72,255.41 19.17,258.84 C21.47,264.3 23.99,269.67 26.53,275.03 C30.53,283.55 34.53,292.13 38.88,300.49 C42.59,307.59 46.75,314.49 50.88,321.33 C58.88,334.5 67.17,347.42 76.75,359.5 C83.902226,368.764294 91.8490177,377.386981 100.5,385.27 C113.86,397.13 128.5,406.65 145.77,412.04 C153.91,414.58 162.17,415.84 170.49,416.89 C175.55362,417.383455 180.652058,417.406888 185.72,416.96 C195.072481,416.542853 204.360898,415.203016 213.45,412.96 C217.52,411.89 221.81,411.62 225.82,410.39 C231.6,408.61 237.22,406.27 242.91,404.19 C249.1,401.93 255.34,399.82 261.45,397.39 C265.58,395.75 269.56,393.74 273.54,391.76 C284.44,386.31 295.54,381.23 306.11,375.19 C319.11,367.74 331.92,359.76 344.45,351.46 C356.461028,343.556717 367.632459,334.446003 377.79,324.27 C389.79,312.15 400.11,298.78 407.18,283.07 C410.750605,274.966966 413.355185,266.471874 414.94,257.76 C416.1,251.29 416.09,244.62 416.64,237.82 Z"/>
    <path fill="#FFF" d="M334 249.49C333.2 258.28 329.71 264.81 322 269.1 312.36 274.47 302.87 280.1 293.31 285.61L245.24 313.29C228.88 322.7 212.67 332.37 196.12 341.45 184.47 347.84 170.47 343.37 165.19 330.54 161.13 320.66 164.77 309.24 175.06 303.48 187.93 296.26 200.53 288.56 213.32 281.2 227.1 273.28 241.02 265.61 254.76 257.64 264.93 251.75 274.88 245.48 285.02 239.53 291.07 235.97 297.02 232.08 303.48 229.41 313.63 225.22 326.17 228.97 331.2 240.23 332.5 243.15 333.09 246.39 334 249.49zM268.57 152.28C278.28 152.07 287.06 160.07 289.35 167.8 292.310963 177.688989 287.998133 188.306785 278.98 193.33 265.98 200.53 253.34 208.33 240.48 215.73 226.45 223.89 212.32 231.89 198.23 239.89 189.43 244.943333 180.64 250.023333 171.86 255.13 165.97 258.56 160.09 262.01 154.3 265.62 149.28192 268.83787 143.149056 269.816814 137.378572 268.321043 131.608087 266.825273 126.723025 262.990367 123.9 257.74 118.45 247.39 120.68 234.29 132.66 227.61 143.74 221.43 154.56 214.8 165.55 208.45 178.87 200.74 192.24 193.12 205.55 185.45L241.74 164.68C247.85 161.18 253.83 157.45 260.08 154.25 262.64 153.02 265.75 152.89 268.57 152.28zM240.51 99.13C239.7 107.35 236.16 113.26 229.12 117.29 216.89 124.29 204.81 131.53 192.61 138.58 181.61 144.97 170.43 151.22 159.35 157.58 148.496667 163.8 137.66 170.033333 126.84 176.28 120.5 179.91 114.29 183.78 107.76 187.02 98.97 191.38 87.65 188.24 81.91 179.46 78.9245376 174.924115 77.8767597 169.382774 79 164.07 80.0957956 158.238194 83.7418913 153.201887 88.94 150.34 103.73 141.81 118.45 133.15 133.25 124.65 148.05 116.15 163.12 107.74 178 99.2 188.35 93.26 198.54 87.04 208.93 81.2 219.08 75.47 232.86 78.98 237.84 90.34 239.07 93.09 239.64 96.17 240.51 99.13z"/>
  </g>
</svg>
