<svg xmlns="http://www.w3.org/2000/svg" width="256" height="256" viewBox="0 0 256 256">
  <defs>
    <linearGradient id="exodus-wallet-a" x1="0%" x2="100%" y1="50%" y2="50%">
      <stop offset="0%" stop-color="#00BFFF"/>
      <stop offset="100%" stop-color="#6619FF"/>
    </linearGradient>
  </defs>
  <g fill="none" fill-rule="evenodd">
    <circle cx="128" cy="128" r="128" fill="#1F1B35"/>
    <path fill="url(#exodus-wallet-a)" fill-rule="nonzero" d="M158.951667,128 L205,174.001676 L188.783333,174.001676 C185.99713,174.005405 183.323679,172.901609 181.351667,170.933333 L138.395,128 L181.351667,85.0316667 C183.323679,83.0633907 185.99713,81.959595 188.783333,81.9633239 L205,81.9633239 L158.951667,128 Z M74.6366667,85.0316667 C72.6675148,83.06625 69.9988279,81.963333 67.2166667,81.963333 L51,81.963333 L97.0366667,128 L51,174.001667 L67.2166667,174.001667 C69.9988279,174.001667 72.6675148,172.89875 74.6366667,170.933333 L117.605,128 L74.6366667,85.0316667 Z M128,138.395 L85.0316667,181.363333 C83.06625,183.332485 81.963333,186.001172 81.963333,188.783333 L81.963333,205 L128,158.963333 L174.036667,205 L174.036667,188.783333 C174.034216,185.999499 172.926362,183.330577 170.956667,181.363333 L128,138.395 Z M128,117.605 L170.956667,74.6366667 C172.926362,72.6694236 174.034216,70.0005016 174.036667,67.2166667 L174.036667,51 L128,97.0366667 L81.963333,51 L81.963333,67.2166667 C81.963333,69.9988279 83.06625,72.6675148 85.0316667,74.6366667 L128,117.605 Z"/>
  </g>
</svg>
