<svg xmlns="http://www.w3.org/2000/svg" xmlns:xlink="http://www.w3.org/1999/xlink" width="256" height="256" viewBox="0 0 256 256">
  <defs>
    <polygon id="green-wallet-a" points="0 1.624 93.741 1.624 93.741 105.614 0 105.614"/>
    <polygon id="green-wallet-c" points=".75 .283 94.492 .283 94.492 122.134 .75 122.134"/>
  </defs>
  <g fill="none" fill-rule="evenodd">
    <circle cx="128" cy="128" r="128" fill="#12161D" fill-rule="nonzero"/>
    <g transform="translate(66.783 61.217)">
      <g transform="translate(0 .483)">
        <mask id="green-wallet-b" fill="#fff">
          <use xlink:href="#green-wallet-a"/>
        </mask>
        <path fill="#00B35A" fill-rule="nonzero" d="M14.2363976,84.4276269 L14.2363976,15.8809946 L93.7413944,15.8809946 L93.7413944,1.62290764 L-0.000631727382,1.62290764 L-0.000631727382,70.3485295 C-0.000631727382,84.1475612 9.72796989,95.34177 22.3772578,105.613658 C17.3697655,99.2100474 14.2363976,92.252623 14.2363976,84.4276269" mask="url(#green-wallet-b)"/>
      </g>
      <g transform="translate(27.375 29.963)">
        <mask id="green-wallet-d" fill="#fff">
          <use xlink:href="#green-wallet-c"/>
        </mask>
        <path fill="#FFF" fill-rule="nonzero" d="M80.4660641,69.0109518 C80.4660641,81.2980491 64.1843439,93.2987637 47.6583558,104.930971 C31.1344733,93.2987637 14.8506473,81.2980491 14.8506473,69.0109518 L14.8506473,14.3454759 L80.4660641,14.3454759 L80.4660641,69.0109518 Z M47.9910655,0.283224442 L0.750492127,0.283224442 L0.750492127,69.0109518 C0.750492127,91.0919296 25.6721372,106.508183 47.6204522,122.135013 C69.5898246,106.508183 94.4925178,91.0919296 94.4925178,69.0109518 L94.4925178,0.283224442 L47.9910655,0.283224442 Z" mask="url(#green-wallet-d)"/>
      </g>
    </g>
  </g>
</svg>
