<svg xmlns="http://www.w3.org/2000/svg" width="256" height="256" viewBox="0 0 256 256">
  <defs>
    <linearGradient id="guarda-wallet-a" x1=".023%" x2="100.072%" y1="49.973%" y2="49.973%">
      <stop offset="0%" stop-color="#B06AB3"/>
      <stop offset="100%" stop-color="#6699F8"/>
    </linearGradient>
  </defs>
  <g fill="none" fill-rule="evenodd">
    <circle cx="128" cy="128" r="128" fill="url(#guarda-wallet-a)"/>
    <g fill="#FFF" fill-rule="nonzero" transform="translate(60.003 57.032)">
      <path d="M67.0218082,34.20725 L31.3900582,42.9403333 C31.5529905,42.8605245 31.7436675,42.8605245 31.9065998,42.9403333 C31.8616832,43.5402917 27.5368498,102.949 67.9265582,116.783333 C108.316266,102.949 103.994641,43.5370833 103.946516,42.9403333 C103.783932,43.0216277 103.59256,43.0216277 103.429975,42.9403333 L67.7982248,34.20725"/>
      <path d="M135.391391,17.122875 C135.484433,18.22975 143.550183,128.217833 68.1896415,153.829958 C-7.86710851,128.221042 0.198641494,18.2329583 0.285266494,17.1260833 L67.5832665,-2.84217094e-13 L134.059933,16.17 C134.5091,16.2790833 134.842766,16.660875 134.878058,17.1260833 L135.391391,17.122875 Z M123.356933,27.7745417 C123.110272,27.8966427 122.820761,27.8966427 122.5741,27.7745417 L68.0516832,13.7027917 L12.9902665,26.9917083 C13.2366928,26.8686078 13.5266735,26.8686078 13.7730998,26.9917083 C13.6993082,27.9060833 7.06768316,118.297667 69.0045582,139.347542 C130.06235,119.0805 123.430725,28.6889167 123.356933,27.7745417 Z"/>
    </g>
  </g>
</svg>
