<svg xmlns="http://www.w3.org/2000/svg" width="256" height="256" viewBox="0 0 256 256">
  <g fill="none" fill-rule="evenodd">
    <circle cx="127.85" cy="127.85" r="127.85" fill="#0F0F47"/>
    <g fill-rule="nonzero" transform="translate(66 33)">
      <path fill="#FFF" d="M57.1213339,5.0468456e-14 C59.9042004,0.512633301 65.6164001,8.31198281 67.2275333,10.7286827 C83.3388656,35.4815478 86.9272987,61.3695295 70.1202498,85.8660779 C60.3802171,99.8902604 47.2348346,113.658126 40.863535,129.622992 C34.4922354,145.331541 37.7145018,160.637307 45.2575347,175.393822 C47.0151346,178.982255 49.2121344,182.387605 50.9331177,185.976038 C51.2992843,186.891455 51.8851509,187.953338 51.335901,188.905371 C50.3106344,189.710938 48.8459678,189.308155 47.6742345,189.161688 C19.479403,183.339638 -1.39209572,152.398557 0.0725708565,124.240342 C0.621820822,112.010376 5.1622872,100.183194 12.0828368,90.1502277 C20.3948196,77.8836451 32.6614021,68.5830124 41.3029349,55.9136465 C49.1389011,44.5990972 53.8258342,31.3438647 55.7299007,17.7956989 C56.6453173,11.9004159 56.8650173,5.93189963 57.1213339,5.0468456e-14 Z"/>
      <path fill="#357BE1" d="M98.0587647,76.1992786 C98.0953814,76.1260452 98.0953814,76.0528119 98.1686147,75.9795786 C98.241848,75.9429619 98.3150814,75.9795786 98.4249314,75.9429619 C99.2671146,76.3457452 99.9262146,77.0414618 100.621931,77.6639451 C119.552747,94.4709941 128.267513,120.432209 120.797713,144.928758 C118.124697,153.753374 113.181447,161.845657 106.773531,168.509889 C101.500731,174.039006 97.3996647,176.565556 90.9185152,180.373689 C88.208882,181.948205 85.6823322,183.559338 83.8881156,185.500022 C82.7163823,186.671755 81.8741991,188.136422 80.8855491,189.454621 C77.4435827,188.502588 68.8752832,175.064272 67.26415,171.549073 C60.7830004,157.41504 63.6757169,142.438824 69.9737831,128.817425 C76.0521494,115.672043 85.2795488,105.016593 91.9803984,92.1641442 C94.5435649,87.0744279 97.1799648,81.8748615 98.0587647,76.1992786 Z"/>
    </g>
  </g>
</svg>
