<svg xmlns="http://www.w3.org/2000/svg" width="256" height="256" viewBox="0 0 256 256">
  <defs>
    <linearGradient id="imtoken-a" x1="97.185%" x2="-.038%" y1="3.105%" y2="99.699%">
      <stop offset="0%" stop-color="#11C4D1"/>
      <stop offset="100%" stop-color="#0062AD"/>
    </linearGradient>
  </defs>
  <g fill="none">
    <path fill="url(#imtoken-a)" d="M255.325591,175.632516 C255.325591,175.632516 255.325591,202.16843 252.495828,213.564559 C249.666065,225.090065 244.279054,232.998538 238.484645,238.894796 C232.555355,244.791054 224.740473,250.15329 212.884645,252.966538 C200.893935,255.782538 175.024172,255.648687 175.024172,255.648687 L80.975828,255.648687 C80.975828,255.648687 54.4344086,255.648687 42.9804731,252.834409 C31.5292903,249.88628 23.4446452,244.658925 17.5181075,238.759914 C11.5860645,232.863656 6.19905376,225.090065 3.50417204,213.159914 C0.674408602,201.232516 0.805573787,175.497634 0.805573787,175.497634 L0.805573787,81.6750108 C0.805573787,81.6750108 0.805573787,55.1390968 3.63905376,43.7429677 C6.46606452,32.2174624 11.855828,24.3089892 17.6502366,18.4127312 C23.5795269,12.5164731 31.3944086,7.15423656 43.2502366,4.33823656 C55.2409462,1.52498925 81.1107097,1.65883828 81.1107097,1.65883828 L175.159054,1.65883828 C175.159054,1.65883828 201.700473,1.65883828 213.154409,4.47311828 C224.605591,7.42124731 232.690237,12.6486022 238.616774,18.5476129 C244.546065,24.443871 249.935828,32.2174624 252.63071,44.1476129 C255.328344,56.0750108 255.328344,81.8098925 255.328344,81.8098925 L255.328344,175.632516 L255.325591,175.632516 Z"/>
    <path fill="#FFF" d="M215.444645,79.2636559 C220.699527,151.505204 172.464172,185.820215 129.213935,189.572129 C89.0604731,193.05428 51.3348817,169.466495 48.1004731,132.875011 C45.4055914,102.719312 64.8092903,89.7183656 80.0316559,88.5099355 C95.664172,87.172129 108.733935,97.491957 109.945118,110.091011 C111.024172,122.15329 103.20929,127.782538 97.6846452,128.18443 C93.3739355,128.586323 87.984172,126.037333 87.4446452,120.677849 C87.04,115.987269 88.9255914,115.450495 88.3860645,110.492903 C87.5795269,101.645763 79.6297634,100.707097 75.3190538,101.108989 C70.0614194,101.510882 60.495828,107.544774 61.7097634,122.288172 C63.0585806,137.163699 77.8790538,148.96172 97.28,147.216516 C118.299527,145.339183 132.985118,129.659871 134.064172,107.544774 C134.064172,106.336344 134.333935,105.265548 134.87071,104.192 C135.140473,103.790108 135.275355,103.388215 135.68,102.986323 C136.219527,102.182538 136.759054,101.510882 137.43071,100.841978 L139.319054,98.9646452 C148.48,90.6542796 181.627871,70.8184086 212.749763,76.9844301 C213.019527,76.9844301 213.28929,77.1193118 213.424172,77.2514409 C214.635355,77.2514409 215.309763,78.1901075 215.444645,79.2609032"/>
  </g>
</svg>
