<svg xmlns="http://www.w3.org/2000/svg" width="256" height="256" viewBox="0 0 256 256">
  <g fill="none" fill-rule="evenodd">
    <circle cx="128" cy="128" r="128" fill="#5848D5"/>
    <path fill="#FFF" fill-rule="nonzero" d="M123.378672,62.1521655 C137.208289,61.2535571 151.272305,64.348764 163.394148,71.0716866 C179.668225,80.0244894 192.292354,95.3341151 197.750532,113.006748 C199.156934,117.49979 200.128021,122.159242 200.630307,126.851975 C201.132593,131.77768 200.965165,136.76995 201,141.695655 C200.965165,149.916259 201.032136,158.136862 200.965165,166.357465 C200.797736,171.649271 195.87533,176.242159 190.517609,175.975904 C185.059431,176.208877 180.203997,171.349735 180.170511,165.958084 C180.137026,155.607446 180.170511,145.290089 180.170511,134.939451 C180.203997,131.977371 178.898053,129.048573 176.654507,127.118229 C173.774732,124.522249 169.421584,123.756768 165.838608,125.221167 C162.054718,126.685566 159.342372,130.546254 159.308886,134.573351 C159.275401,144.158508 159.308886,153.743665 159.275401,163.328822 C159.275401,164.992912 159.409344,166.723565 158.940543,168.354373 C158.136885,171.383016 155.859854,173.978996 152.946593,175.210423 C151.004419,176.042468 148.79436,176.109031 146.718243,175.776213 C142.130695,174.910887 138.514233,170.617535 138.480747,165.991366 C138.447262,156.306363 138.447262,146.621361 138.447262,136.936359 C138.447262,135.47196 138.547719,134.007561 138.246347,132.543162 C137.643603,129.447955 135.500515,126.685566 132.654226,125.28773 C129.573537,123.756768 125.722675,123.856613 122.775929,125.620548 C119.594782,127.417765 117.552151,130.945636 117.585637,134.573351 C117.585637,144.158508 117.585637,153.743665 117.585637,163.29554 C117.552151,165.026194 117.686094,166.756847 117.217293,168.420937 C116.346664,171.582707 113.868718,174.278533 110.754543,175.410114 C107.07111,176.674822 102.617505,175.909341 99.8716727,173.080388 C97.8625275,171.150044 96.6905261,168.420937 96.7240118,165.658548 C96.6905261,155.307909 96.7240118,144.957271 96.6905261,134.606633 C96.7240118,131.711117 95.4515532,128.848883 93.3084649,126.918538 C90.8974906,124.72194 87.4149722,123.756768 84.2338255,124.422404 C79.5793057,125.254449 75.9293585,129.581082 75.862387,134.273815 C75.8289012,143.82569 75.862387,153.377565 75.862387,162.962722 C75.8289012,164.859785 75.99633,166.856692 75.3935864,168.720473 C74.489471,171.715834 72.1454682,174.211969 69.2322076,175.310268 C65.4148316,176.774667 60.7268261,175.876059 57.9140227,172.847415 C56.0388205,170.950353 54.9672763,168.28781 55,165.625266 C55,155.174782 55,144.724299 55,134.273815 C55.0342478,121.892987 58.3158518,109.545441 64.4772305,98.7954217 C70.136323,88.844165 78.2398755,80.2907437 87.8168012,73.9672027 C98.3648138,67.0445894 110.754543,62.9176468 123.378672,62.1521655 Z"/>
  </g>
</svg>
