<svg xmlns="http://www.w3.org/2000/svg" width="256" height="256" viewBox="0 0 256 256">
  <g fill="none">
    <circle cx="128" cy="128" r="128" fill="#0AC7A9"/>
    <path fill="#FFF" d="M108.32,128 L149.712,170.64 L175.832,143.736 C178.013851,141.459263 181.030588,140.171919 184.184,140.171919 C187.337412,140.171919 190.354149,141.459263 192.536,143.736 C197.152293,148.546308 197.152293,156.141692 192.536,160.952 L158.064,196.472 C155.870872,198.728035 152.858348,200.000887 149.712,200.000887 C146.565652,200.000887 143.553128,198.728035 141.36,196.472 L91.632,145.224 L91.632,175.688 C91.632,182.376 86.304,187.864 79.816,187.864 C73.288,187.864 68,182.408 68,175.688 L68,80.32 C68,73.6 73.288,68.144 79.816,68.144 C86.336,68.144 91.632,73.6 91.632,80.32 L91.632,110.784 L141.36,59.536 C143.553128,57.2799649 146.565652,56.0071133 149.712,56.0071133 C152.858348,56.0071133 155.870872,57.2799649 158.064,59.536 L192.544,95.056 C197.160293,99.8663082 197.160293,107.461692 192.544,112.272 C190.36165,114.553821 187.341429,115.844437 184.184,115.844437 C181.026571,115.844437 178.00635,114.553821 175.824,112.272 L149.712,85.36 L108.32,128 Z M149.728,115.816 C156.256,115.816 161.552,121.272 161.552,128 C161.552,134.728 156.256,140.184 149.728,140.184 C143.2,140.184 137.904,134.728 137.904,128 C137.904,121.272 143.2,115.816 149.728,115.816 Z"/>
  </g>
</svg>
