<svg xmlns="http://www.w3.org/2000/svg" width="256" height="256" viewBox="0 0 256 256">
  <g fill="#142533" transform="translate(18 18)">
    <path d="M184.339692-.000188902252L83.7827692-.000188902252 83.7827692 135.665538 219.556615 135.665538 219.556615 35.1018462C219.556615 25.772285 215.842653 16.8265092 209.23487 10.2403181 202.627087 3.654127 193.669203-.0305857757 184.339692-.000188902252zM52.4344615-1.63413513e-7L35.1052308-1.63413513e-7C25.7950559-.000897712359 16.8658945 3.69692558 10.2822893 10.279896 3.69868416 16.8628664 0 25.7916713 0 35.1018462L0 52.4310769 52.4344615 52.4310769 52.4344615-1.63413513e-7z"/>
    <polygon points="0 83.783 52.434 83.783 52.434 136.217 0 136.217"/>
    <path d="M167.565538,219.556615 L184.894769,219.556615 C194.221389,219.556615 203.164588,215.844962 209.75029,209.240844 C216.335992,202.636727 220.022695,193.683199 219.996753,184.356615 L219.996753,167.565538 L167.565538,167.565538 L167.565538,219.556615 Z"/>
    <polygon points="83.783 167.566 136.217 167.566 136.217 220 83.783 220"/>
    <path d="M-1.63413513e-07,167.565538 L-1.63413513e-07,184.894769 C-0.000897712359,194.204944 3.69692558,203.134106 10.279896,209.717711 C16.8628664,216.301316 25.7916713,220 35.1018462,220 L52.4310769,220 L52.4310769,167.565538 L-1.63413513e-07,167.565538 Z"/>
  </g>
</svg>
