<svg xmlns="http://www.w3.org/2000/svg" width="256" height="256" viewBox="0 0 256 256">
  <path fill="#0090FF" d="M87.9077342,18.0000319 C85.866636,17.9941437 83.9068763,18.8037 82.4599598,20.2504828 C81.0130433,21.6972657 80.1976099,23.6626461 80.1932036,25.7138821 L80.1932036,58.0963115 C80.2005479,61.2517657 81.4552829,64.2749651 83.6812222,66.5004576 C85.9071615,68.72595 88.9218512,69.9713182 92.0617122,69.9624376 L115.216396,69.9624376 C118.35824,69.9535559 121.374913,71.199334 123.602772,73.4257122 C125.830632,75.6520905 127.087184,78.6766936 127.095997,81.8341372 L127.095997,117.025645 C127.100404,120.185021 128.354249,123.213072 130.581387,125.442905 C132.808525,127.672738 135.82629,128.921464 138.970051,128.914065 L174.176263,128.914065 C180.711433,128.898649 186.023363,134.207018 186.044772,140.774618 L186.044772,163.916072 C186.049173,167.074428 187.303372,170.101339 189.530832,172.329403 C191.758292,174.557466 194.776087,175.803708 197.918826,175.793409 L230.279923,175.793409 C232.322492,175.799265 234.283663,174.989122 235.731619,173.541294 C237.179576,172.093465 237.995594,170.126667 238,168.073953 L238,25.7306028 C238,23.6778914 237.185333,21.7099222 235.739458,20.2600046 C234.293583,18.8100869 232.333584,17.9971058 230.291015,18.0000319 L87.9077342,18.0000319 Z M79.394575,168.386073 L79.394575,94.541872 C79.3931063,91.3854553 78.1432504,88.3590673 75.9202737,86.1292352 C73.697297,83.8994032 70.6835243,82.649014 67.5427044,82.6534195 L25.7200766,82.6534195 C23.6755883,82.64753 21.7127371,83.4592021 20.2644608,84.9094411 C18.8161846,86.35968 18,88.3293432 18,90.3839903 L18,230.280544 C18.0152872,234.552704 21.469,238.006111 25.7200766,237.999968 L168.097812,237.999968 C170.139869,238.005856 172.100469,237.195536 173.547545,235.747548 C174.994621,234.29956 175.809406,232.332747 175.812342,230.280544 L175.812342,192.135046 C175.804998,188.978113 174.549679,185.953496 172.322699,183.726959 C170.09572,181.500421 167.07962,180.254466 163.938288,180.263346 L91.2852677,180.263346 C84.7448762,180.278758 79.429567,174.964503 79.4112131,168.391647"/>
</svg>
