<svg xmlns="http://www.w3.org/2000/svg" width="256" height="256" viewBox="0 0 256 256">
  <defs>
    <linearGradient id="lumi-wallet-a" x1="100%" x2="0%" y1="73.6%" y2="26.4%">
      <stop offset="1.105%" stop-color="#417DAA"/>
      <stop offset="97.79%" stop-color="#05538B"/>
    </linearGradient>
  </defs>
  <g fill="none">
    <rect width="256" height="256" fill="url(#lumi-wallet-a)" rx="128"/>
    <path fill="#FFF" d="M43.6096 82.1856C34.1944 82.1856 26.2656 74.216 26.2656 64.752 26.2656 55.288 34.1944 47.3184 43.6096 47.3184 53.0248 47.3184 60.9536 55.288 60.9536 64.752 60.9536 74.216 53.0248 82.1856 43.6096 82.1856zM43.6096 55.288C38.6544 55.288 34.6896 59.2728 34.6896 64.2536 34.6896 69.2344 38.6544 73.2192 43.6096 73.2192 48.5648 73.2192 52.5288 69.2344 52.5288 64.2536 52.5288 59.2728 48.5648 55.288 43.6096 55.288zM99.1096 82.1856C89.6944 82.1856 81.7656 74.216 81.7656 64.752 81.7656 55.288 89.6944 47.3184 99.1096 47.3184 108.5248 47.3184 116.4536 55.288 116.4536 64.752 116.4536 74.216 108.5248 82.1856 99.1096 82.1856zM99.1096 55.288C94.1544 55.288 90.1896 59.2728 90.1896 64.2536 90.1896 69.2344 94.1544 73.2192 99.1096 73.2192 104.0648 73.2192 108.0288 69.2344 108.0288 64.2536 108.0288 59.2728 104.0648 55.288 99.1096 55.288zM71.3592 35.3648C61.944 35.3648 54.016 27.3952 54.016 17.93152 54.016 7.9696 61.4488 1.42108547e-13 71.3592 1.42108547e-13 80.7744 1.42108547e-13 88.7032 7.9696 88.7032 17.43344 88.7032 27.3952 80.7744 35.3648 71.3592 35.3648zM71.3592 8.46768C66.404 8.46768 62.44 12.45248 62.44 17.43344 62.44 22.4144 66.404 26.3992 71.3592 26.3992 76.3152 26.3992 80.2792 22.4144 80.2792 17.43344 80.2792 12.45248 76.3152 8.46768 71.3592 8.46768zM71.3592 131.0008C61.944 131.0008 54.016 123.0312 54.016 113.5672 54.016 104.1032 61.944 96.1336 71.3592 96.1336 80.7744 96.1336 88.7032 104.1032 88.7032 113.5672 88.7032 123.0312 80.7744 131.0008 71.3592 131.0008zM71.3592 104.1032C66.404 104.1032 62.44 108.088 62.44 113.0688 62.44 118.0504 66.404 122.0352 71.3592 122.0352 76.3152 122.0352 80.2792 118.0504 80.2792 113.0688 80.2792 108.5864 76.3152 104.1032 71.3592 104.1032zM17.34384 131.0008C7.92864 131.0008-8.56203997e-13 123.0312-8.56203997e-13 113.5672-8.56203997e-13 104.1032 7.92864 96.1336 17.34384 96.1336 26.7592 96.1336 34.688 104.1032 34.688 113.5672 34.688 123.0312 27.2544 131.0008 17.34384 131.0008zM17.34384 104.1032C12.38848 104.1032 8.42416 108.088 8.42416 113.0688 8.42416 118.0504 12.38848 122.0352 17.34384 122.0352 22.2992 122.0352 26.2632 118.0504 26.2632 113.0688 26.2632 108.5864 22.2992 104.1032 17.34384 104.1032zM124.8752 131.0008C115.46 131.0008 107.5312 123.0312 107.5312 113.5672 107.5312 104.1032 115.46 96.1336 124.8752 96.1336 134.2904 96.1336 142.2192 104.1032 142.2192 113.5672 142.2192 123.0312 134.7856 131.0008 124.8752 131.0008zM124.8752 104.1032C119.92 104.1032 115.9552 108.088 115.9552 113.0688 115.9552 118.0504 119.92 122.0352 124.8752 122.0352 129.8304 122.0352 133.7944 118.0504 133.7944 113.0688 133.7944 108.5864 129.8304 104.1032 124.8752 104.1032z" transform="translate(56.5 56.5)"/>
  </g>
</svg>
