<svg xmlns="http://www.w3.org/2000/svg" width="259.8" height="241" viewBox="0 0 259.8 241"><defs><style>.a{fill:#e17726;stroke:#e17726;}.a,.b,.c,.d,.e,.f,.g,.h,.i,.j{stroke-linecap:round;stroke-linejoin:round;}.b{fill:#e27625;stroke:#e27625;}.c{fill:#d5bfb2;stroke:#d5bfb2;}.d{fill:#233447;stroke:#233447;}.e{fill:#cc6228;stroke:#cc6228;}.f{fill:#e27525;stroke:#e27525;}.g{fill:#f5841f;stroke:#f5841f;}.h{fill:#c0ac9d;stroke:#c0ac9d;}.i{fill:#161616;stroke:#161616;}.j{fill:#763e1a;stroke:#763e1a;}</style></defs><g transform="translate(2.6 0.5)"><path class="a" d="M243.9,0,142.8,75l18.8-44.2Z"/><path class="b" d="M10.7,0,110.9,75.7,93,30.8Z"/><path class="b" d="M207.5,173.9l-26.9,41.2L238.2,231l16.5-56.2Z"/><path class="b" d="M0,174.8,16.4,231l57.5-15.9L47.1,173.9Z"/><path class="b" d="M70.8,104.3l-16,24.2,57,2.6-1.9-61.5Z"/><path class="b" d="M183.8,104.3,144.1,68.9l-1.3,62.2,57-2.6Z"/><path class="b" d="M73.9,215.1l34.5-16.7L78.7,175.2Z"/><path class="b" d="M146.2,198.4l34.4,16.7-4.7-39.9Z"/><path class="c" d="M180.6,215.1l-34.4-16.7,2.8,22.4-.3,9.5Z"/><path class="c" d="M73.9,215.1l32,15.2-.2-9.5,2.7-22.4Z"/><path class="d" d="M106.5,160.4,77.9,152l20.2-9.3Z"/><path class="d" d="M148.1,160.4l8.4-17.7,20.3,9.3Z"/><path class="e" d="M73.9,215.1l5-41.2-31.8.9Z"/><path class="e" d="M175.7,173.9l4.9,41.2,26.9-40.3Z"/><path class="e" d="M199.8,128.5l-57,2.6,5.3,29.3,8.4-17.7,20.3,9.3Z"/><path class="e" d="M77.9,152l20.2-9.3,8.4,17.7,5.3-29.3-57-2.6Z"/><path class="f" d="M54.8,128.5l23.9,46.7L77.9,152Z"/><path class="f" d="M176.8,152l-.9,23.2,23.9-46.7Z"/><path class="f" d="M111.8,131.1l-5.3,29.3,6.7,34.6,1.5-45.6Z"/><path class="f" d="M142.8,131.1,140,149.3l1.4,45.7,6.7-34.6Z"/><path class="g" d="M148.1,160.4,141.4,195l4.8,3.4,29.7-23.2.9-23.2Z"/><path class="g" d="M77.9,152l.8,23.2,29.7,23.2,4.8-3.4-6.7-34.6Z"/><path class="h" d="M148.7,230.3l.3-9.5-2.6-2.2H108.2l-2.5,2.2.2,9.5-32-15.2,11.2,9.2L107.8,240h38.9l22.8-15.7,11.1-9.2Z"/><path class="i" d="M146.2,198.4l-4.8-3.4H113.2l-4.8,3.4-2.7,22.4,2.5-2.2h38.2l2.6,2.2Z"/><path class="j" d="M248.2,79.9l8.5-41.4L243.9,0,146.2,72.5l37.6,31.8,53.1,15.5,11.7-13.7-5.1-3.7,8.1-7.4-6.2-4.8,8.1-6.2Z"/><path class="j" d="M-2.1,38.5,6.5,79.9,1,84l8.2,6.2L3,95l8.1,7.4L6,106.1l11.7,13.7,53.1-15.5,37.6-31.8L10.7,0Z"/><path class="g" d="M236.9,119.8l-53.1-15.5,16,24.2-23.9,46.7,31.6-.4h47.2Z"/><path class="g" d="M70.8,104.3,17.7,119.8,0,174.8H47.1l31.6.4L54.8,128.5Z"/><path class="g" d="M142.8,131.1l3.4-58.6,15.4-41.7H93l15.4,41.7,3.4,58.6,1.3,18.4.1,45.5h28.2l.1-45.5Z"/></g></svg>