<svg xmlns="http://www.w3.org/2000/svg" width="256" height="256" viewBox="0 0 256 256">
  <g fill="none">
    <line x1=".637" x2=".637" y1="255.789" fill="#DBD9D9"/>
    <path fill="#7ABDF7" d="M114.480398,114.127481 C123.504506,116.342726 132.928529,116.342726 141.952637,114.127481 C147.092496,93.173789 163.412063,76.8135245 184.313632,71.6608479 C190.006444,48.3195201 180.725806,23.8790717 160.991157,10.2413916 C141.256508,-3.3962885 115.170158,-3.3962885 95.4355097,10.2413916 C75.700861,23.8790717 66.4202229,48.3195201 72.1130348,71.6608479 C93.0192542,76.8075451 109.343361,93.1699006 114.480398,114.127481 L114.480398,114.127481 Z"/>
    <path fill="#0D74F5" d="M141.952637,141.655461 C132.928529,139.440217 123.504506,139.440217 114.480398,141.655461 C109.340539,162.609154 93.0209717,178.969418 72.119403,184.122095 C66.426591,207.463423 75.7072291,231.903871 95.4418779,245.541551 C115.176527,259.179231 141.262876,259.179231 160.997525,245.541551 C180.732174,231.903871 190.012812,207.463423 184.32,184.122095 C163.413781,178.975398 147.089674,162.613042 141.952637,141.655461 L141.952637,141.655461 Z"/>
    <path fill="#4494F7" d="M198.049751,69.9946135 C193.423333,69.9939894 188.813637,70.551276 184.32,71.6544638 C179.18563,92.607671 162.866458,108.96754 141.965373,114.114713 C139.755639,123.161325 139.755639,132.60885 141.965373,141.655461 C162.866679,146.806312 179.185105,163.167892 184.32,184.122095 C205.970211,189.423471 228.731134,181.763403 242.804721,164.439374 C256.878308,147.115344 259.752723,123.219324 250.190596,103.037994 C240.62847,82.8566633 220.33644,69.9919627 198.049751,69.9818454 L198.049751,69.9946135 Z"/>
    <path fill="#005CF4" d="M114.480398,141.655461 C116.690132,132.60885 116.690132,123.161325 114.480398,114.114713 C93.5783197,108.967013 77.2574402,92.6078929 72.119403,71.6544638 C48.8361382,65.9474554 24.4564869,75.2512372 10.8527314,95.0350995 C-2.7510241,114.818962 -2.7510241,140.970365 10.8527314,160.754227 C24.4564869,180.538089 48.8361382,189.841871 72.119403,184.134863 C77.2525243,163.174779 93.5739976,146.807684 114.480398,141.655461 L114.480398,141.655461 Z"/>
    <path fill="#186EF9" d="M141.952637,114.127481 C162.854206,108.974805 179.173773,92.6145402 184.313632,71.6608479 C163.412063,76.8135245 147.092496,93.173789 141.952637,114.127481 L141.952637,114.127481 Z"/>
    <path fill="#0246F2" d="M141.952637,141.655461 C147.088603,162.611353 163.409869,178.973321 184.313632,184.122095 C179.173773,163.168402 162.854206,146.808138 141.952637,141.655461 L141.952637,141.655461 Z"/>
    <path fill="#0046F8" d="M114.480398,114.127481 C109.340539,93.173789 93.0209717,76.8135245 72.119403,71.6608479 C77.259262,92.6145402 93.5788293,108.974805 114.480398,114.127481 Z"/>
    <path fill="#0729F1" d="M114.480398,141.655461 C93.5788293,146.808138 77.259262,163.168402 72.119403,184.122095 C93.0209717,178.969418 109.340539,162.609154 114.480398,141.655461 L114.480398,141.655461 Z"/>
    <path fill="#7ABDF7" d="M114.480398,114.127481 C123.504506,116.342726 132.928529,116.342726 141.952637,114.127481 C147.092496,93.173789 163.412063,76.8135245 184.313632,71.6608479 C190.006444,48.3195201 180.725806,23.8790717 160.991157,10.2413916 C141.256508,-3.3962885 115.170158,-3.3962885 95.4355097,10.2413916 C75.700861,23.8790717 66.4202229,48.3195201 72.1130348,71.6608479 C93.0192542,76.8075451 109.343361,93.1699006 114.480398,114.127481 L114.480398,114.127481 Z"/>
    <path fill="#0D74F5" d="M141.952637,141.655461 C132.928529,139.440217 123.504506,139.440217 114.480398,141.655461 C109.340539,162.609154 93.0209717,178.969418 72.119403,184.122095 C66.426591,207.463423 75.7072291,231.903871 95.4418779,245.541551 C115.176527,259.179231 141.262876,259.179231 160.997525,245.541551 C180.732174,231.903871 190.012812,207.463423 184.32,184.122095 C163.413781,178.975398 147.089674,162.613042 141.952637,141.655461 L141.952637,141.655461 Z"/>
    <path fill="#4494F7" d="M198.049751,69.9946135 C193.423333,69.9939894 188.813637,70.551276 184.32,71.6544638 C179.18563,92.607671 162.866458,108.96754 141.965373,114.114713 C139.755639,123.161325 139.755639,132.60885 141.965373,141.655461 C162.866679,146.806312 179.185105,163.167892 184.32,184.122095 C205.970211,189.423471 228.731134,181.763403 242.804721,164.439374 C256.878308,147.115344 259.752723,123.219324 250.190596,103.037994 C240.62847,82.8566633 220.33644,69.9919627 198.049751,69.9818454 L198.049751,69.9946135 Z"/>
    <path fill="#005CF4" d="M114.480398,141.655461 C116.690132,132.60885 116.690132,123.161325 114.480398,114.114713 C93.5783197,108.967013 77.2574402,92.6078929 72.119403,71.6544638 C48.8361382,65.9474554 24.4564869,75.2512372 10.8527314,95.0350995 C-2.7510241,114.818962 -2.7510241,140.970365 10.8527314,160.754227 C24.4564869,180.538089 48.8361382,189.841871 72.119403,184.134863 C77.2525243,163.174779 93.5739976,146.807684 114.480398,141.655461 L114.480398,141.655461 Z"/>
    <path fill="#186EF9" d="M141.952637,114.127481 C162.854206,108.974805 179.173773,92.6145402 184.313632,71.6608479 C163.412063,76.8135245 147.092496,93.173789 141.952637,114.127481 L141.952637,114.127481 Z"/>
    <path fill="#0246F2" d="M141.952637,141.655461 C147.088603,162.611353 163.409869,178.973321 184.313632,184.122095 C179.173773,163.168402 162.854206,146.808138 141.952637,141.655461 L141.952637,141.655461 Z"/>
    <path fill="#0046F8" d="M114.480398,114.127481 C109.340539,93.173789 93.0209717,76.8135245 72.119403,71.6608479 C77.259262,92.6145402 93.5788293,108.974805 114.480398,114.127481 Z"/>
    <path fill="#0729F1" d="M114.480398,141.655461 C93.5788293,146.808138 77.259262,163.168402 72.119403,184.122095 C93.0209717,178.969418 109.340539,162.609154 114.480398,141.655461 L114.480398,141.655461 Z"/>
  </g>
</svg>
