<svg xmlns="http://www.w3.org/2000/svg" width="256" height="256" viewBox="0 0 256 256">
  <defs>
    <linearGradient id="opera-browser-a" x1="49.931%" x2="49.931%" y1="1.63%" y2="98.606%">
      <stop offset="30%" stop-color="#FF1B2D"/>
      <stop offset="44%" stop-color="#FA1A2C"/>
      <stop offset="59%" stop-color="#ED1528"/>
      <stop offset="76%" stop-color="#D60E21"/>
      <stop offset="93%" stop-color="#B70519"/>
      <stop offset="100%" stop-color="#A70014"/>
    </linearGradient>
    <linearGradient id="opera-browser-b" x1="49.984%" x2="49.984%" y1=".846%" y2="99.642%">
      <stop offset="0%" stop-color="#9C0000"/>
      <stop offset="70%" stop-color="#FF4B4B"/>
    </linearGradient>
  </defs>
  <g fill="none">
    <path fill="url(#opera-browser-a)" d="M85.3333333,198.637037 C71.3007407,182.044444 62.1985185,157.550617 61.5664198,130.022716 C61.5664198,130.022716 61.5664198,124.112593 61.5664198,124.049383 C62.1985185,96.5530864 71.2691358,72.0276543 85.3333333,55.4350617 C103.442963,31.7945679 130.56,16.7822222 160.805926,16.7822222 C178.953215,16.807434 196.684581,22.2192405 211.753086,32.3318519 C188.609405,11.5622788 158.62259,0.0513924465 127.525926,0 L127.051852,0 C58.172849,0.158060441 1.96429772,55.1724884 0.327432901,124.03222 C-1.30943192,192.891952 52.2216137,250.515001 121.015309,253.946449 C123.00642,253.946449 125.029136,253.946449 127.051852,253.946449 C158.291044,254.054629 188.464317,242.593288 211.753086,221.771852 C196.693527,231.878481 178.974049,237.290016 160.837531,237.321481 C130.56,237.321481 103.442963,222.309136 85.3333333,198.637037 Z"/>
    <path fill="url(#opera-browser-b)" d="M85.3333333,55.4666667 C96.9955556,41.7185185 112.039506,33.3432099 128.505679,33.3432099 C165.483457,33.3432099 195.476543,75.282963 195.476543,126.988642 C195.476543,178.694321 165.388642,220.697284 128.410864,220.697284 C111.976296,220.697284 96.8059259,212.385185 85.2385185,198.573827 C103.474568,222.245926 130.56,237.258272 160.805926,237.258272 C178.946674,237.25176 196.677499,231.862118 211.753086,221.771852 C238.713601,197.674192 254.125486,163.227944 254.125486,127.067654 C254.125486,90.907365 238.713601,56.4611163 211.753086,32.3634568 C196.688125,22.2396704 178.956488,16.8167813 160.805926,16.7822222 C130.56,16.7822222 103.442963,31.7945679 85.3333333,55.4666667 Z"/>
  </g>
</svg>
