<svg xmlns="http://www.w3.org/2000/svg" width="256" height="256" viewBox="0 0 256 256">
  <defs>
    <linearGradient id="paxful-a" x1="0%" x2="100%" y1="100%" y2="0%">
      <stop offset="0%" stop-color="#43117A"/>
      <stop offset="100%" stop-color="#623598"/>
    </linearGradient>
  </defs>
  <g fill="none" fill-rule="evenodd">
    <circle cx="128" cy="128" r="128" fill="url(#paxful-a)"/>
    <g fill-rule="nonzero" transform="translate(57 57)">
      <path fill="#FFF" d="M89.2591808 73.4666667L129.159181 128.566667 103.192514 128.566667C99.3925142 128.566667 95.5925142 127.3 93.0591808 124.133333L92.4258475 123.5 77.8591808 103.233333C74.6925142 98.1666667 74.6925142 91.8333333 77.8591808 86.7666667L78.4925142 85.5 89.2591808 73.4666667zM37.3258475 10.7666667C41.7591808 10.7666667 44.9258475 12.0333333 47.4591808 15.2L48.0925142 15.8333333 55.6925142 26.6C58.8591808 31.0333333 58.8591808 37.3666667 56.3258475 41.8L55.6925142 42.4333333 44.9258475 57.6333333 10.7258475 10.1333333 37.3258475 10.7666667z"/>
      <path fill="#00A5EF" d="M139.925847,-1.14752652e-12 L3.1258475,146.933333 C1.85918083,148.833333 -1.30748583,146.3 0.592514165,144.4 L99.3925142,5.06666667 C101.925847,1.9 105.725847,-1.14752652e-12 110.159181,-1.14752652e-12 L139.925847,-1.14752652e-12 Z"/>
    </g>
  </g>
</svg>
