<svg xmlns="http://www.w3.org/2000/svg" width="256" height="256" viewBox="0 0 256 256">
  <defs>
    <linearGradient id="poloniex-a" x1="50%" x2="50%" y1="100%" y2="0%">
      <stop offset="0%" stop-color="#D1D5D8"/>
      <stop offset="100%" stop-color="#FDFCFD"/>
    </linearGradient>
    <linearGradient id="poloniex-b" x1="26.616%" x2="73.396%" y1="12.775%" y2="87.214%">
      <stop offset="0%" stop-color="#73A2A8"/>
      <stop offset="100%" stop-color="#71B5BF"/>
    </linearGradient>
    <linearGradient id="poloniex-c" x1="27.466%" x2="72.545%" y1="81.967%" y2="18.04%">
      <stop offset="0%" stop-color="#699699"/>
      <stop offset="100%" stop-color="#73A4A6"/>
    </linearGradient>
    <linearGradient id="poloniex-d" x1="28.179%" x2="71.787%" y1="15.29%" y2="84.683%">
      <stop offset="0%" stop-color="#005661"/>
      <stop offset="100%" stop-color="#048293"/>
    </linearGradient>
    <linearGradient id="poloniex-e" x1="50.036%" x2="50.036%" y1="100.035%" y2="-.014%">
      <stop offset="0%" stop-color="#676F74"/>
      <stop offset="100%" stop-color="#3B444A"/>
    </linearGradient>
    <linearGradient id="poloniex-f" x1="49.934%" x2="49.934%" y1="-.069%" y2="99.894%">
      <stop offset="0%" stop-color="#93989C"/>
      <stop offset="100%" stop-color="#AAAFB2"/>
    </linearGradient>
    <linearGradient id="poloniex-g" x1="69.068%" x2="30.957%" y1="77.172%" y2="22.87%">
      <stop offset="0%" stop-color="#3B444A"/>
      <stop offset="100%" stop-color="#3B444A"/>
    </linearGradient>
    <linearGradient id="poloniex-h" x1="50.067%" x2="50.067%" y1="100.056%" y2="-.02%">
      <stop offset="0%" stop-color="#858B8F"/>
      <stop offset="100%" stop-color="#868D90"/>
    </linearGradient>
    <linearGradient id="poloniex-i" x1="28.618%" x2="71.349%" y1="80.412%" y2="19.594%">
      <stop offset="0%" stop-color="#08575C"/>
      <stop offset="100%" stop-color="#096166"/>
    </linearGradient>
  </defs>
  <g fill="none" fill-rule="evenodd">
    <circle cx="128" cy="128" r="128" fill="url(#poloniex-a)"/>
    <polygon fill="url(#poloniex-b)" points="43.306 67.516 78.734 67.516 119.895 127.855 100.057 132.268 83.559 127.855"/>
    <polygon fill="url(#poloniex-c)" points="41.45 188.194 76.878 188.194 119.895 127.855 83.559 127.855"/>
    <polygon fill="url(#poloniex-d)" points="95.314 67.516 130.742 67.516 171.903 127.855 152.436 132.516 135.526 127.855"/>
    <polygon fill="url(#poloniex-e)" points="176.77 67.516 212.198 67.516 179.946 116.183 161.757 89.54"/>
    <polygon fill="url(#poloniex-f)" points="146.745 67.516 160.396 67.516 153.673 77.662"/>
    <polygon fill="url(#poloniex-g)" points="178.832 188.194 214.26 188.194 180.069 138.95 161.757 164.397"/>
    <polygon fill="url(#poloniex-h)" points="144.641 188.194 162.417 188.194 153.632 175.698"/>
    <polygon fill="url(#poloniex-i)" points="93.458 188.194 128.515 188.194 171.903 127.855 135.526 127.855"/>
  </g>
</svg>
