<svg xmlns="http://www.w3.org/2000/svg" width="256" height="256" viewBox="0 0 256 256">
  <path fill="none" stroke="#E98176" stroke-linecap="round" stroke-linejoin="round" stroke-width="14" d="M128,28.5875963 C118.943117,37.6385543 112.896307,48.5500692 109.81513,60.0896702 M177.704721,148.587597 C183.828561,148.587597 189.9524,147.772862 195.907367,146.178945 M109.81513,60.0896702 C108.224175,66.0446376 107.409441,72.1655146 107.409441,78.2863916 M195.907367,146.178945 C207.444005,143.100731 218.358484,137.047995 227.412404,128 M227.412404,128 C241.138456,114.273948 248.002963,96.2786884 248.002963,78.2863916 M177.704721,8 C159.715386,8 141.723089,14.8615445 128,28.5875963 M128,227.409441 C137.050958,218.355521 143.100731,207.441043 146.181908,195.91033 M28.5846336,128 C14.8615445,141.720126 8,159.715386 8,177.704721 M146.181908,195.91033 C147.769899,189.949438 148.587597,183.825598 148.587597,177.704721 M78.2923169,107.406478 C72.1655146,107.406478 66.0476003,108.221213 60.0896702,109.818092 M78.2923169,248 C96.2846143,248 114.270985,241.135493 128,227.409441 M60.0896702,109.818092 C48.5500692,112.902232 37.6385543,118.943117 28.5846336,128 M128,28.5875963 C114.270985,14.8615445 96.2846143,8 78.2923169,8 M148.587597,78.2863916 C148.587597,72.1655146 147.769899,66.0446376 146.181908,60.0896702 M8,78.2863916 C8,96.2786884 14.8615445,114.273948 28.5846336,128 M146.181908,60.0896702 C143.100731,48.5500692 137.050958,37.6385543 128,28.5875963 M60.0896702,146.178945 C66.0476003,147.772862 72.1655146,148.587597 78.2923169,148.587597 M28.5846336,128 C37.6385543,137.047995 48.5500692,143.100731 60.0896702,146.178945 M248.002963,177.704721 C248.002963,159.715386 241.138456,141.720126 227.412404,128 M107.409441,177.704721 C107.409441,183.825598 108.224175,189.949438 109.81513,195.91033 M128,227.409441 C141.723089,241.135493 159.715386,248 177.704721,248 M109.81513,195.91033 C112.896307,207.441043 118.943117,218.355521 128,227.409441 M227.412404,128 C218.358484,118.943117 207.444005,112.902232 195.907367,109.818092 M195.907367,109.818092 C189.9524,108.221213 183.828561,107.406478 177.704721,107.406478 M198.295279,57.6987952 C198.295279,38.2903417 190.426427,20.7187439 177.704721,8 M78.2923169,8 C65.573573,20.7187439 57.7017579,38.2903417 57.7017579,57.6987952 M78.2923169,107.406478 C91.0140234,120.128185 108.585621,128 128,128 M128,128 C147.411416,128 164.983014,120.128185 177.704721,107.406478 M188.8651,92.8508788 C194.849694,82.5111591 198.295279,70.5093819 198.295279,57.6987952 M67.128975,92.8508788 C70.2160775,98.1807228 73.9668182,103.083943 78.2923169,107.406478 M177.704721,107.406478 C182.03022,103.083943 185.78096,98.1807228 188.8651,92.8508788 M57.7017579,57.6987952 C57.7017579,70.5093819 61.1503062,82.5111591 67.128975,92.8508788 M198.295279,198.298242 C198.295279,185.481731 194.849694,173.485878 188.8651,163.146158 M57.7017579,198.298242 C57.7017579,217.706696 65.573573,235.275331 78.2923169,248 M177.704721,148.587597 C164.983014,135.862928 147.411416,128 128,128 M177.704721,248 C190.426427,235.275331 198.295279,217.706696 198.295279,198.298242 M78.2923169,148.587597 C73.9668182,152.910132 70.2160775,157.810389 67.128975,163.146158 M128,128 C108.585621,128 91.0140234,135.862928 78.2923169,148.587597 M67.128975,163.146158 C61.1503062,173.485878 57.7017579,185.481731 57.7017579,198.298242 M188.8651,163.146158 C185.78096,157.810389 182.03022,152.910132 177.704721,148.587597 M107.409441,177.704721 C120.128185,164.985977 128,147.411416 128,128 M92.8479166,188.862138 C98.1836857,185.783923 103.083943,182.033182 107.409441,177.704721 M8,177.704721 C20.7187439,190.423464 38.2933044,198.298242 57.7017579,198.298242 M128,128 C128,108.585621 120.128185,91.0169863 107.409441,78.2863916 M107.409441,78.2863916 C103.083943,73.9638555 98.1836857,70.2160775 92.8479166,67.1319376 M57.7017579,198.298242 C70.5123445,198.298242 82.5111591,194.849694 92.8479166,188.862138 M57.7017579,57.6987952 C38.2933044,57.6987952 20.7187439,65.5676477 8,78.2863916 M92.8479166,67.1319376 C82.5111591,61.1473435 70.5123445,57.6987952 57.7017579,57.6987952 M163.149121,188.862138 C173.488841,194.849694 185.484693,198.298242 198.295279,198.298242 M248.002963,78.2863916 C235.278294,65.5676477 217.703733,57.6987952 198.295279,57.6987952 M148.587597,78.2863916 C135.86589,91.0169863 128,108.585621 128,128 M198.295279,57.6987952 C185.484693,57.6987952 173.488841,61.1473435 163.149121,67.1319376 M163.149121,67.1319376 C157.813352,70.2160775 152.910132,73.9638555 148.587597,78.2863916 M148.587597,177.704721 C152.910132,182.033182 157.813352,185.783923 163.149121,188.862138 M198.295279,198.298242 C217.703733,198.298242 235.278294,190.423464 248.002963,177.704721 M128,128 C128,147.411416 135.86589,164.985977 148.587597,177.704721"/>
</svg>
