<svg xmlns="http://www.w3.org/2000/svg" width="256" height="256" viewBox="0 0 256 256">
  <g fill="none" transform="translate(9 16)">
    <polygon fill="#30768C" stroke="#FFF" stroke-width="8" points="99.986 33.881 138.867 33.881 196.095 .171 238.816 26.357 238.816 165.728 139.991 224.664 98.857 224.664 0 165.728 0 26.348 43.333 .172"/>
    <polygon fill="#3CA2E0" points="8.13 95.337 8.13 138.857 82.068 96.231 99.296 106.246 99.296 153.16 139.316 153.16 139.316 106.246 156.779 96.231 230.718 139.165 231.231 93.389 141.527 41.353 99.296 41.353"/>
    <polygon fill="#FFF" points="8.13 138.02 8.13 160.823 25.087 171.111 25.087 151.912 82.068 119.179 99.273 129.396 99.422 106.345 82.068 96.231"/>
    <polygon fill="#FFF" points="139.316 139.165 139.316 162.592 156.273 173.162 156.273 153.438 213.254 119.808 230.608 130.373 230.718 106.246 213.254 96.231" transform="matrix(-1 0 0 1 370.034 0)"/>
    <path fill="#FFF" d="M139.425995,153.159911 L175.970007,175.001379 L175.970007,194.159122 L139.425995,216.377007 L99.4217028,216.377007 L62.3278232,194.159122 L62.3278232,175.001379 L99.2963473,153.159911 L139.425995,153.159911 Z M139.425995,181.538062 L100.015171,181.538062 L100.015171,190.429197 L119.680287,202.479212 L139.425995,190.429197 L139.425995,181.538062 Z"/>
    <polygon fill="#FFF" points="25.055 85.661 25.055 40.033 44.211 29.044 81.698 52.013"/>
    <polygon fill="#FFF" points="158.207 84.122 158.207 38.495 177.363 27.505 215.559 50.932" transform="matrix(-1 0 0 1 373.766 0)"/>
    <polygon fill="#0A4654" points="139.426 130.373 157.726 141.899 175.288 130.853 156.779 119.808"/>
    <polygon fill="#0A4654" points="64.636 129.169 82.846 140.888 99.188 129.363 81.899 118.797"/>
  </g>
</svg>
