<svg xmlns="http://www.w3.org/2000/svg" width="256" height="256" viewBox="0 0 256 256">
  <g fill="none" fill-rule="evenodd">
    <circle cx="128" cy="128" r="128" fill="#344A65"/>
    <path fill="#FFFFFE" d="M186.872292,72.7239556 L180.136968,113.10106 L156.196376,84.920698 L186.872292,72.7239556 Z M180.283287,130.465422 L186.275403,152.594444 L140.449653,165.21737 L180.283287,130.465422 Z M80.5238517,119.34517 L105.093848,87.2432234 L147.760963,87.2432234 L175.034379,119.344009 L80.5238517,119.344009 L80.5238517,119.34517 Z M171.875745,127.276594 L127.450478,166.027931 L82.1983926,127.276594 L171.874584,127.276594 L171.875745,127.276594 Z M96.866302,84.942762 L74.911469,113.625951 L68.1691776,72.8772423 L96.8674633,84.942762 L96.866302,84.942762 Z M114.291049,165.203435 L68.0263423,152.603734 L74.3668368,131.011215 L114.291049,165.203435 Z M122.833298,175.750023 L114.100602,185.359472 C106.698713,178.330349 98.5629068,172.088562 89.8766617,166.774623 L122.833298,175.751184 L122.833298,175.750023 Z M165.193839,166.628304 C156.507594,172.028176 148.390368,178.351251 141.036091,185.447728 L132.117593,175.737249 L165.192678,166.629466 L165.193839,166.628304 Z M197.010115,60.1556092 L148.836293,79.3129603 L103.934908,79.3129603 L58,60 L68.4351068,123.061211 L58.4134095,157.198851 L84.5569172,172.829447 C96.9359778,180.229013 108.022553,189.488922 117.511231,200.349051 L127.692021,212 L138.375638,199.748678 C147.542646,189.233444 158.218134,180.208111 170.104819,172.921187 L195.743178,157.19769 L186.511139,123.109984 L197.010115,60.1556092 Z"/>
  </g>
</svg>
