<svg xmlns="http://www.w3.org/2000/svg" width="256" height="256" viewBox="0 0 256 256">
  <g fill="none">
    <circle cx="128" cy="128" r="128" fill="#000"/>
    <path fill="#FFF" d="M165.808612,86.2009569 C165.808612,66.4210526 148.641148,50 127.741627,50 C106.842105,50 89.6746411,66.4210526 89.6746411,86.2009569 L89.6746411,97.7703349 L74,97.7703349 L74,180.995215 L74,180.995215 L127.741627,206 L181.483254,180.995215 L181.483254,180.995215 L181.483254,98.1435407 L165.808612,98.1435407 L165.808612,86.2009569 Z M109.08134,86.2009569 C109.08134,76.8708134 117.291866,69.4066986 127.741627,69.4066986 C138.191388,69.4066986 146.401914,76.8708134 146.401914,86.2009569 L146.401914,97.7703349 L109.08134,97.7703349 L109.08134,86.2009569 Z M159.837321,167.559809 L127.741627,182.488038 L95.645933,167.559809 L95.645933,117.550239 L159.837321,117.550239 L159.837321,167.559809 Z"/>
  </g>
</svg>
