<svg xmlns="http://www.w3.org/2000/svg" width="256" height="256" viewBox="0 0 256 256">
  <g fill="none" fill-rule="evenodd">
    <path fill="#3375BB" fill-rule="nonzero" d="M128,256 C198.692448,256 256,198.692448 256,128 C256,57.3075523 198.692448,0 128,0 C57.3075523,0 0,57.3075523 0,128 C0,198.692448 57.3075523,256 128,256 Z"/>
    <path fill="#FFF" d="M122.835226,207.290535 C124.556437,208.145267 126.278599,209 127.99981,209 C129.72102,209 131.443183,209 132.303788,208.145267 C140.050187,203.018788 146.075376,199.601773 152.100564,196.183801 C184.809276,178.24208 194.277838,168.844812 196,80.8446202 C196,78.281572 195.138443,76.5727774 193.417232,74.8640786 C191.696022,73.155284 189.973859,72.3009346 187.392044,72.3009346 L185.670833,72.3009346 C177.062877,72.3009346 153.822727,72.3009346 133.164393,56.922358 C130.581625,54.359214 126.278599,54.359214 122.835226,56.922358 C102.177083,72.3009346 78.9366474,72.3009346 70.3290717,72.3009346 L68.6075757,72.3009346 C66.8860796,72.3009346 64.3037878,73.155284 62.5822917,74.0097292 C60.8607956,75.718428 60,77.4271268 60,79.9902708 C60.8607956,167.990079 70.3290717,177.388306 103.037878,195.330026 C104.345541,196.071689 105.693569,196.813352 107.073013,197.572262 C112.051957,200.310857 117.443115,203.277507 122.835226,207.290535 Z M111.240635,181.464872 C86.4325645,167.059213 78.7185915,162.579475 77,89.3721978 C89.0689458,88.5182027 110.620893,85.9561219 127.862108,74 C146.828112,86.8101169 164.931245,88.5182027 177,89.3721978 C175.276165,162.817015 168.378916,167.08699 142.51757,181.605672 C140.912916,182.559663 139.188127,183.631467 137.34511,184.777982 C134.235914,186.710868 130.788243,188.855434 127.000191,191 C123.048145,188.389932 118.593632,185.779864 114.789372,183.55101 C113.613769,182.862335 112.500141,182.210058 111.482811,181.605672 L111.240635,181.464872 Z"/>
  </g>
</svg>
