<svg xmlns="http://www.w3.org/2000/svg" width="256" height="256" viewBox="0 0 256 256">
  <defs>
    <linearGradient id="wasabi-wallet-a" x1="49.999%" x2="49.999%" y1="85.215%" y2="-21.429%">
      <stop offset="0%" stop-color="#8BC53F"/>
      <stop offset="17%" stop-color="#91BF3E"/>
      <stop offset="40%" stop-color="#A2AF3C"/>
      <stop offset="66%" stop-color="#BD9538"/>
      <stop offset="95%" stop-color="#E47133"/>
      <stop offset="97%" stop-color="#E76E33"/>
    </linearGradient>
  </defs>
  <g fill="none" fill-rule="evenodd">
    <circle cx="128" cy="128" r="128" fill="#211A23"/>
    <path fill="url(#wasabi-wallet-a)" fill-rule="nonzero" d="M208.618319,86.8972107 L208.345315,85.5377066 L207.253295,84.4529959 C188.92921,66.7902893 159.932456,60 135.180018,60 L135.041695,83.0934917 C129.982005,82.956095 125.333643,82.956095 120.958285,83.0934917 L120.819963,60 C96.0675242,60 67.07077,66.7902893 48.7466851,84.4529959 L47.6546658,85.5377066 L47.3816609,86.8972107 C40.5419797,113.653409 50.5266767,172.347107 107.832213,206.992768 C48.3317178,151.159091 55.4298436,100.076446 57.2207554,90.9721074 C73.6338064,76.0284091 99.6165869,71.411157 110.420299,70.7241736 L110.285616,83.7660124 C95.9255615,85.3966942 80.7428525,89.3341942 68.7087991,98.0299587 C65.9860308,117.872934 74.3144984,140.966426 86.3703923,160.664773 C95.9437619,176.573864 107.977815,189.192665 121.79186,201.420971 L127.99089,134.020661 L127.99089,134.020661 L110.154574,175.337294 C99.2161799,162.566632 79.6581131,135.532025 78.973781,104.013946 C93.745163,96.5439051 110.427579,94.233471 126.84063,94.0960743 C143.526685,93.9622935 161.989093,96.4065084 177.03348,104.013946 C176.349147,135.532025 156.791081,162.566632 145.852687,175.337294 L128.01637,134.020661 L128.01637,134.020661 L134.219041,201.417356 C148.033085,189.18905 160.063499,176.555785 169.640509,160.661157 C181.674562,140.96281 190.02487,117.869318 187.283901,98.0335743 C175.38453,89.3305785 160.067139,85.8088843 145.703444,84.0444215 L145.568762,70.731405 C156.372473,71.411157 182.355254,76.0284091 198.768305,90.9793389 C200.548297,100.083678 207.657343,151.162707 148.171408,207 C205.473304,172.347107 215.458001,113.660641 208.618319,86.8972107 Z"/>
  </g>
</svg>
