<svg xmlns="http://www.w3.org/2000/svg" width="256" height="256" viewBox="0 0 256 256">
  <g fill="none" transform="translate(22 22)">
    <path fill="#E63F0C" d="M199.081973,12.5277545 C190.730136,4.17591818 179.783227,8.64439833e-13 168.836318,8.64439833e-13 C157.889409,8.64439833e-13 146.942982,4.17591818 138.591145,12.5277545 L105.804864,45.3140364 L105.804864,45.3164455 L73.0185818,12.5277545 C64.6643364,4.17591818 53.7174273,8.64439833e-13 42.7734091,8.64439833e-13 C31.8265,8.64439833e-13 20.8795909,4.17591818 12.5277545,12.5277545 C-4.17591818,29.2314273 -4.17591818,56.3149091 12.5277545,73.0161727 L45.3140364,105.804864 L60.5611727,90.5572455 L27.7753727,57.7709636 C23.7685727,53.7646455 21.5618455,48.4381455 21.5618455,42.7734091 C21.5618455,37.1081909 23.7685727,31.7816909 27.7729636,27.7753727 C31.7816909,23.7685727 37.1081909,21.5618455 42.7734091,21.5618455 C48.4381455,21.5618455 53.7646455,23.7685727 57.7709636,27.7753727 L105.804864,75.8063818 L153.838282,27.7753727 C157.845082,23.7685727 163.1711,21.5618455 168.836318,21.5618455 C174.501536,21.5618455 179.828036,23.7685727 183.834355,27.7753727 C187.841155,31.7816909 190.047882,37.1081909 190.047882,42.7734091 C190.047882,48.4381455 187.841155,53.7646455 183.834355,57.7709636 L105.804864,135.800936 L121.049591,151.045664 L199.081973,73.0161727 C215.785645,56.3149091 215.785645,29.2314273 199.081973,12.5277545 Z"/>
    <polygon fill="#E63F0C" points="105.805 135.801 75.809 105.805 60.561 121.05 90.557 151.046"/>
    <path fill="#F48026" d="M12.5277545,199.079564 C20.8795909,207.4314 31.8265,211.609727 42.7734091,211.609727 C53.7174273,211.609727 64.6643364,207.4314 73.0185818,199.079564 L105.804864,166.293282 L105.804864,166.293282 L138.591145,199.079564 C146.942982,207.4314 157.891818,211.609727 168.836318,211.609727 C179.783227,211.609727 190.730136,207.4314 199.081973,199.079564 C215.785645,182.375891 215.785645,155.292409 199.081973,138.591145 L166.293282,105.804864 L151.045664,121.049591 L183.834355,153.838282 C187.841155,157.842673 190.047882,163.168691 190.047882,168.836318 C190.047882,174.501536 187.841155,179.828036 183.834355,183.831945 C179.828036,187.838745 174.501536,190.047882 168.836318,190.047882 C163.1711,190.047882 157.845082,187.838745 153.838282,183.834355 L105.804864,135.800936 L57.7709636,183.834355 C53.7646455,187.838745 48.4381455,190.047882 42.7734091,190.047882 C37.1081909,190.047882 31.7816909,187.838745 27.7729636,183.831945 C23.7685727,179.828036 21.5618455,174.501536 21.5618455,168.836318 C21.5618455,163.168691 23.7685727,157.842673 27.7753727,153.838282 L105.804864,75.8063818 L90.5572455,60.5611727 L12.5277545,138.591145 C-4.17591818,155.292409 -4.17591818,182.375891 12.5277545,199.079564 Z"/>
    <polygon fill="#F48026" points="105.805 75.806 135.801 105.805 151.046 90.557 121.05 60.561"/>
  </g>
</svg>
