<svg xmlns="http://www.w3.org/2000/svg" width="256" height="256" viewBox="0 0 256 256">
  <g fill="none" fill-rule="evenodd">
    <circle cx="128" cy="128" r="128" fill="#242633"/>
    <g fill-rule="nonzero" transform="translate(56 58)">
      <path fill="#FFF" d="M109.130831,37.9785317 C126.505821,37.9611391 141.098371,51.088389 142.852879,68.3891745 C144.608786,85.7037436 132.928846,101.496527 115.885579,104.943548 C114.303839,105.263457 112.769258,104.204923 112.457996,102.579246 C112.146733,100.953569 113.176658,99.376361 114.758398,99.0564519 C128.871962,96.2019674 138.485711,83.2029395 137.046496,69.0111792 C135.605882,54.8056352 123.554181,43.9640965 109.133675,43.9785303 L101.336399,43.9785303 C100.013836,43.9785303 98.856542,43.0645818 98.5159375,41.7511306 C93.2148419,21.3088468 74.6670109,7 53.4030113,7 C32.1390114,7 13.591181,21.3088476 8.29008583,41.7511316 C2.9962297,62.1655002 12.2419238,83.5731295 30.8079766,93.8089283 C32.2285719,94.5921279 32.7624427,96.4106457 32.0004106,97.8707023 C31.2383784,99.3307582 29.4690093,99.8794591 28.0484141,99.0962594 C7.11506998,87.5553303 -3.34744194,63.3302617 2.64916186,40.2059309 C8.63852668,17.1095155 29.520471,1 53.4030112,1 C76.5100892,1 96.8082663,16.0803522 103.526744,37.9785307 L109.130831,37.9785317 Z"/>
      <path fill="#FD9800" d="M56.4324324,106 C54.0847199,106 52.6976187,103.296115 54.0239598,101.305149 L78.6726085,64.3051489 C79.5833503,62.9380372 81.3999626,62.5885849 82.7301253,63.5246253 C84.060288,64.4606658 84.4002956,66.3277392 83.4895538,67.694851 L61.9685196,100 L93.4054056,100 C95.7531181,100 97.1402191,102.703885 95.8138783,104.694851 L71.1652294,141.694851 C70.2544876,143.061963 68.4378753,143.411415 67.1077126,142.475374 C65.7775499,141.539335 65.4375421,139.672261 66.3482841,138.305149 L87.8693184,106 L56.4324324,106 Z"/>
    </g>
  </g>
</svg>
