<svg xmlns="http://www.w3.org/2000/svg" width="40" height="40" viewBox="0 0 40 40">
  <defs>
    <linearGradient id="zengo-wallet-a" x1="14.5%" x2="122%" y1="0%" y2="144.2%">
      <stop offset="0%" stop-color="#4FF4BA"/>
      <stop offset="100%" stop-color="#38ABD5"/>
    </linearGradient>
  </defs>
  <g fill="none" fill-rule="evenodd">
    <path d="M11.392,0 L28.608,0 C32.569,0 34.008,0.412 35.454,1.187 C36.8852726,1.94481961 38.0556065,3.11550187 38.813,4.547 C39.588,5.993 40,7.43 40,11.391 L40,28.607 C40,32.568 39.588,34.007 38.813,35.453 C38.0551804,36.8842726 36.8844981,38.0546065 35.453,38.812 C34.007,39.588 32.57,40 28.609,40 L11.392,40 C7.431,40 5.992,39.588 4.546,38.813 C3.11472738,38.0551804 1.94439354,36.8844981 1.187,35.453 C0.412,34.007 0,32.57 0,28.609 L0,11.392 C0,7.431 0.412,5.992 1.187,4.546 C1.94481961,3.11472738 3.11550187,1.94439354 4.547,1.187 C5.993,0.412 7.43,0 11.391,0 L11.392,0 Z"/>
    <path fill="url(#zengo-wallet-a)" d="M28.973,1.625 C32.2893289,1.47752157 35.1247732,3.98729687 35.381,7.297 C35.428017,7.84087715 35.4098885,8.38842382 35.327,8.928 C34.6663074,12.3752105 32.8862189,15.5079414 30.263,17.84 C28.3334032,19.5719822 26.0647055,20.8837541 23.601,21.692 L23.559,21.706 C22.519,22.132 22.087,21.43 22.727,20.606 C24.376,18.489 26.927,14.02 23.709,12.027 C21.803,10.847 18.647,12.376 16.698,12.903 C14.142,13.592 11.447,14.249 8.798,13.692 C5.72554239,12.9674625 3.69677346,10.0391288 4.098,6.908 C4.55726015,3.84654679 7.20244863,1.59173693 10.298,1.623 L28.973,1.623 L28.973,1.625 Z M4.696,32.702 C4.64905872,32.1581822 4.66651296,31.6107232 4.748,31.071 C5.41056674,27.6229947 7.1919245,24.4898015 9.816,22.157 C11.7440389,20.4252551 14.0109852,19.113171 16.473,18.304 L16.515,18.29 C17.555,17.864 17.987,18.566 17.347,19.39 C15.698,21.507 13.147,25.976 16.365,27.969 C18.271,29.149 21.427,27.62 23.376,27.093 C25.932,26.404 28.628,25.747 31.276,26.304 C34.3376289,27.0003803 36.373567,29.9032698 35.9855808,33.0190335 C35.5975947,36.1347973 32.9119141,38.4497337 29.773,38.374 L11.102,38.374 C7.78585896,38.5209476 4.9507309,36.0114523 4.694,32.702 L4.696,32.702 Z"/>
  </g>
</svg>
