<svg xmlns="http://www.w3.org/2000/svg" width="40" height="40" viewBox="0 0 40 40"><defs><style>.a{fill:#041c21;stroke:#9ce8f8;}.b{fill:#b5fff4;}.c{fill:#74bcb1;}.d{fill:#06fddd;}.e,.g{fill:none;}.f,.h{stroke:none;}.h{fill:#9ce8f8;}</style></defs><g class="a"><rect class="f" width="40" height="40" rx="20"/><rect class="g" x="0.5" y="0.5" width="39" height="39" rx="19.5"/></g><g transform="translate(9.13 10.06)"><path class="b" d="M38.176,8.335a.89.89,0,0,0-1.133.589.641.641,0,0,0,.087.673,8.263,8.263,0,0,1-3.311,11.448,8.83,8.83,0,0,1-7.145.589.89.89,0,0,0-1.133.589.641.641,0,0,0,.087.673,10.643,10.643,0,0,0,14.2,3.872A9.984,9.984,0,0,0,43.84,13.049,9.671,9.671,0,0,0,38.176,8.335Z" transform="translate(-24.708 -8.191)"/><path class="c" d="M37.33,238.593a10.441,10.441,0,0,1-8.714-4.63,1.534,1.534,0,0,0-.663,1.094,11.021,11.021,0,0,0,9.377,5.33,11.235,11.235,0,0,0,5.268-1.3,10.062,10.062,0,0,0,5.188-8.916v-.842A10.38,10.38,0,0,1,37.33,238.593Z" transform="translate(-27.26 -220.518)"/><path class="d" d="M4.49,154.23A3.252,3.252,0,0,0,2.552,156.6c0,.144-.215.144-.287,0A3.252,3.252,0,0,0,.326,154.23a.15.15,0,0,1,0-.287,3.252,3.252,0,0,0,1.938-2.369c0-.144.215-.144.287,0a3.252,3.252,0,0,0,1.938,2.369A.15.15,0,0,1,4.49,154.23Z" transform="translate(-0.219 -151.467)"/><g class="e" transform="translate(-139.713 5.011)"><path class="f" d="M148.76,2.19a2.646,2.646,0,0,0-1.577,1.928c0,.117-.175.117-.234,0a2.646,2.646,0,0,0-1.577-1.928.088.088,0,1,1,0-.175A2.646,2.646,0,0,0,146.95.087c0-.117.175-.117.234,0a2.646,2.646,0,0,0,1.577,1.928A.088.088,0,1,1,148.76,2.19Z"/><path class="h" d="M 147.0882415771484 4.205517768859863 C 147.0371398925781 4.205517768859863 146.9787292480469 4.176309585571289 146.9495239257812 4.117892742156982 C 146.7742919921875 3.241692781448364 146.190185546875 2.540726184844971 145.3723754882812 2.190242767333984 C 145.2555236816406 2.190242767333984 145.2555236816406 2.01500940322876 145.3723754882812 2.01500940322876 C 146.190185546875 1.664526104927063 146.7742919921875 0.9635593891143799 146.9495239257812 0.08735942095518112 C 146.9495239257812 0.02894275262951851 146.9933319091797 -0.0002655813877936453 147.0444488525391 -0.0002655813877936453 C 147.0955505371094 -0.0002655813877936453 147.1539611816406 0.02894275262951851 147.1831665039062 0.08735942095518112 C 147.3584136962891 0.9635593891143799 147.9425354003906 1.664526104927063 148.7603302001953 2.01500940322876 C 148.8771667480469 2.01500940322876 148.8771667480469 2.190242767333984 148.7603302001953 2.190242767333984 C 147.9425354003906 2.540726184844971 147.3584136962891 3.241692781448364 147.1831665039062 4.117892742156982 C 147.1831665039062 4.176309585571289 147.1393585205078 4.205517768859863 147.0882415771484 4.205517768859863 Z"/></g></g></svg>